<?xml version="1.0" encoding="UTF-8" standalone="no"?>
<svg
   xmlns:dc="http://purl.org/dc/elements/1.1/"
   xmlns:cc="http://creativecommons.org/ns#"
   xmlns:rdf="http://www.w3.org/1999/02/22-rdf-syntax-ns#"
   xmlns:svg="http://www.w3.org/2000/svg"
   xmlns="http://www.w3.org/2000/svg"
   viewBox="120 100 850 200"
   height="100"
   width="300"
   xml:space="preserve"
   id="svg2"
   version="1.1"><metadata
     id="metadata8"><rdf:RDF><cc:Work
         rdf:about=""><dc:format>image/svg+xml</dc:format><dc:type
           rdf:resource="http://purl.org/dc/dcmitype/StillImage" /></cc:Work></rdf:RDF></metadata><defs
     id="defs6" /><g
     transform="matrix(1.3333333,0,0,-1.3333333,0,374.28)"
     id="g10"><g
       transform="scale(0.1)"
       id="g12"><path
         id="path16"
         style="fill:#ffffff;fill-opacity:1;fill-rule:nonzero;stroke:none"
         d="m 3534.63,980.898 c -4.99,-4.476 -12.07,-6.738 -21.05,-6.738 h -45.18 v 50.94 h 45.18 c 8.98,0 16.07,-2.31 21.06,-6.89 5.02,-4.61 7.57,-10.87 7.57,-18.581 0,-7.91 -2.55,-14.219 -7.58,-18.731 z m -66.23,119.092 h 28.03 c 8.41,0 14.96,-2.07 19.48,-6.16 4.55,-4.16 6.85,-9.88 6.85,-17.03 0,-6.94 -2.29,-12.66 -6.81,-16.99 -4.53,-4.3 -11.09,-6.47 -19.52,-6.47 h -28.03 z m 76.03,-56.84 -2.64,0.96 2.03,1.95 c 4.19,4 7.52,8.8 9.9,14.29 2.36,5.48 3.56,11.68 3.56,18.46 0,7.53 -1.43,14.49 -4.26,20.71 -2.85,6.21 -6.83,11.59 -11.86,15.99 -5.06,4.4 -11.21,7.9 -18.29,10.38 -7.1,2.49 -15.03,3.76 -23.57,3.76 h -64.86 V 944.5 h 82 c 8.92,0 17.23,1.359 24.71,4.039 7.45,2.672 13.9,6.402 19.15,11.102 5.22,4.668 9.36,10.339 12.29,16.847 2.93,6.524 4.42,13.821 4.42,21.711 0,10.981 -2.91,20.381 -8.65,27.961 -5.77,7.59 -13.82,13.3 -23.93,16.99" /><path
         id="path18"
         style="fill:#ffffff;fill-opacity:1;fill-rule:nonzero;stroke:none"
         d="m 3687.96,997.309 27.73,70.281 27.41,-70.281 z m 22.58,135.771 -82.8,-188.58 h 37.62 l 10.58,24.582 h 79.48 l 10.57,-24.582 h 37.62 l -82.78,188.58 h -10.29" /><path
         id="path20"
         style="fill:#ffffff;fill-opacity:1;fill-rule:nonzero;stroke:none"
         d="m 3743.1,997.309 -27.41,70.281" /><path
         id="path22"
         style="fill:#ffffff;fill-opacity:1;fill-rule:nonzero;stroke:none"
         d="m 3986.42,1012.24 c -3.13,-7.53 -7.59,-14.068 -13.27,-19.451 -5.66,-5.367 -12.6,-9.59 -20.6,-12.519 -7.97,-2.918 -16.93,-4.391 -26.62,-4.391 h -24.9 v 122.401 h 24.9 c 9.66,0 18.61,-1.38 26.58,-4.09 8.01,-2.75 14.95,-6.77 20.62,-11.96 5.68,-5.19 10.15,-11.6 13.29,-19.03 3.13,-7.43 4.71,-16.03 4.71,-25.56 0,-9.33 -1.58,-17.88 -4.71,-25.4 z m 12.64,92.14 c -8.74,8 -19.45,14.27 -31.85,18.65 -12.42,4.39 -26.22,6.62 -40.99,6.62 h -60.28 V 944.5 h 60.28 c 14.76,0 28.55,2.32 40.98,6.891 12.39,4.57 23.11,11.039 31.84,19.218 8.73,8.172 15.67,18.071 20.62,29.441 4.92,11.35 7.42,24 7.42,37.59 0,13.78 -2.5,26.48 -7.42,37.75 -4.95,11.26 -11.88,21 -20.6,28.99" /><path
         id="path24"
         style="fill:#ffffff;fill-opacity:1;fill-rule:nonzero;stroke:none"
         d="m 4133.22,1027.11 h 65.17 v 29.37 h -65.17 v 41.8 h 88.32 v 31.37 H 4098.12 V 944.5 h 126.85 v 31.379 h -91.75 v 51.231" /><path
         id="path26"
         style="fill:#ffffff;fill-opacity:1;fill-rule:nonzero;stroke:none"
         d="M 4296.01,1133.08 V 944.5 h 35.1 v 115.86 l 111.98,-119.29 h 10.06 v 188.58 h -35.09 v -115.29 l -111.68,118.72 h -10.37" /><path
         id="path28"
         style="fill:#ffffff;fill-opacity:1;fill-rule:nonzero;stroke:none"
         d="m 4602.37,1048.76 h -68.53 v -28.8 h 68.53 v 28.8" /><path
         id="path30"
         style="fill:#ffffff;fill-opacity:1;fill-rule:nonzero;stroke:none"
         d="m 4808.06,1133.08 h -10.55 l -50.71,-117.54 -43.12,114.11 h -39.09 l 74.08,-188.58 h 10.24 l 53.73,120.59 54.02,-120.59 h 10.24 l 74.08,188.58 h -39.09 l -43.11,-114.11 -50.72,117.54" /><path
         id="path32"
         style="fill:#ffffff;fill-opacity:1;fill-rule:nonzero;stroke:none"
         d="m 5091.98,1161.11 c 1.92,-1.85 4.26,-3.37 6.91,-4.53 2.62,-1.13 5.27,-1.71 7.89,-1.71 5.87,0 10.81,1.99 15.07,6.08 4.26,4.1 6.33,8.72 6.33,14.18 0,6.02 -2.07,10.88 -6.32,14.87 -4.27,4.01 -9.21,5.96 -15.08,5.96 -5.44,0 -10.43,-2.01 -14.84,-5.98 -4.42,-3.98 -6.57,-8.84 -6.57,-14.85 0,-2.57 0.61,-5.1 1.82,-7.51 1.22,-2.46 2.83,-4.64 4.79,-6.51" /><path
         id="path34"
         style="fill:#ffffff;fill-opacity:1;fill-rule:nonzero;stroke:none"
         d="m 5086.93,976.109 c -10.47,-3.73 -23.6,-3.73 -34.05,0 -5.28,1.903 -9.91,4.782 -13.78,8.563 -3.87,3.75 -6.94,8.469 -9.13,14.027 -2.17,5.511 -3.26,11.971 -3.26,19.231 v 111.72 h -35.09 v -108.87 c 0,-12.29 1.98,-23.518 5.88,-33.37 3.88,-9.82 9.38,-18.269 16.33,-25.121 6.93,-6.848 15.28,-12.148 24.82,-15.75 9.56,-3.629 20.07,-5.469 31.25,-5.469 11.17,0 21.64,1.84 31.1,5.461 9.45,3.61 17.75,8.91 24.69,15.758 6.94,6.84 12.48,15.301 16.48,25.133 3.99,9.848 6.01,21.068 6.01,33.358 v 108.87 h -35.09 v -111.72 c 0,-7.26 -1.09,-13.72 -3.26,-19.231 -2.19,-5.558 -5.26,-10.277 -9.13,-14.039 -3.87,-3.769 -8.49,-6.648 -13.77,-8.551" /><path
         id="path36"
         style="fill:#ffffff;fill-opacity:1;fill-rule:nonzero;stroke:none"
         d="m 5018.23,1161.39 c 1.93,-1.85 4.27,-3.37 6.91,-4.53 2.63,-1.13 5.28,-1.71 7.89,-1.71 5.87,0 10.81,2 15.08,6.09 4.25,4.08 6.32,8.72 6.32,14.18 0,6.01 -2.06,10.83 -6.29,14.71 -4.28,3.93 -9.24,5.83 -15.11,5.83 -5.51,0 -10.38,-1.91 -14.86,-5.86 -4.4,-3.87 -6.54,-8.68 -6.54,-14.68 0,-2.58 0.61,-5.11 1.82,-7.51 1.25,-2.51 2.81,-4.64 4.78,-6.52" /><path
         id="path38"
         style="fill:#ffffff;fill-opacity:1;fill-rule:nonzero;stroke:none"
         d="m 5310.76,1049.56 c -5.27,-5.28 -12.8,-7.94 -22.39,-7.94 h -34.05 v 57.51 h 34.05 c 9.59,0 17.12,-2.67 22.39,-7.94 5.26,-5.27 7.94,-12.23 7.94,-20.68 0,-8.63 -2.68,-15.68 -7.94,-20.95 z m 11.72,-31.2 c 9.95,4.79 17.88,11.73 23.58,20.65 5.7,8.93 8.59,19.52 8.59,31.5 0,8.85 -1.63,17.03 -4.86,24.31 -3.21,7.25 -7.78,13.54 -13.56,18.69 -5.81,5.17 -12.82,9.18 -20.84,11.95 -8.07,2.77 -17.06,4.19 -26.74,4.19 h -69.42 V 944.5 h 35.09 v 66.6 h 30.65 l 0.52,-0.71 48.36,-65.89 H 5373 l -52.4,72.96 1.88,0.9" /><path
         id="path40"
         style="fill:#ffffff;fill-opacity:1;fill-rule:nonzero;stroke:none"
         d="m 5477.56,944.5 h 35.09 v 153.78 h 60.6 v 31.37 h -156 v -31.37 h 60.31 V 944.5" /><path
         id="path42"
         style="fill:#ffffff;fill-opacity:1;fill-rule:nonzero;stroke:none"
         d="m 5684.4,944.5 h 35.1 v 153.78 h 60.6 v 31.37 h -156 v -31.37 h 60.3 V 944.5" /><path
         id="path44"
         style="fill:#ffffff;fill-opacity:1;fill-rule:nonzero;stroke:none"
         d="m 5885.33,1027.11 h 65.17 v 29.37 h -65.17 v 41.8 h 88.32 v 31.37 H 5850.23 V 944.5 h 126.85 v 31.379 h -91.75 v 51.231" /><path
         id="path46"
         style="fill:#ffffff;fill-opacity:1;fill-rule:nonzero;stroke:none"
         d="m 6059.42,1133.08 h -10.26 V 944.5 h 35.1 v 104.17 l 50.04,-63.01 h 10.88 l 50.33,62.98 V 944.5 h 35.08 v 188.58 h -9.98 l -80.89,-103.43 -80.3,103.43" /><path
         id="path48"
         style="fill:#ffffff;fill-opacity:1;fill-rule:nonzero;stroke:none"
         d="m 6406.07,980.898 c -4.99,-4.476 -12.07,-6.738 -21.04,-6.738 h -45.19 v 50.94 h 45.19 c 8.97,0 16.06,-2.31 21.05,-6.89 5.02,-4.61 7.57,-10.87 7.57,-18.581 0,-7.91 -2.55,-14.219 -7.58,-18.731 z m -66.23,119.092 h 28.04 c 8.41,0 14.96,-2.07 19.47,-6.16 4.55,-4.16 6.86,-9.88 6.86,-17.03 0,-6.94 -2.3,-12.66 -6.82,-16.99 -4.52,-4.3 -11.08,-6.47 -19.51,-6.47 h -28.04 z m 76.04,-56.84 -2.65,0.96 2.03,1.95 c 4.19,4 7.52,8.8 9.9,14.29 2.37,5.48 3.57,11.68 3.57,18.46 0,7.53 -1.44,14.49 -4.27,20.71 -2.84,6.21 -6.82,11.59 -11.85,15.99 -5.06,4.4 -11.21,7.9 -18.29,10.38 -7.1,2.49 -15.03,3.76 -23.58,3.76 h -64.85 V 944.5 h 82 c 8.92,0 17.23,1.359 24.71,4.039 7.45,2.672 13.89,6.402 19.15,11.102 5.21,4.668 9.35,10.339 12.28,16.847 2.93,6.524 4.43,13.821 4.43,21.711 0,10.981 -2.91,20.381 -8.66,27.961 -5.77,7.59 -13.81,13.3 -23.92,16.99" /><path
         id="path50"
         style="fill:#ffffff;fill-opacity:1;fill-rule:nonzero;stroke:none"
         d="m 6555.62,1027.11 h 65.17 v 29.37 h -65.17 v 41.8 h 88.32 v 31.37 H 6520.53 V 944.5 h 126.84 v 31.379 h -91.75 v 51.231" /><path
         id="path52"
         style="fill:#ffffff;fill-opacity:1;fill-rule:nonzero;stroke:none"
         d="m 6810.99,1049.56 c -5.28,-5.28 -12.81,-7.94 -22.4,-7.94 h -34.04 v 57.51 h 34.04 c 9.59,0 17.12,-2.67 22.4,-7.94 5.26,-5.27 7.93,-12.23 7.93,-20.68 0,-8.63 -2.67,-15.68 -7.93,-20.95 z m 11.71,-31.2 c 9.96,4.79 17.88,11.73 23.59,20.65 5.69,8.93 8.58,19.52 8.58,31.5 0,8.85 -1.63,17.03 -4.85,24.31 -3.21,7.25 -7.78,13.54 -13.57,18.69 -5.81,5.17 -12.82,9.18 -20.84,11.95 -8.06,2.77 -17.06,4.19 -26.73,4.19 h -69.43 V 944.5 h 35.1 v 66.6 h 30.64 l 0.52,-0.71 48.36,-65.89 h 39.15 l -52.39,72.96 1.87,0.9" /><path
         id="path54"
         style="fill:#ffffff;fill-opacity:1;fill-rule:nonzero;stroke:none"
         d="m 7018.33,1014.53 h 52.01 v -17.768 l -0.34,-0.453 c -5.48,-7.45 -12.62,-13.387 -21.2,-17.68 -8.61,-4.297 -18.77,-6.469 -30.23,-6.469 -9.71,0 -18.59,1.629 -26.38,4.84 -7.83,3.23 -14.65,7.789 -20.31,13.551 -5.66,5.758 -10.06,12.679 -13.1,20.599 -3.02,7.86 -4.54,16.58 -4.54,25.93 0,9.13 1.47,17.69 4.39,25.48 2.92,7.79 7.18,14.62 12.67,20.32 5.48,5.67 12.12,10.13 19.74,13.27 7.61,3.11 16.2,4.7 25.54,4.7 11.87,0 22.31,-2.53 31.02,-7.51 8.16,-4.69 15.51,-11.23 21.86,-19.46 l 24.78,20.38 c -8.79,12.05 -19.66,21.57 -32.33,28.31 -13.11,6.97 -28.17,10.51 -44.76,10.51 -13.99,0 -27.18,-2.46 -39.22,-7.3 -12.03,-4.86 -22.62,-11.66 -31.45,-20.23 -8.84,-8.55 -15.88,-18.79 -20.91,-30.44 -5.02,-11.65 -7.57,-24.45 -7.57,-38.03 0,-13.6 2.55,-26.4 7.57,-38.041 5.03,-11.648 12.07,-21.891 20.91,-30.449 8.84,-8.559 19.42,-15.36 31.45,-20.211 12.04,-4.848 25.23,-7.309 39.22,-7.309 9.91,0 19.42,1.282 28.25,3.789 8.88,2.52 17.2,6.032 24.75,10.411 7.52,4.359 14.37,9.699 20.34,15.859 5.85,6.019 10.88,12.691 14.95,19.812 v 53.529 h -87.11 v -29.94" /><path
         id="path56"
         style="fill:#ffffff;fill-opacity:1;fill-rule:nonzero;stroke:none"
         d="m 4282.08,1798.44 h 215.53 v 96.2 h -323.99 v -503.92 h 108.46 v 154.58 h 195.96 v 97.71 h -195.96 v 155.43" /><path
         id="path58"
         style="fill:#ffffff;fill-opacity:1;fill-rule:nonzero;stroke:none"
         d="m 3834.36,1390.65 h 104.91 v 504.14 h -13.94 l -237.11,-264.4 -239.5,263.2 -1.11,1.2 h -13.17 v -504.14 h 104.2 v 188.03 c 0,22.99 -1.78,55.51 -2.86,73.35 10.33,-14.59 29.61,-41.1 45.64,-59.11 l 97.63,-109.21 1.08,-1.21 h 12.64 l 98.72,110.46 c 16,18.01 35.31,44.5 45.71,59.13 -1.09,-17.84 -2.84,-50.42 -2.84,-73.41 v -188.03" /><path
         id="path60"
         style="fill:#ffffff;fill-opacity:1;fill-rule:nonzero;stroke:none"
         d="m 5036.26,1569.93 v -66.39 c -22.29,-10.21 -58.29,-16.78 -92.58,-16.78 -96.64,0 -159.09,62.17 -159.09,158.39 0,92.39 58.88,156.89 143.21,156.89 53.77,0 81.86,-17.5 107.33,-43.71 l 2.55,-2.6 71.31,70.5 2.41,2.41 -2.25,2.59 c -40.74,46.56 -100.09,69.21 -181.35,69.21 -147.53,0 -254.59,-107.36 -254.59,-255.29 0,-150.74 111.25,-256.02 270.47,-256.02 95.29,0 166.64,37.86 191.04,57.92 l 1.35,1.12 v 217.95 h -218.41 v -96.19 h 118.6" /><path
         id="path62"
         style="fill:#ffffff;fill-opacity:1;fill-rule:nonzero;stroke:none"
         d="m 2870.57,788.191 h 59.36 V 2051.09 h -59.36 V 788.191" /><path
         id="path64"
         style="fill:#ffffff;fill-opacity:1;fill-rule:nonzero;stroke:none"
         d="m 2172.46,1358.41 -607.1,-95.34 87.49,214.71 h 614.07 l 156.61,-384.32 h -146.27 v 36.19 h 88.8 z M 1978.2,1093.46 h -61.28 v 36.19 h 33.97 l 138.47,163.62 62.22,9.77 32.44,-38.34 z m -659.22,0 h -104.19 v 36.19 h 72.63 l 97.16,238.42 -65.68,161.17 h -92.37 l -3.58,18.31 69.04,39.52 -79.24,12.44 -9.91,50.55 107,61.25 99.28,-15.59 58.24,9.14 v -42.87 l 138.1,-163.17 -102.96,-252.68 z m -153.97,251.92 -26.44,-21.99 -23.44,27.7 46.94,39.06 h 157.55 l 8.99,-22.08 -18.53,-45.48 z m 1060.37,-303.36 h 275.09 l -191.99,471.12 -51.19,125.64 h -558.31 l -58.26,68.82 -39.75,-33.06 73.81,-87.22 h 547.5 l 23.68,-58.08 h -598.51 l -128.19,151.48 -0.01,84.38 -110.13,-17.29 -109.32,17.16 -154.96,-88.7 38.92,-198.49 h 100.14 l 14.75,-36.18 h -155.47 l -101.16,-84.16 90.16,-106.54 48.07,39.99 109.88,-17.26 -37.72,-92.54 h -89.51 v -139.07 h 174.97 l 197.42,164.24 475.96,74.74 -84.56,-99.91 h -61.66 v -139.07 h 132.06 l 220.29,183.27 37.4,-44.2 h -29.4 v -139.07" /></g></g></svg>