<?xml version="1.0" encoding="UTF-8" standalone="no"?>
<svg
   viewBox="0 0 2028.4681 2140.733"
   height="2140.7329"
   width="2028.4681"
   xml:space="preserve"
   id="svg2"
   version="1.1"
   sodipodi:docname="cgl_th_koeln.svg"
   inkscape:version="1.4.3 (0d15f75, 2025-12-25)"
   xmlns:inkscape="http://www.inkscape.org/namespaces/inkscape"
   xmlns:sodipodi="http://sodipodi.sourceforge.net/DTD/sodipodi-0.dtd"
   xmlns="http://www.w3.org/2000/svg"
   xmlns:svg="http://www.w3.org/2000/svg"
   xmlns:rdf="http://www.w3.org/1999/02/22-rdf-syntax-ns#"
   xmlns:cc="http://creativecommons.org/ns#"
   xmlns:dc="http://purl.org/dc/elements/1.1/"><sodipodi:namedview
     id="namedview1"
     pagecolor="#ffffff"
     bordercolor="#000000"
     borderopacity="0.25"
     inkscape:showpageshadow="2"
     inkscape:pageopacity="0.0"
     inkscape:pagecheckerboard="0"
     inkscape:deskcolor="#d1d1d1"
     showgrid="false"
     inkscape:zoom="0.12383674"
     inkscape:cx="2034.9373"
     inkscape:cy="189.76598"
     inkscape:window-width="1920"
     inkscape:window-height="1017"
     inkscape:window-x="1912"
     inkscape:window-y="-8"
     inkscape:window-maximized="1"
     inkscape:current-layer="g14" /><metadata
     id="metadata8"><rdf:RDF><cc:Work
         rdf:about=""><dc:format>image/svg+xml</dc:format><dc:type
           rdf:resource="http://purl.org/dc/dcmitype/StillImage" /></cc:Work></rdf:RDF></metadata><defs
     id="defs6"><clipPath
       id="clipPath18"
       clipPathUnits="userSpaceOnUse"><path
         id="path16"
         d="M 0,2514.642 H 7143.202 V 0 H 0 Z" /></clipPath><clipPath
       id="clipPath318"
       clipPathUnits="userSpaceOnUse"><path
         id="path316"
         d="M 0,2514.642 H 7143.202 V 0 H 0 Z" /></clipPath><clipPath
       id="clipPath446"
       clipPathUnits="userSpaceOnUse"><path
         id="path444"
         d="M 0,2514.642 H 7143.202 V 0 H 0 Z" /></clipPath></defs><g
     transform="matrix(1.3333333,0,0,-1.3333333,-441.03426,2846.0262)"
     id="g10"><g
   id="g12"><g
     clip-path="url(#clipPath18)"
     id="g14"><g
       transform="translate(476.4697,1939.5597)"
       id="g20"
       style="fill:#ffffff;fill-opacity:1"><path
         id="path22"
         style="fill:#ffffff;fill-opacity:1;fill-rule:nonzero;stroke:none"
         d="m 0,0 c -7.292,-3.509 -23.653,-7.309 -44.124,-7.309 -62.847,0 -94.707,42.377 -94.707,98.516 0,69.266 45.894,103.753 99.089,103.753 20.162,0 35.36,-4.073 42.087,-7.6 l -8.473,-34.197 c -7.308,3.51 -17.834,6.436 -31.56,6.436 -30.997,0 -56.138,-20.744 -56.138,-66.065 0,-41.795 21.634,-64.593 56.412,-64.593 11.398,0 23.978,2.329 31.577,5.272 z" /></g><g
       transform="translate(644.541,1942.7765)"
       id="g24"
       style="fill:#ffffff;fill-opacity:1"><path
         id="path26"
         style="fill:#ffffff;fill-opacity:1;fill-rule:nonzero;stroke:none"
         d="m 0,0 c -12.271,-4.381 -35.668,-9.943 -58.157,-9.943 -32.16,0 -55.248,8.18 -71.919,24.269 -17.834,16.945 -27.47,43.849 -27.179,74.537 0.582,67.52 46.177,102.298 103.753,102.298 22.523,0 39.468,-4.382 47.957,-8.473 l -8.489,-34.795 c -9.345,4.399 -20.744,7.326 -38.578,7.326 -33.906,0 -59.92,-20.18 -59.92,-65.483 0,-42.96 23.379,-64.884 54.375,-64.884 8.18,0 14.616,0.873 17.525,2.344 v 43.542 h -26.597 v 33.615 H 0 Z" /></g><g
       transform="translate(677.5742,2131.8838)"
       id="g28"
       style="fill:#ffffff;fill-opacity:1"><path
         id="path30"
         style="fill:#ffffff;fill-opacity:1;fill-rule:nonzero;stroke:none"
         d="m 0,0 h 42.668 v -161.055 h 69.848 v -35.942 H 0 Z" /></g><g
       transform="translate(413.7588,1733.6281)"
       id="g32"
       style="fill:#ffffff;fill-opacity:1"><path
         id="path34"
         style="fill:#ffffff;fill-opacity:1;fill-rule:nonzero;stroke:none"
         d="m 0,0 c -4.912,-2.636 -14.565,-4.912 -26.837,-4.912 -30.353,0 -52.629,20.35 -52.629,59.459 0,40.016 24.381,61.939 55.608,61.939 12.46,0 20.521,-2.635 24.029,-4.569 L -3.337,99.816 c -4.912,2.448 -11.399,4.211 -20.18,4.211 -23.148,0 -40.511,-16.14 -40.511,-48.59 0,-31.236 15.609,-47.718 39.999,-47.718 8.249,0 16.139,1.746 21.222,4.211 z" /></g><g
       transform="translate(460.7402,1739.7726)"
       id="g36"
       style="fill:#ffffff;fill-opacity:1"><path
         id="path38"
         style="fill:#ffffff;fill-opacity:1;fill-rule:nonzero;stroke:none"
         d="m 0,0 c 13.863,0 22.284,15.609 22.284,33.152 0,14.035 -5.802,32.81 -22.284,32.81 -16.311,0 -22.455,-17.902 -22.455,-33.169 C -22.455,15.609 -14.206,0 -0.171,0 Z m -0.702,-11.228 c -20.709,0 -36.832,15.781 -36.832,43.678 0,29.302 17.184,44.74 38.064,44.74 21.566,0 36.832,-16.5 36.832,-43.695 0,-31.921 -19.819,-44.723 -37.892,-44.723 z" /></g><path
       id="path40"
       style="fill:#ffffff;fill-opacity:1;fill-rule:nonzero;stroke:none"
       d="m 516.313,1853.965 h 14.754 V 1730.29 h -14.754 z" /><g
       transform="translate(587.1709,1739.7726)"
       id="g42"
       style="fill:#ffffff;fill-opacity:1"><path
         id="path44"
         style="fill:#ffffff;fill-opacity:1;fill-rule:nonzero;stroke:none"
         d="m 0,0 c 13.863,0 22.284,15.609 22.284,33.152 0,14.035 -5.785,32.81 -22.284,32.81 -16.311,0 -22.455,-17.902 -22.455,-33.169 C -22.455,15.609 -14.206,0 -0.171,0 Z m -0.685,-11.228 c -20.71,0 -36.849,15.781 -36.849,43.678 0,29.302 17.201,44.74 38.064,44.74 21.583,0 36.85,-16.5 36.85,-43.695 0,-31.921 -19.819,-44.723 -37.894,-44.723 z" /></g><g
       transform="translate(693.9873,1782.92)"
       id="g46"
       style="fill:#ffffff;fill-opacity:1"><path
         id="path48"
         style="fill:#ffffff;fill-opacity:1;fill-rule:nonzero;stroke:none"
         d="m 0,0 c 0,2.447 -0.171,4.741 -0.702,6.658 -2.464,8.078 -8.592,15.438 -18.946,15.438 -13.162,0 -22.096,-12.631 -22.096,-32.091 0,-18.245 8.061,-30.876 22.096,-30.876 7.89,0 15.438,4.741 18.604,14.736 0.873,2.636 1.044,5.443 1.044,8.062 z m 14.736,-40.7 c 0,-20.521 -3.679,-31.236 -10.885,-38.252 -7.36,-7.018 -18.057,-9.824 -28.412,-9.824 -9.293,0 -19.305,2.293 -25.433,6.144 l 3.681,11.415 c 4.911,-2.995 12.801,-5.802 22.095,-5.802 14.394,0 24.389,7.719 24.389,28.429 v 9.293 h -0.342 c -4.039,-7.548 -12.46,-13.161 -23.687,-13.161 -19.289,0 -32.811,17.731 -32.811,41.761 0,29.472 17.372,44.74 34.744,44.74 12.974,0 19.82,-7.206 23.328,-13.522 h 0.36 L 2.447,32.279 H 15.438 C 15.078,26.307 14.736,19.118 14.736,8.062 Z" /></g><g
       transform="translate(731.6748,1792.5734)"
       id="g50"
       style="fill:#ffffff;fill-opacity:1"><path
         id="path52"
         style="fill:#ffffff;fill-opacity:1;fill-rule:nonzero;stroke:none"
         d="M 0,0 C 0,9.122 -0.359,15.609 -0.701,22.626 H 12.271 L 13.162,9.824 h 0.342 c 4.04,7.548 12.991,14.566 25.434,14.566 11.586,0 27.025,-7.548 27.025,-34.043 V -62.282 H 51.227 v 50.695 c 0,12.631 -4.211,23.688 -17.184,23.688 -8.78,0 -15.969,-6.488 -18.434,-15.267 -0.53,-1.917 -0.873,-4.553 -0.873,-7.188 V -62.282 H 0 Z" /></g><g
       transform="translate(869.5391,1781.1573)"
       id="g54"
       style="fill:#ffffff;fill-opacity:1"><path
         id="path56"
         style="fill:#ffffff;fill-opacity:1;fill-rule:nonzero;stroke:none"
         d="M 0,0 C 0.171,11.946 -4.57,24.92 -18.775,24.92 -32.468,24.92 -38.424,11.057 -39.485,0 Z m -39.656,-10.697 c 0.171,-22.455 12.631,-30.174 26.305,-30.174 9.483,0 15.798,1.763 20.71,4.039 l 2.465,-10.697 c -5.1,-2.465 -13.864,-4.912 -25.262,-4.912 -24.39,0 -38.613,17.012 -38.613,42.805 0,26.135 14.223,45.442 36.679,45.442 24.56,0 31.577,-22.456 31.577,-39.126 0,-3.338 -0.171,-5.615 -0.53,-7.377 z" /></g><g
       transform="translate(1017.209,1734.8439)"
       id="g58"
       style="fill:#ffffff;fill-opacity:1"><path
         id="path60"
         style="fill:#ffffff;fill-opacity:1;fill-rule:nonzero;stroke:none"
         d="m 0,0 c -6.315,-2.448 -18.416,-5.785 -31.749,-5.785 -15.626,0 -28.941,4.039 -39.296,14.393 -9.653,9.636 -15.798,25.434 -15.798,44.912 0.171,38.594 24.03,61.391 58.072,61.391 11.758,0 21.052,-2.636 25.793,-4.723 L -6.486,97.899 c -5.443,2.464 -12.289,4.381 -22.455,4.381 -24.561,0 -42.463,-16.139 -42.463,-47.888 0,-31.937 16.67,-47.889 40.357,-47.889 8.421,0 13.863,1.232 16.67,2.636 V 45.44 H -35.616 V 57.37 H 0 Z" /></g><g
       transform="translate(1080.1592,1773.798)"
       id="g62"
       style="fill:#ffffff;fill-opacity:1"><path
         id="path64"
         style="fill:#ffffff;fill-opacity:1;fill-rule:nonzero;stroke:none"
         d="m 0,0 c -13.863,0.171 -32.108,-2.276 -32.108,-19.307 0,-10.337 6.315,-14.718 13.144,-14.718 9.653,0 16.157,6.127 18.245,13.674 0.531,1.576 0.719,3.338 0.719,4.913 z m 14.377,-23.517 c 0,-7.017 0.171,-14.206 1.232,-19.99 H 2.276 l -1.232,10.166 h -0.53 c -4.382,-6.486 -12.46,-11.912 -23.328,-11.912 -15.267,0 -24.031,11.399 -24.031,24.372 0,20.71 17.715,31.406 46.486,31.235 v 2.106 c 0,8.249 -2.277,19.648 -17.543,19.477 -7.189,0 -14.377,-2.123 -19.649,-5.802 l -3.338,10.183 c 5.974,3.851 15.439,6.847 25.451,6.847 23.14,0 29.815,-15.798 29.815,-33.512 z" /></g><g
       transform="translate(1117.6592,1792.5734)"
       id="g66"
       style="fill:#ffffff;fill-opacity:1"><path
         id="path68"
         style="fill:#ffffff;fill-opacity:1;fill-rule:nonzero;stroke:none"
         d="m 0,0 c 0,9.122 -0.343,15.609 -0.702,22.626 h 12.99 L 12.99,9.824 h 0.342 c 4.382,7.719 11.93,14.566 24.561,14.566 10.355,0 18.604,-6.145 22.113,-15.798 h 0.342 c 2.465,4.569 5.802,8.25 9.123,10.697 4.569,3.337 9.653,5.101 16.499,5.101 11.398,0 25.775,-7.737 25.775,-34.744 V -62.282 H 97.197 v 49.463 c 0,14.924 -4.741,24.92 -16.499,24.92 -7.89,0 -14.034,-5.956 -16.482,-13.504 -0.701,-2.277 -1.061,-4.912 -1.061,-7.719 v -53.16 H 48.59 v 52.269 c 0,12.289 -4.724,22.114 -15.78,22.114 -8.421,0 -15.096,-6.847 -17.184,-14.908 -0.719,-2.276 -1.062,-4.912 -1.062,-7.547 V -62.282 H 0 Z" /></g><g
       transform="translate(1301.2891,1781.1573)"
       id="g70"
       style="fill:#ffffff;fill-opacity:1"><path
         id="path72"
         style="fill:#ffffff;fill-opacity:1;fill-rule:nonzero;stroke:none"
         d="M 0,0 C 0.187,11.946 -4.553,24.92 -18.759,24.92 -32.451,24.92 -38.407,11.057 -39.469,0 Z m -39.64,-10.697 c 0.171,-22.455 12.631,-30.174 26.324,-30.174 9.464,0 15.78,1.763 20.692,4.039 l 2.447,-10.697 c -5.083,-2.465 -13.845,-4.912 -25.261,-4.912 -24.373,0 -38.579,17.012 -38.579,42.805 0,26.135 14.206,45.442 36.662,45.442 24.56,0 31.578,-22.456 31.578,-39.126 0,-3.338 -0.189,-5.615 -0.532,-7.377 z" /></g><g
       transform="translate(1368.4492,1848.5236)"
       id="g74"
       style="fill:#ffffff;fill-opacity:1"><path
         id="path76"
         style="fill:#ffffff;fill-opacity:1;fill-rule:nonzero;stroke:none"
         d="m 0,0 h 14.736 v -105.772 h 45.252 v -12.46 H 0 Z" /></g><g
       transform="translate(1484.7305,1773.798)"
       id="g78"
       style="fill:#ffffff;fill-opacity:1"><path
         id="path80"
         style="fill:#ffffff;fill-opacity:1;fill-rule:nonzero;stroke:none"
         d="m 0,0 c -13.863,0.171 -32.108,-2.276 -32.108,-19.307 0,-10.337 6.315,-14.718 13.161,-14.718 9.653,0 16.138,6.127 18.245,13.674 0.53,1.576 0.702,3.338 0.702,4.913 z m 14.377,-23.517 c 0,-7.017 0.186,-14.206 1.23,-19.99 H 2.275 L 1.061,-33.341 H 0.529 c -4.397,-6.486 -12.459,-11.912 -23.327,-11.912 -15.266,0 -24.048,11.399 -24.048,24.372 0,20.71 17.715,31.406 46.503,31.235 v 2.106 c 0,8.249 -2.294,19.648 -17.56,19.477 -7.189,0 -14.376,-2.123 -19.648,-5.802 l -3.321,10.183 c 5.957,3.851 15.437,6.847 25.434,6.847 23.157,0 29.815,-15.798 29.815,-33.512 z" /></g><g
       transform="translate(1536.9834,1763.1007)"
       id="g82"
       style="fill:#ffffff;fill-opacity:1"><path
         id="path84"
         style="fill:#ffffff;fill-opacity:1;fill-rule:nonzero;stroke:none"
         d="m 0,0 c 0,-1.934 0.171,-3.868 0.53,-5.442 2.979,-11.4 11.228,-17.202 20.161,-17.202 14.566,0 22.455,13.693 22.455,32.639 0,17.201 -7.358,31.92 -22.284,31.92 C 11.758,41.915 3.147,34.385 0.701,24.03 0.342,22.267 0,20.179 0,17.886 Z M -14.736,90.865 H 0 V 39.639 h 0.342 c 5.083,9.123 13.863,14.223 25.622,14.223 18.758,0 32.107,-16.841 32.107,-43.165 0,-30.534 -17.2,-45.253 -34.401,-45.253 -11.399,0 -19.649,4.895 -25.073,14.908 h -0.533 l -0.7,-13.162 h -12.802 c 0.341,5.614 0.702,14.377 0.702,21.394 z" /></g><g
       transform="translate(380.7607,1312.9181)"
       id="g86"
       style="fill:#979797;fill-opacity:1"><path
         id="path88"
         style="fill:#979797;fill-opacity:1;fill-rule:nonzero;stroke:none"
         d="M 0,0 H -49.985 V 29.814 H 84.755 V 0 H 34.504 V -167.199 H 0 Z" /></g><g
       transform="translate(546.7783,1231.6544)"
       id="g90"
       style="fill:#979797;fill-opacity:1"><path
         id="path92"
         style="fill:#979797;fill-opacity:1;fill-rule:nonzero;stroke:none"
         d="M 0,0 C 0.309,16.071 -6.127,35.069 -26.289,35.069 -45.595,35.069 -54.066,15.198 -55.248,0 Z m -55.248,-24.27 c 0.582,-27.469 18.998,-37.996 40.05,-37.996 14.908,0 25.724,2.636 35.36,6.145 l 4.981,-23.961 c -11.108,-4.981 -27.179,-8.489 -45.595,-8.489 -43.25,0 -68.102,28.068 -68.102,71.61 0,41.522 23.379,76.3 64.593,76.3 41.214,0 56.412,-34.778 56.412,-68.102 0,-7.017 -0.582,-12.289 -1.164,-15.507 z" /></g><g
       transform="translate(701.7061,1149.5177)"
       id="g94"
       style="fill:#979797;fill-opacity:1"><path
         id="path96"
         style="fill:#979797;fill-opacity:1;fill-rule:nonzero;stroke:none"
         d="m 0,0 c -6.436,-2.926 -19.597,-6.435 -35.377,-6.435 -41.214,0 -68.102,27.487 -68.102,72.5 0,42.668 27.47,75.12 73.938,75.12 11.707,0 23.38,-2.636 30.397,-5.854 L -4.98,109.024 c -4.981,2.636 -12.58,4.964 -23.67,4.964 -25.434,0 -39.759,-20.453 -39.759,-46.759 0,-29.233 16.961,-46.177 39.759,-46.177 10.508,0 18.107,2.328 24.252,4.964 z" /></g><g
       transform="translate(725.668,1351.7863)"
       id="g98"
       style="fill:#979797;fill-opacity:1"><path
         id="path100"
         style="fill:#979797;fill-opacity:1;fill-rule:nonzero;stroke:none"
         d="m 0,0 h 34.47 v -81.845 h 0.582 c 4.107,6.145 9.653,11.399 16.088,15.199 6.71,3.508 14.617,5.853 23.089,5.853 23.67,0 45.304,-16.671 45.304,-59.63 v -85.644 H 85.046 v 82.717 c 0,18.998 -6.145,34.197 -24.253,34.197 -12.289,0 -21.052,-8.181 -24.852,-19.289 -1.163,-3.218 -1.471,-7.308 -1.471,-10.817 v -86.808 H 0 Z" /></g><g
       transform="translate(880.5605,1246.2706)"
       id="g102"
       style="fill:#979797;fill-opacity:1"><path
         id="path104"
         style="fill:#979797;fill-opacity:1;fill-rule:nonzero;stroke:none"
         d="m 0,0 c 0,16.362 -0.582,29.233 -1.163,41.796 h 30.105 l 1.763,-19.871 h 0.582 c 6.436,11.107 21.034,22.798 42.087,22.798 24.252,0 46.177,-16.671 46.177,-58.175 v -87.1 H 85.063 v 83.3 c 0,18.707 -6.127,33.614 -23.961,33.614 -12.58,0 -21.634,-8.762 -24.851,-19.871 -1.164,-3.218 -1.746,-7.598 -1.746,-11.98 v -85.063 H 0 Z" /></g><g
       transform="translate(1093.6465,1168.2247)"
       id="g106"
       style="fill:#979797;fill-opacity:1"><path
         id="path108"
         style="fill:#979797;fill-opacity:1;fill-rule:nonzero;stroke:none"
         d="M 0,0 C 18.998,0 30.122,22.507 30.122,48.813 30.122,70.738 22.215,97.335 0,97.335 -22.49,97.335 -30.688,71.319 -30.688,48.522 -30.688,22.216 -19.871,0 -0.291,0 Z m -0.873,-25.433 c -37.123,0 -65.192,26.888 -65.192,73.373 0,48.231 29.233,74.829 66.955,74.829 38.578,0 64.592,-28.652 64.592,-73.082 0,-53.777 -34.778,-75.12 -66.064,-75.12 z" /></g><path
       id="path110"
       style="fill:#979797;fill-opacity:1;fill-rule:nonzero;stroke:none"
       d="m 1186.89,1351.787 h 34.487 V 1145.72 h -34.487 z" /><g
       transform="translate(1316.0762,1168.2247)"
       id="g112"
       style="fill:#979797;fill-opacity:1"><path
         id="path114"
         style="fill:#979797;fill-opacity:1;fill-rule:nonzero;stroke:none"
         d="M 0,0 C 18.998,0 30.104,22.507 30.104,48.813 30.104,70.738 22.216,97.335 0,97.335 -22.507,97.335 -30.705,71.319 -30.705,48.522 -30.705,22.216 -19.888,0 -0.308,0 Z m -0.89,-25.433 c -37.106,0 -65.174,26.888 -65.174,73.373 0,48.231 29.232,74.829 66.937,74.829 38.595,0 64.609,-28.652 64.609,-73.082 0,-53.777 -34.795,-75.12 -66.064,-75.12 z" /></g><g
       transform="translate(1493.7842,1232.8185)"
       id="g116"
       style="fill:#979797;fill-opacity:1"><path
         id="path118"
         style="fill:#979797;fill-opacity:1;fill-rule:nonzero;stroke:none"
         d="m 0,0 c 0,3.509 -0.291,7.017 -1.181,9.943 -3.217,11.691 -11.981,21.052 -25.433,21.052 -18.401,0 -30.979,-18.125 -30.979,-46.484 0,-26.307 11.399,-44.432 30.705,-44.432 11.399,0 21.326,7.018 25.125,19.597 1.163,3.8 1.763,8.472 1.763,12.562 z m 34.487,-67.521 c 0,-30.978 -5.853,-50.267 -19.58,-63.137 -13.144,-11.981 -31.868,-16.654 -51.157,-16.654 -16.653,0 -33.614,3.509 -44.724,9.945 l 7.31,26.596 c 8.198,-4.98 21.634,-9.653 37.123,-9.653 21.925,0 36.832,12.273 36.832,41.796 v 11.69 h -0.582 c -7.019,-11.69 -20.162,-19.289 -36.832,-19.289 -33.323,0 -55.248,30.106 -55.248,69.574 0,47.648 28.069,74.828 59.048,74.828 18.998,0 30.396,-9.654 36.832,-20.761 H 4.091 L 5.562,55.248 H 35.651 C 35.069,45.013 34.487,32.741 34.487,13.161 Z" /></g><g
       transform="translate(1586.1377,1288.0665)"
       id="g120"
       style="fill:#979797;fill-opacity:1"><path
         id="path122"
         style="fill:#979797;fill-opacity:1;fill-rule:nonzero;stroke:none"
         d="m 0,0 22.814,-76.574 c 2.62,-9.072 5.239,-19.306 7,-27.197 h 0.873 c 2.055,7.891 4.382,18.125 6.727,27.197 L 57.285,0 H 93.244 L 60.229,-98.499 c -15.797,-46.484 -28.069,-72.209 -44.431,-88.28 -13.452,-12.854 -27.487,-18.125 -35.377,-19.289 l -8.78,29.233 c 6.435,1.745 13.759,5.545 20.469,11.107 6.436,4.964 13.452,13.145 17.543,21.925 1.454,2.618 2.036,4.673 2.036,6.418 0,1.472 -0.291,3.509 -1.454,6.436 L -37.704,0 Z" /></g><g
       transform="translate(434.2627,934.1222)"
       id="g124"
       style="fill:#353535;fill-opacity:1"><path
         id="path126"
         style="fill:#353535;fill-opacity:1;fill-rule:nonzero;stroke:none"
         d="m 0,0 -13.452,47.632 c -3.218,12.58 -6.436,27.196 -9.071,39.468 h -0.582 C -25.741,74.828 -28.959,59.63 -31.868,47.632 L -45.321,0 Z m -50.575,-26.306 -14.907,-54.376 h -35.079 l 57.584,197.015 H 0 L 56.994,-80.682 H 20.744 L 5.255,-26.306 Z" /></g><g
       transform="translate(514.6367,951.6486)"
       id="g128"
       style="fill:#353535;fill-opacity:1"><path
         id="path130"
         style="fill:#353535;fill-opacity:1;fill-rule:nonzero;stroke:none"
         d="m 0,0 c 0,17.252 -0.6,31.577 -1.182,44.141 h 29.816 l 1.454,-25.434 h 1.164 c 6.436,18.416 21.634,28.359 35.668,28.359 3.509,0 5.546,-0.29 7.907,-0.581 V 13.161 c -2.636,0.582 -5.271,0.873 -9.361,0.873 C 50.25,14.034 38.852,3.8 35.359,-12.271 34.777,-15.489 34.47,-19.58 34.47,-23.962 V -98.208 H 0 Z" /></g><g
       transform="translate(657.5488,1032.0392)"
       id="g132"
       style="fill:#353535;fill-opacity:1"><path
         id="path134"
         style="fill:#353535;fill-opacity:1;fill-rule:nonzero;stroke:none"
         d="M 0,0 V -36.25 H 32.159 V -61.684 H 0 v -66.338 c 0,-17.252 5.271,-24.852 17.252,-24.852 5.546,0 8.764,0.291 12.562,1.455 l 0.891,-26.598 c -5.271,-1.745 -14.035,-3.217 -24.56,-3.217 -12.272,0 -22.507,3.799 -28.943,10.817 -7.598,7.89 -11.091,20.179 -11.091,39.468 v 69.265 h -19.305 v 25.434 h 19.305 v 26.015 z" /></g><g
       transform="translate(712.5059,885.3097)"
       id="g136"
       style="fill:#353535;fill-opacity:1"><path
         id="path138"
         style="fill:#353535;fill-opacity:1;fill-rule:nonzero;stroke:none"
         d="m 0,0 c 7.309,-4.398 20.761,-9.362 32.741,-9.362 14.309,0 21.326,6.435 21.326,16.071 0,9.362 -5.254,14.616 -21.633,21.343 -25.707,10.526 -35.943,25.142 -35.943,41.505 0,24.851 19.871,43.848 50.867,43.848 14.308,0 26.597,-3.799 34.47,-8.18 l -7,-24.561 c -5.853,3.509 -15.798,7.6 -26.888,7.6 -12.289,0 -18.724,-6.436 -18.724,-14.908 0,-8.763 5.853,-13.144 22.523,-20.162 C 75.701,43.25 87.1,29.798 87.1,9.927 c 0,-26.888 -20.162,-44.432 -54.666,-44.432 -15.199,0 -30.089,3.8 -39.161,9.362 z" /></g><g
       transform="translate(882.9053,890.8546)"
       id="g140"
       style="fill:#636363;fill-opacity:1"><path
         id="path142"
         style="fill:#636363;fill-opacity:1;fill-rule:nonzero;stroke:none"
         d="m 0,0 c 10.218,-6.144 26.307,-11.107 42.378,-11.107 21.925,0 34.196,10.816 34.196,26.887 0,15.199 -9.944,23.979 -32.433,33.616 -29.233,12.271 -48.231,30.396 -48.231,56.702 0,31.578 24.852,56.121 66.065,56.121 18.69,0 33.306,-4.381 41.796,-8.763 l -7.6,-28.651 c -6.743,3.508 -18.724,8.489 -35.086,8.489 -21.326,0 -30.688,-11.998 -30.688,-23.688 0,-15.198 10.526,-22.215 35.07,-33.032 31.286,-14.017 45.902,-31.851 45.902,-57.867 0,-32.741 -24.269,-58.757 -70.754,-58.757 -18.998,0 -38.269,5.563 -47.632,11.109 z" /></g><g
       transform="translate(1119.9521,857.2404)"
       id="g144"
       style="fill:#636363;fill-opacity:1"><path
         id="path146"
         style="fill:#636363;fill-opacity:1;fill-rule:nonzero;stroke:none"
         d="m 0,0 c -6.436,-2.927 -19.597,-6.436 -35.377,-6.436 -41.214,0 -68.102,27.488 -68.102,72.501 0,42.668 27.47,75.12 73.956,75.12 11.689,0 23.378,-2.636 30.396,-5.854 L -4.98,109.024 c -4.964,2.636 -12.563,4.964 -23.67,4.964 -25.417,0 -39.759,-20.453 -39.759,-46.759 0,-29.233 16.961,-46.177 39.759,-46.177 10.525,0 18.125,2.328 24.252,4.964 z" /></g><path
       id="path148"
       style="fill:#636363;fill-opacity:1;fill-rule:nonzero;stroke:none"
       d="m 1143.914,995.79 h 34.487 V 853.441 h -34.487 z m 16.961,20.16 c -11.125,0 -18.725,8.199 -18.725,19.015 0,10.801 7.907,18.999 19.307,18.999 11.398,0 18.998,-7.907 18.998,-18.999 0,-10.816 -7.6,-19.015 -19.307,-19.015 z" /><g
       transform="translate(1295.0244,939.3771)"
       id="g150"
       style="fill:#636363;fill-opacity:1"><path
         id="path152"
         style="fill:#636363;fill-opacity:1;fill-rule:nonzero;stroke:none"
         d="M 0,0 C 0.291,16.071 -6.145,35.069 -26.307,35.069 -45.595,35.069 -54.084,15.198 -55.248,0 Z m -55.248,-24.27 c 0.582,-27.47 18.998,-37.996 40.05,-37.996 14.907,0 25.707,2.636 35.36,6.145 l 4.963,-23.962 c -11.091,-4.98 -27.179,-8.489 -45.595,-8.489 -43.25,0 -68.101,28.069 -68.101,71.61 0,41.523 23.396,76.3 64.61,76.3 41.213,0 56.411,-34.777 56.411,-68.102 0,-7.016 -0.581,-12.288 -1.18,-15.506 z" /></g><g
       transform="translate(1354.3457,953.9933)"
       id="g154"
       style="fill:#636363;fill-opacity:1"><path
         id="path156"
         style="fill:#636363;fill-opacity:1;fill-rule:nonzero;stroke:none"
         d="m 0,0 c 0,16.362 -0.582,29.232 -1.163,41.796 h 30.104 l 1.764,-19.871 h 0.582 c 6.436,11.107 21.033,22.797 42.086,22.797 24.253,0 46.178,-16.67 46.178,-58.175 v -87.1 H 85.063 v 83.301 c 0,18.707 -6.127,33.614 -23.961,33.614 -12.581,0 -21.634,-8.762 -24.852,-19.871 -1.163,-3.218 -1.745,-7.598 -1.745,-11.98 v -85.064 H 0 Z" /></g><g
       transform="translate(1604.8447,857.2404)"
       id="g158"
       style="fill:#636363;fill-opacity:1"><path
         id="path160"
         style="fill:#636363;fill-opacity:1;fill-rule:nonzero;stroke:none"
         d="m 0,0 c -6.436,-2.927 -19.579,-6.436 -35.359,-6.436 -41.214,0 -68.12,27.488 -68.12,72.501 0,42.668 27.488,75.12 73.973,75.12 11.672,0 23.379,-2.636 30.397,-5.854 l -5.854,-26.307 c -4.964,2.636 -12.562,4.964 -23.687,4.964 -25.416,0 -39.744,-20.453 -39.744,-46.759 0,-29.233 16.946,-46.177 39.744,-46.177 10.543,0 18.141,2.328 24.269,4.964 z" /></g><g
       transform="translate(1707.4346,939.3771)"
       id="g162"
       style="fill:#636363;fill-opacity:1"><path
         id="path164"
         style="fill:#636363;fill-opacity:1;fill-rule:nonzero;stroke:none"
         d="M 0,0 C 0.308,16.071 -6.128,35.069 -26.289,35.069 -45.597,35.069 -54.067,15.198 -55.249,0 Z m -55.249,-24.27 c 0.582,-27.47 18.998,-37.996 40.05,-37.996 14.908,0 25.723,2.636 35.36,6.145 l 4.981,-23.962 c -11.108,-4.98 -27.179,-8.489 -45.595,-8.489 -43.25,0 -68.103,28.069 -68.103,71.61 0,41.523 23.38,76.3 64.594,76.3 41.214,0 56.412,-34.777 56.412,-68.102 0,-7.016 -0.582,-12.288 -1.164,-15.506 z" /></g><g
       transform="translate(1765.0098,885.3097)"
       id="g166"
       style="fill:#636363;fill-opacity:1"><path
         id="path168"
         style="fill:#636363;fill-opacity:1;fill-rule:nonzero;stroke:none"
         d="m 0,0 c 7.309,-4.398 20.761,-9.362 32.741,-9.362 14.325,0 21.343,6.435 21.343,16.071 0,9.362 -5.271,14.616 -21.633,21.343 -25.724,10.526 -35.942,25.142 -35.942,41.505 0,24.851 19.852,43.848 50.848,43.848 14.327,0 26.598,-3.799 34.489,-8.18 L 74.828,80.664 c -5.853,3.509 -15.78,7.6 -26.889,7.6 -12.271,0 -18.707,-6.436 -18.707,-14.908 0,-8.763 5.855,-13.144 22.506,-20.162 23.98,-9.944 35.379,-23.396 35.379,-43.267 0,-26.888 -20.179,-44.432 -54.666,-44.432 -15.199,0 -30.106,3.8 -39.16,9.362 z" /></g><g
       transform="translate(379.8877,692.0782)"
       id="g170"
       style="fill:#ffffff;fill-opacity:1"><path
         id="path172"
         style="fill:#ffffff;fill-opacity:1;fill-rule:nonzero;stroke:none"
         d="M 0,0 H -47.648 V 36.832 H 90.899 V 0 H 42.668 V -160.182 H 0 Z" /></g><g
       transform="translate(544.7246,728.9103)"
       id="g174"
       style="fill:#ffffff;fill-opacity:1"><path
         id="path176"
         style="fill:#ffffff;fill-opacity:1;fill-rule:nonzero;stroke:none"
         d="M 0,0 V -76.882 H 63.43 V 0 h 42.685 V -197.014 H 63.43 v 82.427 H 0 v -82.427 H -42.668 V 0 Z" /></g><g
       transform="translate(751.957,728.9103)"
       id="g178"
       style="fill:#ffffff;fill-opacity:1"><path
         id="path180"
         style="fill:#ffffff;fill-opacity:1;fill-rule:nonzero;stroke:none"
         d="m 0,0 h 42.395 v -87.698 h 0.873 c 3.798,7.889 7.889,15.489 12.288,22.797 L 94.407,0 h 51.175 L 86.534,-84.481 148.201,-197.014 H 99.388 l -42.668,83.882 -14.325,-19.289 v -64.593 H 0 Z" /></g><g
       transform="translate(1002.7471,695.005)"
       id="g182"
       style="fill:#ffffff;fill-opacity:1"><path
         id="path184"
         style="fill:#ffffff;fill-opacity:1;fill-rule:nonzero;stroke:none"
         d="m 0,0 c -10.817,0 -19.289,8.763 -19.289,20.162 0,11.399 8.763,19.87 19.871,19.87 10.816,0 19.015,-8.471 19.015,-19.87 C 19.597,8.763 11.398,0 0.582,0 Z m -28.36,-135.057 c 15.78,0 24.56,19.306 24.56,43.559 0,20.761 -6.726,43.267 -24.56,43.267 -19.272,0 -25.707,-22.506 -25.707,-43.267 0,-24.544 8.471,-43.559 25.433,-43.559 z M -58.175,0 c -11.091,0 -19.871,8.763 -19.871,20.162 0,11.399 8.78,19.87 20.179,19.87 10.509,0 18.998,-8.471 18.998,-19.87 C -38.869,8.763 -47.05,0 -57.867,0 Z m 28.651,-166.035 c -39.468,0 -68.102,27.487 -68.102,73.664 0,47.357 29.524,75.119 70.155,75.119 40.325,0 66.921,-29.524 66.921,-73.374 0,-54.357 -35.65,-75.409 -68.666,-75.409 z" /></g><path
       id="path186"
       style="fill:#ffffff;fill-opacity:1;fill-rule:nonzero;stroke:none"
       d="m 1067.922,737.964 h 42.668 V 531.897 h -42.668 z" /><g
       transform="translate(1143.9141,629.8126)"
       id="g188"
       style="fill:#ffffff;fill-opacity:1"><path
         id="path190"
         style="fill:#ffffff;fill-opacity:1;fill-rule:nonzero;stroke:none"
         d="M 0,0 C 0,17.252 -0.6,31.869 -1.182,45.014 H 35.65 l 2.054,-18.707 h 0.873 c 6.145,9.652 20.179,21.633 41.505,21.633 28.651,0 47.357,-20.162 47.357,-59.047 V -97.916 H 84.771 v 82.427 c 0,16.362 -5.562,28.651 -20.178,28.651 -10.527,0 -17.236,-7.308 -20.162,-15.489 -1.181,-2.927 -1.763,-7.309 -1.763,-11.707 V -97.916 H 0 Z" /></g></g></g>





</g></svg>
