<?xml version="1.0" encoding="UTF-8" standalone="no"?>
<svg
   xmlns:dc="http://purl.org/dc/elements/1.1/"
   xmlns:cc="http://creativecommons.org/ns#"
   xmlns:rdf="http://www.w3.org/1999/02/22-rdf-syntax-ns#"
   xmlns:svg="http://www.w3.org/2000/svg"
   xmlns="http://www.w3.org/2000/svg"
   viewBox="0 0 640 213.33333"
   height="213.33333"
   width="640"
   xml:space="preserve"
   id="svg2"
   version="1.1"><metadata
     id="metadata8"><rdf:RDF><cc:Work
         rdf:about=""><dc:format>image/svg+xml</dc:format><dc:type
           rdf:resource="http://purl.org/dc/dcmitype/StillImage" /></cc:Work></rdf:RDF></metadata><defs
     id="defs6" /><g
     transform="matrix(1.3333333,0,0,-1.3333333,0,213.33333)"
     id="g10"><g
       transform="scale(0.1)"
       id="g12"><path
         id="path14"
         style="fill:#ffffff;fill-opacity:1;fill-rule:nonzero;stroke:none"
         d="m 3573.13,1451.82 c 0,27.8 -18.32,46.48 -45.53,46.48 -19.71,0 -35.08,-6.03 -46.9,-18.47 l 18.57,91.53 h -23.95 l -48.1,-239.46 h 23.94 l 19.97,100.59 c 8.56,42.4 41.62,44.55 48.15,44.55 18.3,0 29.24,-10.68 29.24,-28.55 0,-4.06 -0.62,-9.59 -1.68,-15.2 l -20.31,-101.39 h 23.93 l 20.99,103.58 c 1.01,5.51 1.68,10.16 1.68,16.34 m -156.72,23.11 0.25,0.19 -0.18,0.27 c -11.98,16.83 -26.58,24.32 -47.32,24.32 -43.34,0 -73.75,-30.53 -83.47,-83.75 -1.76,-8.92 -2.36,-18.89 -2.36,-25.25 0,-36.37 22.08,-58.97 57.65,-58.97 20.68,0 39.56,7.92 54.58,22.94 l 0.22,0.23 -13.78,16.79 -0.25,0.3 -0.25,-0.28 c -12.68,-13.34 -24.04,-18.78 -39.21,-18.78 -16.95,0 -35.08,10.1 -35.08,38.43 0,8.88 1.05,16.2 2.63,24.46 2.56,13.92 8.32,33.34 21.12,46.86 10.18,10.49 22.24,15.81 35.88,15.81 14.24,0 23.15,-5.07 31.83,-18.08 l 0.22,-0.32 z m -146.74,65.53 6.15,30.9 h -24.68 l -6.24,-30.9 z m -9.94,-46.35 h -23.23 l -32.54,-161.82 -0.08,-0.39 h 23.62 z m -79.04,-30.64 19.19,17.19 -0.19,0.24 c -8.87,10.24 -20.44,15.19 -35.33,15.19 -18.26,0 -34.44,-7.47 -44.62,-20.57 l 3.67,18.21 0.06,0.38 h -23.29 l -32.19,-161.82 -0.08,-0.39 h 23.65 l 19.7,99.24 c 5.04,25.49 24.61,43.96 46.54,43.96 9.41,0 16.84,-3.71 22.67,-11.33 z m -135.54,30.26 0.07,0.38 h -23.96 l -19.71,-99.2 c -8.44,-41.86 -40.78,-43.99 -47.19,-43.99 -18.25,0 -29.14,10.55 -29.14,28.19 0,4.02 0.59,9.5 1.61,14.98 l 20,99.64 0.09,0.38 h -23.63 l -20.37,-102.16 -0.27,-1.47 c -0.88,-4.61 -1.7,-8.98 -1.7,-14.67 0,-27.45 18.03,-45.86 44.9,-45.86 19.66,0 35.44,6.44 46.98,19.18 l -3.07,-16.84 -0.08,-0.39 h 23.29 z m -7.76,46.73 6.13,30.9 h -24.65 l -6.26,-30.9 z m -63.72,0 6.15,30.9 h -24.65 l -6.27,-30.9 z m -94.31,-65.85 3.97,19.5 h -109.34 l -4.42,-22.72 -0.08,-0.45 h 80.21 l -105.66,-119.45 -0.05,-0.06 -3.99,-19.53 h 114 l 4.49,23.17 h -85.17 l 105.99,119.47 z m -203.61,-142.71 48.12,239.46 h -74.68 l -18.9,-92.7 h -53.83 l 18.9,92.7 h -456.8 l -48.1,-239.46 h 182.01 l 12.35,61.8 h -107.57 l 6.14,30.89 h 107.68 l 10.89,54.07 h -107.39 l 6.13,30.9 h 171.1 l -35.69,-177.66 h 74.03 l 35.68,177.66 h 62.15 L 2472.3,1331.9 h 75.06 l 18.45,92.69 h 53.81 l -18.45,-92.69 h 74.58" /><path
         id="path16"
         style="fill:#ffffff;fill-opacity:1;fill-rule:nonzero;stroke:none"
         d="m 783.953,564.281 c -4.832,0.86 -9.773,1.891 -14.844,3.457 -23.023,6.973 -43.734,15.961 -61.511,26.75 -3.707,2.231 -7.2,4.75 -10.696,7.27 l -1.273,0.91 -9.512,-5.199 C 642.742,574 593.59,547.41 581.105,500.621 574.402,475.5 577.09,448.09 579.691,421.559 l 1.293,-12.821 c 2.379,-22.476 5.075,-47.957 -5.382,-69.988 -8.786,-18.48 -25.821,-27.621 -40.856,-35.66 l -5.476,-2.961 c -13.375,-7.367 -25.809,-15.828 -25.973,-27.68 -0.207,-14.129 15.644,-25.301 31.437,-30.09 29.118,-8.82 60.856,-0.57 82.368,7.922 36.527,14.418 69.832,41.059 102.043,66.809 5.765,4.621 11.457,9.129 17.117,13.558 -14.621,75.372 2.664,159.793 47.691,233.633" /><path
         id="path18"
         style="fill:#ffffff;fill-opacity:1;fill-rule:nonzero;stroke:none"
         d="m 793.148,890.012 c -11.707,-4.629 -24.472,-6.977 -37.945,-6.977 -26.801,0 -55.625,9.57 -81.16,26.953 -44.945,30.571 -72.875,79.438 -72.875,127.532 0,75 0,231.09 94.57,231.09 78.571,0 178.145,-61.82 207.95,-176.39 22.714,-87.38 -20.676,-166.74 -110.54,-202.208 z M 561.117,1318.63 c -9.445,-9.91 -17.742,-22.18 -24.715,-36.56 -6.718,-13.85 -11.949,-28.96 -15.547,-44.94 -6.324,-27.29 -8.851,-55.67 -7.339,-82.1 1.07,-19.8 3.164,-39.76 6.226,-59.37 l 3.528,-22.72 c 0.503,-3.21 -1.586,-6.26 -4.77,-6.96 -0.437,-0.1 -0.883,-0.15 -1.32,-0.15 -2.7,0 -5.153,1.78 -5.926,4.47 0,0 -2.328,8.14 -5.766,22.55 l -1.031,4.62 c -3.129,13.98 -7.426,33.13 -9.602,56.16 -3.007,31.64 -1.542,61.37 4.348,88.31 8.11,38.34 23.133,69.6 44.652,92.86 13.141,13.74 29.004,24.12 45.95,30.08 l 3.492,1.05 c 3.234,0.98 6.473,1.96 9.648,2.78 l 12.582,2.01 c 8.328,0.98 16.059,1.23 26.078,0.8 14.442,-0.65 29.309,-3.34 46.813,-8.48 12.187,-3.61 24.602,-8.11 39.07,-14.17 17.817,-7.58 32.7,-15.18 44.66,-21.29 3.77,-1.93 7.243,-3.7 10.395,-5.26 0.023,-0.01 0.051,-0.02 0.07,-0.03 l 20.477,-10.47 c 2.887,-1.48 4.133,-4.93 2.863,-7.91 -1.281,-2.97 -4.621,-4.48 -7.695,-3.4 -0.106,0.04 -0.227,0.08 -0.348,0.13 -0.676,0.25 -8.285,3.07 -21.367,8.46 -13.984,5.86 -32.953,13.69 -55.961,22.4 -20.926,7.66 -48.977,16.65 -79.898,17.89 -5.45,0.18 -13.707,0.13 -21.707,-0.93 l -11.727,-2.04 -10.086,-3.22 c -13.137,-4.89 -25.703,-13.41 -36.047,-24.57 z M 1228.66,238.922 c -10,16.887 -17.23,75.039 -22.45,149.687 -7.06,-1.418 -14.16,-2.808 -21.18,-4.269 -62.12,-13.699 -121.67,-38.801 -175.17,-71.07 l -0.51,-0.301 c -2.81,-1.699 -6.46,-0.789 -8.15,2.019 -1.45,2.391 -1,5.391 0.89,7.282 12.26,12.199 25.86,21.332 40.02,30.062 14.21,8.52 29.09,15.816 44.33,22.109 30.41,12.821 61.93,22.668 93.94,30.079 63.95,13.601 127.07,25.14 190.01,39.64 62.73,14.262 125.2,31.07 186.37,50.192 29.72,9.796 59.17,22.328 82.07,41.57 11.4,9.488 20.88,20.918 25.89,33.469 2.46,6.238 3.94,12.789 3.62,18.949 -0.26,6.281 -1.82,11.711 -4.85,14.441 -2.73,3.188 -9.1,5.598 -16.06,7.356 -7.01,1.789 -14.79,2.968 -22.61,4.035 -15.69,2.105 -31.83,3.766 -47.93,5.633 -16.22,1.965 -32,3.547 -48.66,6.258 -16.47,2.753 -32.87,6.632 -48.81,11.847 -31.88,10.653 -61.18,25.789 -89.97,40.535 -28.78,14.868 -57.38,29.614 -86.37,43.633 -14.37,6.953 -29.26,14.192 -43.46,20.344 -14.04,6.074 -28.84,10.422 -44.03,12.851 -30.36,5.079 -61.9,3.489 -92.53,-2.96 -30.72,-6.329 -60.56,-17.118 -89.65,-29.754 -29.08,-12.657 -57.57,-27.5 -85.047,-43.829 l -0.211,-0.125 c -1.839,-1.093 -4.214,-0.5 -5.304,1.344 -0.973,1.633 -0.602,3.696 0.785,4.895 49.551,43.144 109.837,74.082 175.167,87.949 24.35,5.203 49.6,7.629 74.81,6.238 -0.48,51.985 -0.4,88.012 -0.16,94.153 0.36,9.824 0.92,20.097 1.91,30.515 -2.49,9.281 -5.25,27.461 -9.63,63.086 -0.62,6.164 -3.14,29.953 -6.82,64.665 l -13.16,124.78 c -6.15,-43.13 -24.93,-74.06 -47.73,-89.26 -13.82,-9.23 -27.59,-13.9 -40.93,-13.9 -7.94,0 -15.76,1.66 -23.23,4.94 -35.46,15.51 -63.922,70.56 -76.13,147.26 -2,12.57 -4.386,25.55 -6.785,38.55 -11.59,62.86 -22.465,121.82 3.153,152.57 10.527,12.65 26.122,19.06 46.352,19.06 33.88,0 109.02,-45.68 137.63,-155.72 0.32,-1.22 0.54,-2.39 0.84,-3.62 l -3.21,81.23 c -0.93,22.5 -1.89,45.77 -4.36,68.3 -3.45,31.66 -9.42,55.93 -18.79,76.37 -11.98,26.21 -28.67,44.06 -46.98,50.25 -19,7.06 -41.92,4.65 -63.05,-6.52 -9.4,-4.89 -18,-11.03 -25.592,-18.27 -8.028,-7.7 -14.696,-15.07 -20.379,-22.55 -10.789,-13.44 -20.371,-28.42 -29.395,-45.94 -6.449,-12.57 -12.375,-25.35 -18.101,-39.04 l -14.59,-35.23 c -1.25,-3.01 -4.59,-4.51 -7.657,-3.5 -3.07,1.02 -4.82,4.26 -4.007,7.4 0.035,0.13 3.593,13.83 10.699,36.99 3.84,11.94 8.441,26.25 15.191,42.07 4.707,10.73 10.324,21.69 16.418,32.1 -64.492,28.51 -126.078,55.12 -202.043,68.68 -83.363,14.86 -171.875,9.45 -255.941,-15.68 -189.711,-56.68 -349.789,-198.69 -417.7736,-370.59 -31.211,-78.9 -40.4727,-161.71 -26.7852,-239.485 12.043,-68.437 41.961,-134.257 86.5118,-190.34 75.363,-94.867 175.988,-149.566 269.168,-146.714 84.379,2.738 148.539,59.054 205.297,119.504 3.738,3.988 6.246,7.05 7.758,9.003 -0.188,1.29 -0.352,2.582 -0.469,3.872 l -0.164,8.484 c -0.196,9.891 0.304,15.742 0.332,15.984 0.242,2.805 2.355,5.09 5.137,5.547 2.761,0.422 5.511,-1.023 6.644,-3.601 0.098,-0.223 2.43,-5.555 5.399,-14.969 l 0.73,-2.317 c 1.262,-4.003 2.645,-8.41 4.629,-13.3 1.633,-4.375 3.543,-8.86 5.562,-13.614 l 2.653,-6.257 c 3.418,-8.207 7.164,-15.032 11.441,-20.903 4.418,-6.289 10.176,-12.808 18.18,-20.625 14.769,-14.453 31.515,-27.476 48.441,-37.683 17.321,-10.442 36.68,-18.676 55.981,-23.825 22.531,-6.589 39.355,-10.691 53.117,-12.902 13.887,-2.617 26.058,-4.078 34.941,-5.148 l 18.805,-2 c 3.211,-0.34 5.617,-3.09 5.531,-6.321 -0.094,-3.218 -2.664,-5.84 -5.89,-5.98 l -15.067,-0.668 c -11.597,-0.512 -26.012,-0.231 -40.582,0.66 -5.488,0.379 -11.441,1.059 -17.496,1.797 -48.937,-75.848 -83.156,-198.707 -21.062,-300.578 26.918,-44.16 66.625,-82.27 108.949,-104.571 38.301,-20.199 84.605,-24.46 145.679,-13.39 15.02,2.719 31.43,6.539 48.79,10.582 25.18,5.859 47.12,10.769 67.33,13.816 -2.44,3.422 -5.18,6.582 -8.31,9.25 l -0.98,0.84 c -1.7,1.442 -1.9,4.004 -0.45,5.703 0.92,1.09 2.32,1.551 3.63,1.391 13.89,-1.934 23.78,-12 29.79,-22.953 6.13,-11 8.32,-23.61 9.71,-34.77 1.09,-8.738 5.41,-16.629 11.81,-22.051 4.17,-3.488 9.2,-5.6285 14.36,-6.5582 1.44,-0.1992 2.88,-0.3515 4.34,-0.4492 1.37,-0.039 2.74,-0.1093 4.1,0.0586 7.96,0.7813 15.37,5.1718 21.25,11.8208 5.81,6.761 10.04,15.601 12.87,25.101 5.38,17.801 6.32,37.551 5.77,57.289 -15.28,12.039 -28.28,27.488 -38.08,48.012" /><path
         id="path20"
         style="fill:#ffffff;fill-opacity:1;fill-rule:nonzero;stroke:none"
         d="m 1020.45,1391.77 c -13.06,0 -22.262,-3.45 -28.149,-10.53 -18.508,-22.21 -7.688,-80.9 1.859,-132.67 2.438,-13.23 4.863,-26.41 6.91,-39.21 5.59,1.66 10.47,0.53 14.01,-1.04 28.36,-12.63 58.23,-81.52 47.7,-110.03 -0.82,-2.2 -3.43,-7.9 -9.7,-11.74 3.61,-3.16 7.01,-5.42 10.28,-6.85 12.44,-5.43 26.41,-3.12 41.52,6.98 30.27,20.18 52.65,81.06 30.27,167.1 -25.36,97.51 -87.21,137.99 -114.7,137.99" /><path
         id="path22"
         style="fill:#ffffff;fill-opacity:1;fill-rule:nonzero;stroke:none"
         d="m 867.402,1125.79 c -2.855,0 -11.109,-14.7 -11.109,-42.76 0,-28.07 8.254,-42.78 11.109,-42.78 2.856,0 11.106,14.71 11.106,42.78 0,28.06 -8.25,42.76 -11.106,42.76" /><path
         id="path24"
         style="fill:#ffffff;fill-opacity:1;fill-rule:nonzero;stroke:none"
         d="m 824.039,1151.86 c 6.867,5.09 14.031,7.94 21.219,8.48 -37.426,51.05 -96.004,84.57 -149.52,84.57 -62.461,0 -70.883,-104.83 -70.883,-207.39 0,-40.364 23.954,-81.727 62.516,-107.969 32.508,-22.129 68.817,-28.66 97.086,-17.52 21.887,8.645 41.008,20.657 56.984,35.801 -1.211,0.535 -2.418,1.152 -3.628,1.856 -14.184,8.171 -22.973,23.164 -29.043,35.292 -9.008,18 -14.899,38.13 -17.516,59.82 -2.152,17.86 -6.149,78.34 32.785,107.06" /><path
         id="path26"
         style="fill:#ffffff;fill-opacity:1;fill-rule:nonzero;stroke:none"
         d="m 1024.44,1178.3 c -2.98,2.81 -5.48,3.97 -6.96,3.97 -0.27,0 -0.52,-0.04 -0.72,-0.12 -1.28,-0.5 -2.75,-3.17 -3.11,-8.01 -0.47,-6.05 0.92,-13.79 3.79,-21.24 2.87,-7.45 7.04,-14.12 11.44,-18.29 3.54,-3.36 6.42,-4.34 7.68,-3.86 1.28,0.49 2.75,3.17 3.11,8.01 0.47,6.04 -0.92,13.79 -3.79,21.24 -2.87,7.46 -7.04,14.13 -11.44,18.3" /><path
         id="path28"
         style="fill:#ffffff;fill-opacity:1;fill-rule:nonzero;stroke:none"
         d="m 1518.31,866.262 c 0,-22.246 -18.13,-40.344 -40.41,-40.344 -22.28,0 -40.41,18.098 -40.41,40.344 0,22.234 18.13,40.332 40.41,40.332 22.28,0 40.41,-18.098 40.41,-40.332 z m -120.8,-118.594 c -22.29,0 -40.42,18.094 -40.42,40.34 0,22.234 18.13,40.332 40.42,40.332 22.28,0 40.41,-18.098 40.41,-40.332 0,-22.246 -18.13,-40.34 -40.41,-40.34 z m -78.52,78.25 c -22.28,0 -40.41,18.098 -40.41,40.344 0,22.234 18.13,40.332 40.41,40.332 22.29,0 40.42,-18.098 40.42,-40.332 0,-22.246 -18.13,-40.344 -40.42,-40.344 z m 78.52,156.516 c 22.28,0 40.41,-18.098 40.41,-40.344 0,-22.235 -18.13,-40.332 -40.41,-40.332 -22.29,0 -40.42,18.097 -40.42,40.332 0,22.246 18.13,40.344 40.42,40.344 z m -98.21,49.006 c -20.12,-12.58 -48.75,-32.6 -64.93,-61.01 -17,-29.844 -19.67,-66.231 -20.83,-97.996 -0.49,-12.825 -0.56,-47.961 -0.07,-95.391 1.87,-0.266 3.75,-0.461 5.61,-0.766 16.76,-2.617 33.26,-7.371 48.92,-14.058 15.49,-6.66 29.73,-13.535 44.51,-20.61 29.3,-14.019 58.26,-28.816 87.01,-43.511 28.78,-14.614 57.29,-29.082 86.9,-38.828 14.83,-4.79 30,-8.301 45.44,-10.832 15.27,-2.43 31.7,-4.063 47.59,-5.911 14.37,-1.609 28.79,-3.093 43.41,-4.898 -0.67,42.652 -0.49,83.875 0.47,117.43 -74.95,47.675 -93.76,105.976 -111.18,171.906 -23.72,89.825 150.12,167.445 150.12,167.445 l 18.58,38.5 c -28.16,-2.7 -56.18,-5.93 -83.9,-9.68 -94.95,-12.85 -204.57,-33.8 -297.65,-91.79" /><path
         id="path30"
         style="fill:#ffffff;fill-opacity:1;fill-rule:nonzero;stroke:none"
         d="m 1246.38,248.359 c 5.87,-12.277 13.13,-22.39 21.44,-31.019 -9.14,51 -26.9,106.609 -39.03,141.332 4.6,-56.434 10.38,-98.121 17.59,-110.313" /><path
         id="path32"
         style="fill:#ffffff;fill-opacity:1;fill-rule:nonzero;stroke:none"
         d="m 1201.08,1047.53 c 3.32,-30.65 5.95,-54.862 6.19,-59.456 0.66,-9.07 1.21,-17.019 1.68,-24.402 2.31,5.664 4.85,11.277 7.94,16.711 18.44,32.357 49.79,54.367 71.77,68.097 96.31,60.02 208.53,81.54 305.6,94.67 26.77,3.63 53.82,6.73 80.95,9.38 4.97,17.35 5.32,31.96 0.77,39.86 -2.54,4.43 -6.71,6.93 -13.1,7.84 -12.99,1.94 -27.56,-5.98 -39.33,-12.29 l -3.69,-2.03 c -10.19,-5.7 -24.11,-13.49 -39.08,-6.16 -7.55,3.67 -13.64,9.77 -18.53,14.65 l -10.38,10.35 c -5.57,5.55 -10.43,10.42 -15.4,15.18 -19.82,19.03 -42.42,38.86 -69.06,60.63 l -6.13,5.07 c -16.52,13.69 -35.19,29.17 -54.95,32.55 -23.73,3.98 -47.65,-12.79 -68.2,-28.84 -58.2,-45.4 -101.55,-96.45 -144.68,-170.4 l 1.59,-15.17 c 2,-18.89 4.13,-38.56 6.04,-56.24" /><path
         id="path34"
         style="fill:#ffffff;fill-opacity:1;fill-rule:nonzero;stroke:none"
         d="m 1760.74,544.551 c -6.17,-7.949 -10.63,-16.84 -14.24,-26.281 4.91,1.261 9.7,1.281 14.22,0.89 5.18,-0.34 10.23,-1.301 14.95,-2.211 3.4,-0.719 6.85,-0.719 10.3,-0.148 14,2.371 26.98,14.73 35.77,28.82 8.87,14.188 14.73,31 15.34,47.07 0.19,7.504 -1,17.055 -2.67,24.914 -1.75,8.149 -4.56,15.625 -8.58,22.446 -8.12,13.582 -21.72,24.179 -36.92,32.832 -15.28,8.64 -32.01,15.594 -49.02,21.902 -31.54,11.778 -64.33,21.113 -97.18,30.305 -0.37,-27.602 -0.32,-58.637 0.18,-90.41 3.35,-0.598 6.7,-1.211 10.16,-2.075 8.46,-2.324 18.37,-4.851 27.01,-13.503 4.32,-4.102 7.14,-9.551 8.96,-14.7 1.66,-5.121 2.47,-10.222 2.66,-15.222 0.5,-10.059 -1.86,-19.621 -5.3,-28.352 -6.52,-15.996 -17.31,-28.859 -29.28,-39.418 -4.17,-17.84 -6.02,-36.949 -2.53,-53.25 2.17,-9.621 6.68,-17.582 13.67,-22.469 6.56,-4.679 18.12,-8.211 24.28,-6.812 6,0.672 11.18,8.051 15.04,18.031 3.85,9.82 6.63,21.059 9.82,32.309 3.31,11.269 7.02,22.832 12.65,33.859 2.89,5.473 6.12,10.844 9.85,15.902 4.01,4.891 8.33,9.559 13.39,13.352 2.4,1.797 5.81,1.316 7.61,-1.094 1.5,-2 1.41,-4.699 -0.05,-6.578 l -0.09,-0.109" /><path
         id="path36"
         style="fill:#ffffff;fill-opacity:1;fill-rule:nonzero;stroke:none"
         d="m 1945.49,231.031 c -8.21,31.66 -40.95,51.668 -73.78,69.449 -31.64,17 -87.79,38.008 -142.1,58.34 -30.13,11.282 -58.59,21.93 -81.75,31.481 l -4.01,1.66 -1.55,4.051 c -6.22,16.277 -10.9,55.578 -14.17,104.218 -5.63,-3.281 -11.34,-6.359 -17.18,-9.082 -7.53,-3.859 -15.29,-6.968 -23.08,-9.976 -7.71,-3.313 -15.66,-5.641 -23.54,-8.281 -62.4,-19.161 -125.05,-35.68 -188.54,-49.801 -49.64,-11.192 -99.89,-20.668 -149.52,-30.508 4.95,-73.371 11.53,-129.703 20.11,-144.223 27.3,-57.07 83.1,-69.668 147.72,-84.25 7.17,-1.621 14.39,-3.25 21.64,-4.961 84.2,-19.867 169.99,-35.289 254.97,-45.839 74.85,-9.25 152.82,-13.219 216.11,20.16 36.65,19.371 68.57,59.109 58.67,97.562" /><path
         id="path38"
         style="fill:#ffffff;fill-opacity:1;fill-rule:nonzero;stroke:none"
         d="m 1318.99,906.594 c 22.29,0 40.42,-18.098 40.42,-40.332 0,-22.246 -18.13,-40.344 -40.42,-40.344 -22.28,0 -40.41,18.098 -40.41,40.344 0,22.234 18.13,40.332 40.41,40.332 z m 78.52,75.84 c 22.28,0 40.41,-18.098 40.41,-40.344 0,-22.235 -18.13,-40.332 -40.41,-40.332 -22.29,0 -40.42,18.097 -40.42,40.332 0,22.246 18.13,40.344 40.42,40.344 z m 80.39,-75.84 c 22.28,0 40.41,-18.098 40.41,-40.332 0,-22.246 -18.13,-40.344 -40.41,-40.344 -22.28,0 -40.41,18.098 -40.41,40.344 0,22.234 18.13,40.332 40.41,40.332 z m -80.39,-158.926 c -22.29,0 -40.42,18.094 -40.42,40.328 0,22.246 18.13,40.344 40.42,40.344 22.28,0 40.41,-18.098 40.41,-40.344 0,-22.234 -18.13,-40.328 -40.41,-40.328 z m -128.86,14.598 c 15.49,-6.661 29.72,-13.536 44.5,-20.606 29.31,-14.023 58.26,-28.816 87.01,-43.515 28.78,-14.622 57.3,-29.082 86.91,-38.836 14.83,-4.778 30,-8.301 45.43,-10.813 15.28,-2.441 31.7,-4.07 47.59,-5.918 14.17,-1.594 28.37,-3.058 42.77,-4.836 -1.38,88.574 0.83,171.289 6.29,190.879 l 1.33,4.777 4.6,1.844 c 68.49,27.563 194.66,84.571 241.59,120.246 21.56,16.399 70.75,59.912 61.85,109.652 -5.16,28.61 -30.52,54.63 -64.63,66.31 -21.39,7.39 -44.04,9.48 -67.41,9.48 -11.7,0 -23.59,-0.52 -35.6,-1.17 -2.03,-0.11 -3.93,-0.21 -5.91,-0.4 -56.43,-3.25 -112.8,-8.66 -168.02,-16.13 -94.95,-12.85 -204.57,-33.8 -297.65,-91.79 -20.12,-12.58 -48.75,-32.6 -64.93,-61.018 -17,-29.836 -19.67,-66.223 -20.83,-98 -0.49,-12.793 -0.56,-47.891 -0.07,-95.242 2.08,-0.293 4.18,-0.52 6.26,-0.852 16.75,-2.617 33.26,-7.383 48.92,-14.062" /><path
         id="path40"
         style="fill:#ffffff;fill-opacity:1;fill-rule:nonzero;stroke:none"
         d="m 2291.93,1028.64 h 86.3 V 904.035 c -35.78,-24.414 -85.04,-37.469 -128.4,-37.469 -95.14,0 -164.61,63.575 -164.61,154.084 0,90.51 69.47,154.08 166.71,154.08 58.11,0 104.84,-20.21 134.72,-56.83 l -63.57,-55.99 c -18.52,21.46 -39.99,32.42 -66.09,32.42 -43.79,0 -71.57,-28.21 -71.57,-73.68 0,-44.201 27.78,-73.673 70.3,-73.673 12.22,0 24.01,2.109 36.21,7.156 v 74.507" /><path
         id="path42"
         style="fill:#ffffff;fill-opacity:1;fill-rule:nonzero;stroke:none"
         d="m 2552.06,939.23 v 24.473 h -50.92 c -33.55,0 -42.64,-12.637 -42.64,-28.027 0,-17.762 15,-29.219 40.27,-29.219 24.08,0 45.01,11.055 53.29,32.773 z m 49.34,57.629 V 873.305 h -46.58 v 25.652 c -11.83,-18.152 -34.73,-28.418 -66.31,-28.418 -48.16,0 -78.55,26.445 -78.55,63.164 0,35.129 23.68,62.754 87.63,62.754 h 54.47 v 3.164 c 0,28.819 -17.36,45.789 -52.5,45.789 -23.68,0 -48.16,-7.9 -63.95,-20.93 l -19.34,35.93 c 22.5,17.38 55.26,26.06 89.22,26.06 60.79,0 95.91,-28.82 95.91,-89.611" /><path
         id="path44"
         style="fill:#ffffff;fill-opacity:1;fill-rule:nonzero;stroke:none"
         d="M 3013.11,994.094 V 873.305 h -49.33 v 114.472 c 0,37.513 -17.38,55.663 -47.38,55.663 -32.37,0 -54.87,-21.32 -54.87,-63.163 V 873.305 h -49.33 v 114.472 c 0,37.513 -17.38,55.663 -47.38,55.663 -32.76,0 -54.87,-21.32 -54.87,-63.163 V 873.305 h -49.34 v 210.785 h 46.98 v -26.83 c 15.79,18.94 40.26,29.21 69.08,29.21 30.79,0 56.44,-11.46 71.05,-35.14 16.98,21.71 45.39,35.14 78.95,35.14 50.92,0 86.44,-28.82 86.44,-92.376" /><path
         id="path46"
         style="fill:#ffffff;fill-opacity:1;fill-rule:nonzero;stroke:none"
         d="m 3105.86,995.676 h 119.61 c -3.95,30.394 -27.24,51.304 -59.61,51.304 -31.98,0 -55.27,-20.51 -60,-51.304 z m 165.8,-32.762 h -165.4 c 5.92,-30.793 31.58,-50.527 68.29,-50.527 23.68,0 42.24,7.5 57.24,22.89 l 26.44,-30.39 c -18.94,-22.5 -48.55,-34.348 -84.87,-34.348 -70.66,0 -116.45,45.391 -116.45,108.164 0,62.767 46.18,107.767 108.95,107.767 61.58,0 106.58,-43.03 106.58,-108.958 0,-3.946 -0.39,-9.864 -0.78,-14.598" /><path
         id="path48"
         style="fill:#ffffff;fill-opacity:1;fill-rule:nonzero;stroke:none"
         d="m 2192.14,704.992 h -86.31 v 77.051 h 271.96 v -77.051 h -86.3 v -217.64 h -99.35 v 217.64" /><path
         id="path50"
         style="fill:#ffffff;fill-opacity:1;fill-rule:nonzero;stroke:none"
         d="m 2439.25,609.719 h 119.61 c -3.95,30.39 -27.24,51.308 -59.61,51.308 -31.98,0 -55.27,-20.515 -60,-51.308 z m 165.8,-32.758 h -165.4 c 5.91,-30.789 31.58,-50.531 68.29,-50.531 23.68,0 42.23,7.5 57.23,22.89 l 26.45,-30.39 c -18.95,-22.5 -48.56,-34.352 -84.87,-34.352 -70.66,0 -116.45,45.391 -116.45,108.172 0,62.762 46.18,107.762 108.95,107.762 61.58,0 106.58,-43.028 106.58,-108.953 0,-3.95 -0.39,-9.868 -0.78,-14.598" /><path
         id="path52"
         style="fill:#ffffff;fill-opacity:1;fill-rule:nonzero;stroke:none"
         d="m 2631.87,592.75 c 0,63.152 47.38,107.762 114.09,107.762 41.05,0 73.81,-16.973 90,-48.957 l -37.9,-22.098 c -12.63,20.125 -31.58,29.207 -52.5,29.207 -36.31,0 -63.95,-25.262 -63.95,-65.914 0,-41.059 27.64,-65.93 63.95,-65.93 20.92,0 39.87,9.078 52.5,29.211 l 37.9,-22.101 c -16.19,-31.578 -48.95,-49.352 -90,-49.352 -66.71,0 -114.09,45 -114.09,108.172" /><path
         id="path54"
         style="fill:#ffffff;fill-opacity:1;fill-rule:nonzero;stroke:none"
         d="M 3080.69,608.137 V 487.352 h -49.34 V 601.82 c 0,37.508 -18.56,55.664 -50.14,55.664 -35.13,0 -58.82,-21.32 -58.82,-63.554 V 487.352 h -49.34 v 292.894 h 49.34 V 673.664 c 16.19,17.375 41.06,26.848 70.26,26.848 50.53,0 88.04,-28.821 88.04,-92.375" /><path
         id="path56"
         style="fill:#ffffff;fill-opacity:1;fill-rule:nonzero;stroke:none"
         d="M 3347.12,608.137 V 487.352 h -49.34 V 601.82 c 0,37.508 -18.55,55.664 -50.14,55.664 -35.12,0 -58.81,-21.32 -58.81,-63.554 V 487.352 h -49.34 v 210.785 h 46.97 v -27.235 c 16.18,19.344 41.85,29.61 72.63,29.61 50.53,0 88.03,-28.821 88.03,-92.375" /><path
         id="path58"
         style="fill:#ffffff;fill-opacity:1;fill-rule:nonzero;stroke:none"
         d="m 3565.41,592.75 c 0,40.262 -26.85,65.914 -62.77,65.914 -35.52,0 -62.37,-25.652 -62.37,-65.914 0,-40.281 26.85,-65.93 62.37,-65.93 35.92,0 62.77,25.649 62.77,65.93 z m -174.87,0 c 0,63.152 47.37,107.762 112.1,107.762 65.53,0 112.5,-44.61 112.5,-107.762 0,-63.172 -46.97,-108.172 -112.5,-108.172 -64.73,0 -112.1,45 -112.1,108.172" /><path
         id="path60"
         style="fill:#ffffff;fill-opacity:1;fill-rule:nonzero;stroke:none"
         d="m 3658.55,780.246 h 49.34 V 487.352 h -49.34 v 292.894" /><path
         id="path62"
         style="fill:#ffffff;fill-opacity:1;fill-rule:nonzero;stroke:none"
         d="m 3926.57,592.75 c 0,40.262 -26.84,65.914 -62.76,65.914 -35.53,0 -62.38,-25.652 -62.38,-65.914 0,-40.281 26.85,-65.93 62.38,-65.93 35.92,0 62.76,25.649 62.76,65.93 z m -174.87,0 c 0,63.152 47.37,107.762 112.11,107.762 65.53,0 112.5,-44.61 112.5,-107.762 0,-63.172 -46.97,-108.172 -112.5,-108.172 -64.74,0 -112.11,45 -112.11,108.172" /><path
         id="path64"
         style="fill:#ffffff;fill-opacity:1;fill-rule:nonzero;stroke:none"
         d="m 4180.37,599.059 c 0,35.523 -26.83,59.605 -63.94,59.605 -37.5,0 -64.34,-24.082 -64.34,-59.605 0,-35.918 26.84,-60.387 64.34,-60.387 37.11,0 63.94,24.469 63.94,60.387 z m 48.56,99.078 V 519.32 c 0,-76.582 -39.86,-111.32 -113.67,-111.32 -39.5,0 -78.56,10.262 -102.64,30 l 22.11,37.109 c 18.53,-15.39 48.55,-25.257 77.75,-25.257 46.59,0 67.11,21.32 67.11,63.937 v 11.063 c -17.36,-18.954 -42.24,-28.032 -70.66,-28.032 -60.39,0 -106.58,41.051 -106.58,102.239 0,61.187 46.19,101.453 106.58,101.453 29.61,0 55.66,-9.473 73.03,-30.403 v 28.028 h 46.97" /><path
         id="path66"
         style="fill:#ffffff;fill-opacity:1;fill-rule:nonzero;stroke:none"
         d="M 4487.48,698.137 4388.79,470.371 C 4369.44,422.609 4342.6,408 4307.46,408 c -20.91,0 -43.02,7.109 -56.44,19.352 l 19.74,36.32 c 9.48,-9.094 22.9,-14.613 36.31,-14.613 17.37,0 27.64,8.293 37.11,29.203 l 3.56,8.297 -91.98,211.578 h 51.31 l 66.33,-155.918 66.7,155.918 h 47.38" /><path
         id="path68"
         style="fill:#ffffff;fill-opacity:1;fill-rule:nonzero;stroke:none"
         d="m 2085.22,248.73 c 0,90.52 69.47,154.09 164.19,154.09 57.68,0 103.15,-21.05 132.19,-58.941 l -62.72,-56 c -17.27,21.902 -37.9,34.543 -64.42,34.543 -41.26,0 -69.04,-28.641 -69.04,-73.692 0,-45.05 27.78,-73.671 69.04,-73.671 26.52,0 47.15,12.632 64.42,34.519 l 62.72,-55.988 c -29.04,-37.879 -74.51,-58.9416 -132.19,-58.9416 -94.72,0 -164.19,63.5816 -164.19,154.0816" /><path
         id="path70"
         style="fill:#ffffff;fill-opacity:1;fill-rule:nonzero;stroke:none"
         d="m 2446,223.762 h 119.61 c -3.94,30.386 -27.23,51.308 -59.61,51.308 -31.97,0 -55.26,-20.519 -60,-51.308 z M 2611.8,191 h -165.4 c 5.92,-30.789 31.59,-50.531 68.3,-50.531 23.68,0 42.23,7.5 57.23,22.89 l 26.45,-30.39 c -18.95,-22.5 -48.56,-34.3401 -84.88,-34.3401 -70.65,0 -116.44,45.3911 -116.44,108.1601 0,62.762 46.18,107.762 108.94,107.762 61.59,0 106.59,-43.02 106.59,-108.949 0,-3.954 -0.39,-9.864 -0.79,-14.602" /><path
         id="path72"
         style="fill:#ffffff;fill-opacity:1;fill-rule:nonzero;stroke:none"
         d="M 2863.64,222.18 V 101.391 h -49.34 v 114.468 c 0,37.512 -18.56,55.672 -50.14,55.672 -35.13,0 -58.82,-21.32 -58.82,-63.562 V 101.391 H 2656 V 312.18 h 46.98 v -27.239 c 16.18,19.348 41.84,29.61 72.62,29.61 50.53,0 88.04,-28.813 88.04,-92.371" /><path
         id="path74"
         style="fill:#ffffff;fill-opacity:1;fill-rule:nonzero;stroke:none"
         d="m 3049.15,112.832 c -11.85,-9.473 -29.61,-14.2031 -47.37,-14.2031 -46.19,0 -72.63,24.4731 -72.63,71.0511 v 101.449 h -34.74 v 39.473 h 34.74 v 48.16 h 49.33 v -48.16 h 56.46 v -39.473 h -56.46 v -100.27 c 0,-20.527 10.27,-31.57 29.22,-31.57 10.27,0 20.13,2.75 27.63,8.68 l 13.82,-35.137" /><path
         id="path76"
         style="fill:#ffffff;fill-opacity:1;fill-rule:nonzero;stroke:none"
         d="m 3110.72,223.762 h 119.61 c -3.95,30.386 -27.24,51.308 -59.61,51.308 -31.97,0 -55.26,-20.519 -60,-51.308 z M 3276.52,191 h -165.4 c 5.92,-30.789 31.58,-50.531 68.29,-50.531 23.68,0 42.24,7.5 57.24,22.89 l 26.44,-30.39 c -18.94,-22.5 -48.55,-34.3401 -84.87,-34.3401 -70.65,0 -116.44,45.3911 -116.44,108.1601 0,62.762 46.18,107.762 108.94,107.762 61.58,0 106.58,-43.02 106.58,-108.949 0,-3.954 -0.39,-9.864 -0.78,-14.602" /><path
         id="path78"
         style="fill:#ffffff;fill-opacity:1;fill-rule:nonzero;stroke:none"
         d="M 3442.69,314.551 V 267.57 c -4.34,0.801 -7.89,1.192 -11.44,1.192 -37.5,0 -61.19,-22.114 -61.19,-65.133 V 101.391 h -49.34 V 312.18 h 46.97 v -30.782 c 14.21,22.102 39.87,33.153 75,33.153" /></g></g></svg>