<?xml version="1.0" encoding="UTF-8"?>
<svg id="Layer_2" data-name="Layer 2" xmlns="http://www.w3.org/2000/svg" viewBox="0 0 323.73 85.11">
  <defs>
    <style>
      .cls-1 {
        fill: #fff;
      }
    </style>
  </defs>
  <g id="negativ">
    <g>
      <g>
        <path class="cls-1" d="M18.4,0C8.8,0,.99,7.81.99,17.41s7.81,17.41,17.41,17.41,17.41-7.81,17.41-17.41S27.99,0,18.4,0ZM18.83,18.66c-.88,0-1.6-.71-1.6-1.6s.71-1.6,1.6-1.6,1.6.71,1.6,1.6-.71,1.6-1.6,1.6ZM25.14,32.41v-12.09h2.4v-2.83h-2.4c0-8.52-6.45-10.87-11.01-7.75V1.53c1.36-.37,2.79-.58,4.27-.58,9.09,0,16.46,7.37,16.46,16.46,0,6.68-3.99,12.42-9.71,15Z"/>
        <path class="cls-1" d="M69.12,25.58v-10.69c1.88-.94,3.82-1.41,5.82-1.41,1.66,0,2.97.44,3.94,1.32.97.88,1.45,2.1,1.45,3.65v7.13h-4.03v-7.76c0-.24-.03-.43-.1-.59-.06-.16-.25-.31-.55-.47-.3-.16-.74-.23-1.32-.23-.42,0-.81.05-1.18.14v8.91h-4.03Z"/>
        <path class="cls-1" d="M99.45,25.58v-10.88l.16-.07.48-.18c.2-.08.43-.16.69-.23.26-.08.56-.16.9-.25.34-.09.69-.17,1.06-.23.37-.07.77-.13,1.21-.17.44-.05.87-.07,1.29-.07,1.12,0,2.07.23,2.85.68,1.34-.45,2.69-.68,4.07-.68,1.64,0,2.93.42,3.86,1.27.93.84,1.4,2.08,1.4,3.71v7.13h-4.04v-7.29c0-1.21-.54-1.81-1.61-1.81-.61,0-1.15.08-1.61.23.2.59.3,1.15.3,1.68v7.18h-4.03v-7.34c0-1.14-.5-1.71-1.5-1.71h-.02c-.42,0-.89.07-1.41.21v8.84h-4.03Z"/>
        <path class="cls-1" d="M140.92,16.34v-2.83h1.59v-3.34h4.04v3.34h2.44v2.83h-2.44v4.38c0,.18.07.32.21.45.14.12.31.18.51.18.48,0,1.05-.07,1.72-.46v4.05c-.67.37-1.5.64-2.4.64-1.36,0-2.34-.44-3.04-1.16-.7-.72-1.05-1.73-1.05-3.02v-5.06h-1.59Z"/>
        <path class="cls-1" d="M157.16,13.51h4.03v12.07h-4.03v-12.07h0ZM157.15,9.23h4.05v3.07h-4.05v-3.07h0Z"/>
        <path class="cls-1" d="M87.87,13.51h4.03v12.07h-4.03v-12.07h0ZM87.86,9.23h4.05v3.07h-4.05v-3.07h0Z"/>
        <path class="cls-1" d="M173.99,16.41c-1.07,0-1.6,1.03-1.6,3.09s.53,3.09,1.6,3.09,1.6-1.03,1.6-3.09-.53-3.09-1.6-3.09M169.83,23.96c-.98-1.03-1.47-2.52-1.47-4.46s.49-3.42,1.47-4.46c.98-1.03,2.37-1.55,4.16-1.55s3.19.52,4.16,1.55c.98,1.03,1.47,2.52,1.47,4.46s-.49,3.42-1.47,4.46c-.98,1.03-2.37,1.62-4.16,1.62s-3.19-.59-4.16-1.62"/>
        <path class="cls-1" d="M186.65,25.58v-10.69c1.88-.94,3.82-1.41,5.82-1.41,1.66,0,2.97.44,3.94,1.32.97.88,1.45,2.1,1.45,3.65v7.13h-4.03v-7.76c0-.24-.03-.43-.1-.59-.06-.16-.25-.31-.55-.47-.3-.16-.74-.23-1.32-.23-.42,0-.81.05-1.18.14v8.91h-4.03Z"/>
        <path class="cls-1" d="M204.85,17.4c0-1.27.44-2.24,1.32-2.91.88-.67,2-1.01,3.36-1.01,1.19,0,2.31.32,3.36.96v2.67c-1.02-.57-1.92-.85-2.7-.85-.85,0-1.27.27-1.27.8,0,.15.17.31.52.46.35.16.77.33,1.26.53.49.2.98.43,1.47.7.48.27.9.67,1.24,1.21.34.53.51,1.16.51,1.88,0,1.08-.43,1.95-1.29,2.63-.86.68-1.98,1.09-3.36,1.09-1.45,0-2.77-.45-3.96-1.22v-3.12c1.22.95,2.4,1.43,3.54,1.43.7,0,1.05-.21,1.05-.64,0-.21-.17-.39-.52-.55-.34-.16-.76-.33-1.25-.52-.49-.18-.99-.4-1.49-.66-.5-.26-.92-.63-1.27-1.13-.34-.5-.52-1.09-.52-1.78"/>
        <path class="cls-1" d="M221.87,13.51h2.15v12.07h-2.15v-12.07h0ZM221.86,9.56h2.18v2.27h-2.18v-2.27h0Z"/>
        <path class="cls-1" d="M278.34,13.51h2.15v12.07h-2.15v-12.07h0ZM278.33,9.56h2.18v2.27h-2.18v-2.27h0Z"/>
        <path class="cls-1" d="M232.31,25.58v-10.93c1.63-.81,3.29-1.08,4.99-1.08,1.47,0,2.63.26,3.46,1.03.84.77,1.25,1.84,1.25,3.21v7.78h-2.17v-7.93c0-.69-.18-1.23-.53-1.63-.35-.4-1.06-.47-2.12-.47-.95,0-1.87.01-2.75.29v9.73h-2.15Z"/>
        <path class="cls-1" d="M249.05,16.95c0-.97.35-1.79,1.04-2.47.69-.68,1.75-1.02,3.17-1.02,1.06,0,2.11.26,3.14.77v1.86c-1.02-.47-1.97-.7-2.88-.7-1.55,0-2.33.5-2.33,1.5,0,.33.21.6.62.82.41.22.91.41,1.49.57.58.16,1.16.36,1.75.6.58.23,1.08.62,1.5,1.17.42.55.62,1.23.62,2.04,0,.94-.35,1.75-1.07,2.43-.71.68-1.81,1.02-3.3,1.02-1.25,0-2.38-.27-3.38-.81v-1.95c1.02.57,2.1.86,3.24.86h.05c.75,0,1.32-.14,1.71-.41.39-.27.59-.62.59-1.04,0-.48-.2-.87-.61-1.16-.41-.29-.91-.52-1.49-.69-.59-.16-1.17-.35-1.76-.55-.58-.2-1.08-.54-1.49-1.01-.41-.47-.61-1.08-.61-1.83"/>
        <path class="cls-1" d="M263.42,15.45v-1.94h2.04v-3.36h2.14v3.36h3.12v1.94h-3.12v6.8c0,.92.58,1.25,1.73,1.25h.02c.53,0,.99-.11,1.36-.34v2.05c-.54.21-1.07.32-1.6.32h-.06c-.28,0-.58-.03-.91-.1-.32-.07-.7-.2-1.15-.41-.45-.2-.82-.55-1.11-1.05-.29-.5-.43-1.12-.43-1.86v-6.65h-2.04Z"/>
        <g>
          <path class="cls-1" d="M287.58,15.45v-1.94h2.04v-3.36h2.14v3.36h3.12v1.94h-3.12v6.8c0,.92.58,1.25,1.73,1.25h.02c.53,0,.99-.11,1.36-.34v2.05c-.53.21-1.07.32-1.6.32h-.06c-.28,0-.58-.03-.9-.1-.32-.07-.7-.2-1.15-.41-.45-.2-.82-.55-1.1-1.05-.29-.5-.44-1.12-.44-1.86v-6.65h-2.04Z"/>
          <path class="cls-1" d="M315.44,15.45v-1.94h2.04v-3.36h2.14v3.36h3.12v1.94h-3.12v6.8c0,.92.58,1.25,1.73,1.25h.02c.53,0,.99-.11,1.36-.34v2.05c-.53.21-1.07.32-1.6.32h-.06c-.28,0-.58-.03-.9-.1-.32-.07-.7-.2-1.15-.41-.45-.2-.82-.55-1.11-1.05-.29-.5-.44-1.12-.44-1.86v-6.65h-2.04Z"/>
        </g>
        <path class="cls-1" d="M300.49,20.42v-6.91h2.13v7.07c0,1.06.23,1.84.68,2.34.45.5,1.17.74,2.14.74s1.68-.25,2.13-.74c.45-.49.67-1.27.67-2.34v-7.07h2.15v6.91c0,1.63-.43,2.89-1.3,3.79-.87.9-2.08,1.35-3.65,1.35s-2.78-.45-3.65-1.35c-.87-.9-1.3-2.16-1.3-3.79"/>
        <path class="cls-1" d="M55.01,22.8c-.36-.27-.55-.62-.55-1.05,0-.46.17-.8.52-1.02.35-.22.9-.33,1.66-.33.65,0,1.25.09,1.79.27v1.75c0,.31-.15.52-.46.63-.31.1-.87.16-1.67.16-.5,0-.92-.13-1.29-.4h0ZM61.87,17.51c0-1.5-.53-2.53-1.58-3.11-1.05-.58-2.22-.86-3.51-.86-.99,0-1.92.1-2.78.29-.86.19-1.5.43-1.92.7v2.96c.42-.33.98-.61,1.68-.84.7-.23,1.39-.35,2.05-.35,1.71,0,2.58.64,2.6,1.91h-3.2c-1.39,0-2.44.31-3.15.92-.7.61-1.06,1.47-1.06,2.56,0,2.59,1.72,3.88,5.16,3.88h5.67v-4.21l.02-3.85h0Z"/>
        <path class="cls-1" d="M127.1,22.8c-.36-.27-.55-.62-.55-1.05,0-.46.17-.8.52-1.02.35-.22.9-.33,1.66-.33.65,0,1.25.09,1.79.27v1.75c0,.31-.16.52-.46.63-.31.1-.87.16-1.67.16-.5,0-.93-.13-1.29-.4h0ZM133.97,17.51c0-1.5-.53-2.53-1.58-3.11-1.05-.58-2.22-.86-3.51-.86-.99,0-1.92.1-2.77.29-.86.19-1.5.43-1.92.7v2.96c.42-.33.98-.61,1.68-.84.7-.23,1.39-.35,2.06-.35,1.71,0,2.58.64,2.6,1.91h-3.2c-1.39,0-2.44.31-3.15.92-.7.61-1.06,1.47-1.06,2.56,0,2.59,1.72,3.88,5.15,3.88h5.67v-4.21l.02-3.85h0Z"/>
      </g>
      <g>
        <polygon class="cls-1" points="72.03 68.39 72.03 72.64 79.7 72.64 79.7 77.09 72.03 77.09 72.03 85 66.61 85 66.61 63.97 80.89 63.97 80.89 68.39 72.03 68.39 72.03 68.39"/>
        <path class="cls-1" d="M95.21,75.95l-2.11-6.53-2.14,6.53h4.26ZM104.01,85h-5.83l-1.64-5.05h-6.87l-1.64,5.05h-5.83l8.36-21.03h5.11l8.36,21.03h0Z"/>
        <path class="cls-1" d="M121.1,78.92c0-3.37-2.81-3.69-5.27-3.69h-5.42v7.66h5.52c2.71,0,5.17-.6,5.17-3.97h0ZM115.33,66.15h-4.92v6.94h5.2c2.05,0,4.23-.35,4.23-3.31s-1.7-3.63-4.51-3.63h0ZM123.37,79.04c0,4.19-2.9,5.96-7.63,5.96h-7.6v-21.03h6.97c5.46,0,7,2.59,7,5.64s-2.24,4.19-2.24,4.19c0,0,3.5,1.04,3.5,5.23h0Z"/>
        <polygon class="cls-1" points="155.75 63.97 148.97 85 146.67 85 141.15 67.85 135.63 85 133.3 85 126.55 63.97 128.95 63.97 134.46 81.57 140.01 63.97 142.28 63.97 147.8 81.57 153.35 63.97 155.75 63.97 155.75 63.97"/>
        <polygon class="cls-1" points="10.08 68.28 5.14 66.36 7.01 68.28 10.08 68.28 10.08 68.28"/>
        <path class="cls-1" d="M30.71,69.44l.1-.05s6.78-3.28,7.82-3.79h11.18s1.21,2.48,1.21,2.48l-2.86,1.38h-9.7l-7.37,1.84h18.18s-.3-1.07-.3-1.07h0s3.44-1.68,3.44-1.68l-1.96-4.01h-12.07s-.11.06-.11.06c-1.34.65-7,3.39-7.81,3.78h-5.18s-1.15-2.35-1.15-2.35l1.09-2.11h-1.17l-1.09,2.09,1.66,3.41h6.06Z"/>
        <polygon class="cls-1" points="7.69 82.39 13.16 82.39 13.51 83.11 4.65 83.11 3.4 83.34 3.11 84.96 9.09 84.96 21 82.3 21.27 80.9 9.78 80.9 7.69 82.39 7.69 82.39"/>
        <polygon class="cls-1" points="48.85 83.34 48.81 84.96 54.03 84.96 54.52 83.11 50.24 83.11 48.85 83.34 48.85 83.34"/>
        <polygon class="cls-1" points="52.09 78.68 47.21 78.68 46.86 77.96 51.16 77.96 50.74 76.47 44.33 76.47 46.14 80.17 54.12 80.17 52.09 78.68 52.09 78.68"/>
        <polygon class="cls-1" points="55.11 80.9 47.33 80.9 51.37 82.39 54.71 82.39 55.11 80.9 55.11 80.9 55.11 80.9"/>
        <polygon class="cls-1" points="36.87 76.47 37.22 77.96 40.58 77.96 40.93 78.68 37.39 78.68 37.73 80.17 43.61 80.17 42.6 76.47 36.87 76.47 36.87 76.47"/>
        <path class="cls-1" d="M25.47,74.25l-.35-.72h15.75l.35.72h-15.75ZM14.86,74.25l-.35-.72h6.64l.35.72h-6.64ZM14.4,66.89h3.52v.02s0,0,0,0l.34.71h-3.52l-.35-.72h0ZM13.93,65.55l-1.53.38-.72-1.05,2.54-.58-.29,1.25h0ZM36.1,76.46h-5.55s-.35-.72-.35-.72h20.34l-.42-1.49h-5.06l-.35-.72h5.21s-.42-1.49-.42-1.49h-26.46l-1.08-2.21h-6.11l-.35-.72h.71s5.4,0,5.4,0l-1.81-3.71h-2.68l-.35-.72h2.99s.96-1.85.96-1.85l-8.08.02-1.2,1.2-2.67,1.01v1.83h2.79s0,.09.01.14v.03c.01.11.03.23.04.37v.13c.05.38.09.8.13,1.17h0l.04.39h-2.6s0,.02.01.03h0l.06.15c.03.07.06.15.09.23l.24.61s.02.06.04.09l.44,1.1h10.02v.02s.35.71.35.71h-8.1l.2,1.83-6.01-1.37-4.61.08-.6.95h5.32l.35.72H.85s-.85,1.35-.85,1.35h4.17l.39-.55,1.27.69h20.44l.35.72H7.15l2.73,1.49h6.85l.35.72h-4.22l-2.09,1.5h17.66s3.08-1.5,3.08-1.5h-10.5l-.35-.72h12.35l3.09-1.49h0Z"/>
        <polygon class="cls-1" points="37.41 82.51 34.74 83.34 34.74 84.96 39.95 84.96 41.52 83.11 39.31 83.11 38.96 82.39 42.14 82.39 43.4 80.9 37.72 80.9 37.41 82.51 37.41 82.51"/>
        <polygon class="cls-1" points="171.89 63.92 171.89 65.16 168.31 65.16 168.31 67.11 171.41 67.11 171.41 68.41 168.31 68.41 168.31 71.59 166.93 71.59 166.93 63.92 171.89 63.92 171.89 63.92"/>
        <polygon class="cls-1" points="175.21 71.59 175.21 63.92 176.59 63.92 176.59 71.59 175.21 71.59 175.21 71.59"/>
        <polygon class="cls-1" points="185.56 70.28 185.56 71.59 180.49 71.59 180.49 63.92 181.87 63.92 181.87 70.28 185.56 70.28 185.56 70.28"/>
        <polygon class="cls-1" points="196.11 63.92 196.11 71.59 194.73 71.59 194.73 65.92 192.36 69.32 189.99 65.92 189.99 71.59 188.61 71.59 188.61 63.92 190.14 63.92 192.36 67.13 194.58 63.92 196.11 63.92 196.11 63.92"/>
        <path class="cls-1" d="M204.29,68.5l-1.14-3.01-1.15,3.01h2.29ZM204.78,69.75h-3.24l-.7,1.84h-1.49l3.05-7.67h1.52l3.05,7.67h-1.48l-.7-1.84h0Z"/>
        <polygon class="cls-1" points="213.22 67.29 216.63 71.59 214.91 71.59 212.33 68.27 211.56 69.11 211.56 71.59 210.18 71.59 210.18 63.92 211.56 63.92 211.56 67.16 214.46 63.92 216.31 63.92 213.22 67.29 213.22 67.29"/>
        <path class="cls-1" d="M224.11,68.5l-1.14-3.01-1.15,3.01h2.29ZM224.59,69.75h-3.24l-.7,1.84h-1.49l3.05-7.67h1.52l3.05,7.67h-1.48l-.7-1.84h0Z"/>
        <path class="cls-1" d="M234.88,67.76c0-1.84-.64-2.59-2.24-2.59h-1.27v5.17h1.27c1.6,0,2.24-.75,2.24-2.58h0ZM236.26,67.76c0,2.51-1.25,3.83-3.62,3.83h-2.65v-7.67h2.65c2.37,0,3.62,1.32,3.62,3.84h0Z"/>
        <polygon class="cls-1" points="241.09 67.11 244.32 67.11 244.32 68.41 241.09 68.41 241.09 70.35 244.82 70.35 244.82 71.59 239.71 71.59 239.71 63.92 244.82 63.92 244.82 65.16 241.09 65.16 241.09 67.11 241.09 67.11"/>
        <polygon class="cls-1" points="255.92 63.92 255.92 71.59 254.54 71.59 254.54 65.92 252.17 69.32 249.8 65.92 249.8 71.59 248.42 71.59 248.42 63.92 249.95 63.92 252.17 67.13 254.39 63.92 255.92 63.92 255.92 63.92"/>
        <polygon class="cls-1" points="259.86 71.59 259.86 63.92 261.25 63.92 261.25 71.59 259.86 71.59 259.86 71.59"/>
        <polygon class="cls-1" points="266.53 67.11 269.76 67.11 269.76 68.41 266.53 68.41 266.53 70.35 270.26 70.35 270.26 71.59 265.15 71.59 265.15 63.92 270.26 63.92 270.26 65.16 266.53 65.16 266.53 67.11 266.53 67.11"/>
        <path class="cls-1" d="M171.39,82.69c0-.91-.9-1-1.54-1h-1.54v2.12h1.59c.78,0,1.5-.24,1.5-1.12h0ZM168.31,80.47h1.46c.18,0,1.2.07,1.2-.92,0-.86-.74-1.01-1.3-1.01h-1.36v1.93h0ZM172.77,82.76c0,.89-.37,2.26-2.81,2.26h-3.04v-7.67h2.76c1.31,0,2.66.49,2.66,2.16,0,.76-.43,1.23-.91,1.48.6.22,1.33.71,1.33,1.77h0Z"/>
        <path class="cls-1" d="M180.27,81.92l-1.14-3.01-1.15,3.01h2.29ZM180.75,83.17h-3.24l-.7,1.84h-1.48l3.05-7.67h1.52l3.05,7.67h-1.48l-.7-1.84h0Z"/>
        <path class="cls-1" d="M190.65,81.18c0-1.84-.64-2.59-2.24-2.59h-1.27v5.17h1.27c1.6,0,2.24-.75,2.24-2.58h0ZM192.03,81.18c0,2.51-1.25,3.83-3.62,3.83h-2.65v-7.67h2.65c2.37,0,3.62,1.32,3.62,3.84h0Z"/>
        <polygon class="cls-1" points="196.98 80.53 200.21 80.53 200.21 81.83 196.98 81.83 196.98 83.77 200.7 83.77 200.7 85.01 195.6 85.01 195.6 77.34 200.7 77.34 200.7 78.58 196.98 78.58 196.98 80.53 196.98 80.53"/>
        <polygon class="cls-1" points="211.15 77.34 211.15 85.01 209.61 85.01 205.64 79.28 205.64 85.01 204.26 85.01 204.26 77.34 205.83 77.34 209.77 83.02 209.77 77.34 211.15 77.34 211.15 77.34"/>
        <polygon class="cls-1" points="217.86 81.04 217.86 82.12 214.35 82.12 214.35 81.04 217.86 81.04 217.86 81.04"/>
        <polygon class="cls-1" points="231.49 77.34 229.03 85.01 227.6 85.01 225.89 79.66 224.16 85.01 222.74 85.01 220.27 77.34 221.72 77.34 223.45 83.01 225.28 77.34 226.49 77.34 228.32 83.01 230.05 77.34 231.49 77.34 231.49 77.34"/>
        <path class="cls-1" d="M238.99,76.68h-1.16v-1.09h1.16v1.09h0ZM237.15,76.68h-1.16v-1.09h1.16v1.09h0ZM240.71,77.34v4.43c0,2.12-1.17,3.34-3.22,3.34s-3.21-1.22-3.21-3.34v-4.43h1.38v4.54c0,1.36.56,1.96,1.83,1.96s1.84-.6,1.84-1.96v-4.54h1.38Z"/>
        <path class="cls-1" d="M247.36,81.04c.79,0,1.5-.18,1.5-1.21s-.7-1.21-1.5-1.21h-1.53v2.42h1.53ZM250.57,85.01h-1.67l-1.83-2.7h-1.24v2.7h-1.38v-7.67h2.95c1.77,0,2.84.86,2.84,2.46,0,1.46-.93,2.05-1.68,2.28l2.01,2.93h0Z"/>
        <polygon class="cls-1" points="259.29 77.34 259.29 78.72 256.83 78.72 256.83 85.01 255.45 85.01 255.45 78.72 253 78.72 253 77.34 259.29 77.34 259.29 77.34"/>
        <polygon class="cls-1" points="267.35 77.34 267.35 78.72 264.89 78.72 264.89 85.01 263.51 85.01 263.51 78.72 261.06 78.72 261.06 77.34 267.35 77.34 267.35 77.34"/>
        <polygon class="cls-1" points="271.71 80.53 274.94 80.53 274.94 81.83 271.71 81.83 271.71 83.77 275.44 83.77 275.44 85.01 270.33 85.01 270.33 77.34 275.44 77.34 275.44 78.58 271.71 78.58 271.71 80.53 271.71 80.53"/>
        <polygon class="cls-1" points="286.49 77.34 286.49 85.01 285.11 85.01 285.11 79.34 282.74 82.73 280.37 79.34 280.37 85.01 278.99 85.01 278.99 77.34 280.52 77.34 282.74 80.55 284.96 77.34 286.49 77.34 286.49 77.34"/>
        <path class="cls-1" d="M294.86,82.69c0-.91-.9-1-1.54-1h-1.54v2.12h1.59c.78,0,1.5-.24,1.5-1.12h0ZM291.77,80.47h1.46c.18,0,1.2.07,1.2-.92,0-.86-.74-1.01-1.3-1.01h-1.36v1.93h0ZM296.24,82.76c0,.89-.37,2.26-2.81,2.26h-3.04v-7.67h2.76c1.31,0,2.66.49,2.66,2.16,0,.76-.43,1.23-.91,1.48.6.22,1.33.71,1.33,1.77h0Z"/>
        <polygon class="cls-1" points="301.08 80.53 304.32 80.53 304.32 81.83 301.08 81.83 301.08 83.77 304.81 83.77 304.81 85.01 299.7 85.01 299.7 77.34 304.81 77.34 304.81 78.58 301.08 78.58 301.08 80.53 301.08 80.53"/>
        <path class="cls-1" d="M311.28,81.04c.79,0,1.5-.18,1.5-1.21s-.7-1.21-1.5-1.21h-1.53v2.42h1.53ZM314.49,85.01h-1.67l-1.83-2.7h-1.24v2.7h-1.38v-7.67h2.95c1.77,0,2.84.86,2.84,2.46,0,1.46-.93,2.05-1.68,2.28l2.01,2.93h0Z"/>
        <path class="cls-1" d="M323.73,80.62v3.83c-.78.38-1.71.66-2.77.66-1.63,0-3.58-.68-3.58-3.92s1.94-3.93,3.58-3.93c.91,0,1.77.22,2.53.52v1.27c-.73-.32-1.53-.55-2.39-.55-1.21,0-2.34.33-2.34,2.69s1.13,2.7,2.34,2.7c.48,0,.93-.08,1.36-.2v-1.84h-1.81v-1.22h3.08Z"/>
      </g>
    </g>
  </g>
</svg>