<?xml version="1.0" encoding="UTF-8" standalone="no"?>
<svg
   xmlns:dc="http://purl.org/dc/elements/1.1/"
   xmlns:cc="http://creativecommons.org/ns#"
   xmlns:rdf="http://www.w3.org/1999/02/22-rdf-syntax-ns#"
   xmlns:svg="http://www.w3.org/2000/svg"
   xmlns="http://www.w3.org/2000/svg"
   viewBox="0 0 377.95999 338.29333"
   height="338.29333"
   width="377.95999"
   xml:space="preserve"
   id="svg2"
   version="1.1"><metadata
     id="metadata8"><rdf:RDF><cc:Work
         rdf:about=""><dc:format>image/svg+xml</dc:format><dc:type
           rdf:resource="http://purl.org/dc/dcmitype/StillImage" /></cc:Work></rdf:RDF></metadata><defs
     id="defs6" /><g
     transform="matrix(1.3333333,0,0,-1.3333333,0,338.29333)"
     id="g10"><g
       transform="scale(0.1)"
       id="g12"><path
         id="path14"
         style="fill:#ffffff;fill-opacity:1;fill-rule:nonzero;stroke:none"
         d="m 2775.52,152.18 -103.38,295.621 h -83.09 V 0 h 58.25 V 354.18 L 2773.62,0 h 60.85 v 447.801 h -58.95 V 152.18" /><path
         id="path16"
         style="fill:#ffffff;fill-opacity:1;fill-rule:nonzero;stroke:none"
         d="M 182.02,2537.23 V 1262.94 H 0 v 1274.29 h 182.02 v 0 0" /><path
         id="path18"
         style="fill:#ffffff;fill-opacity:1;fill-rule:nonzero;stroke:none"
         d="M 598.129,2069.13 V 1262.94 H 416.098 v 806.19 h 182.031 v 0 0" /><path
         id="path20"
         style="fill:#ffffff;fill-opacity:1;fill-rule:nonzero;stroke:none"
         d="M 1092.26,2069.13 V 1262.94 H 910.199 v 806.19 h 182.061 v 0 0" /><path
         id="path22"
         style="fill:#ffffff;fill-opacity:1;fill-rule:nonzero;stroke:none"
         d="M 1508.34,2537.23 V 1262.94 h -182.06 v 1274.29 h 182.06 v 0 0" /><path
         id="path24"
         style="fill:#ffffff;fill-opacity:1;fill-rule:nonzero;stroke:none"
         d="m 2002.44,2069.13 v -806.19 h -182.03 v 806.19 h 182.03 v 0 0" /><path
         id="path26"
         style="fill:#ffffff;fill-opacity:1;fill-rule:nonzero;stroke:none"
         d="m 2418.54,2069.13 v -806.19 h -182.05 v 806.19 h 182.05 v 0 0" /><path
         id="path28"
         style="fill:#ffffff;fill-opacity:1;fill-rule:nonzero;stroke:none"
         d="m 2834.65,2069.13 v -806.19 h -182.04 v 806.19 h 182.04 v 0 0" /><path
         id="path30"
         style="fill:#ffffff;fill-opacity:1;fill-rule:nonzero;stroke:none"
         d="M 58.957,786.711 H 175.094 V 579.012 h 58.953 V 1026.81 H 175.094 V 838.43 H 58.957 v 188.38 H 0 V 579.012 h 58.957 v 207.699" /><path
         id="path32"
         style="fill:#ffffff;fill-opacity:1;fill-rule:nonzero;stroke:none"
         d="m 418.887,624.691 c -30.11,0 -70.141,18.481 -70.141,178.219 0,159.738 40.031,178.219 70.141,178.219 30.113,0 70.136,-18.481 70.136,-178.219 0,-159.738 -40.023,-178.219 -70.136,-178.219 z m 0,408.159 c -85.66,0 -129.098,-77.37 -129.098,-229.94 0,-152.558 43.438,-229.93 129.098,-229.93 85.679,0 129.117,77.372 129.117,229.93 0,152.57 -43.438,229.94 -129.117,229.94" /><path
         id="path34"
         style="fill:#ffffff;fill-opacity:1;fill-rule:nonzero;stroke:none"
         d="m 723.777,572.98 c 77.356,0 122.434,57.149 123.664,156.801 l 0.079,6.008 h -58.965 l -0.078,-5.848 c -1.082,-72.781 -21.036,-105.25 -64.7,-105.25 -52.644,0 -73.168,49.969 -73.168,178.219 0,128.25 20.524,178.219 73.168,178.219 34.504,0 53.164,-29.359 58.688,-92.41 l 0.488,-5.399 h 58.938 l -0.508,6.399 c -7.281,93.633 -47.949,143.131 -117.606,143.131 -88.914,0 -132.129,-75.209 -132.129,-229.94 0,-154.73 43.215,-229.93 132.129,-229.93" /><path
         id="path36"
         style="fill:#ffffff;fill-opacity:1;fill-rule:nonzero;stroke:none"
         d="m 1139.65,579.012 v 447.798 h -58.96 V 838.43 H 964.547 v 188.38 H 905.59 V 579.012 h 58.957 V 786.711 H 1080.69 V 579.012 h 58.96" /><path
         id="path38"
         style="fill:#ffffff;fill-opacity:1;fill-rule:nonzero;stroke:none"
         d="m 1321.71,838.25 c -39.39,26.68 -73.41,49.719 -73.41,91.461 0,30.75 21.64,51.418 53.84,51.418 36.61,0 57.17,-24.57 61.11,-73.039 l 0.44,-5.449 h 55.17 l -0.29,6.211 c -3.71,77.648 -46.09,123.998 -113.41,123.998 -66.39,0 -110.99,-43.151 -110.99,-107.37 0,-68.832 49.6,-103.511 97.56,-137.05 39.87,-27.879 77.54,-54.231 77.54,-97.821 0,-41.277 -21.95,-65.918 -58.67,-65.918 -41.34,0 -64.74,27.539 -65.91,77.539 l -0.14,5.79 h -55.31 l 0.1,-6.032 c 1.3,-78.367 46.99,-129.008 116.43,-129.008 74.75,0 117.63,42.649 117.63,117.032 0,79.359 -54.02,115.949 -101.69,148.238" /><path
         id="path40"
         style="fill:#ffffff;fill-opacity:1;fill-rule:nonzero;stroke:none"
         d="m 1660.25,729.941 c -1.09,-72.781 -21.04,-105.25 -64.7,-105.25 -52.64,0 -73.16,49.969 -73.16,178.219 0,128.25 20.52,178.219 73.16,178.219 34.5,0 53.16,-29.359 58.69,-92.41 l 0.48,-5.399 h 58.94 l -0.5,6.399 c -7.29,93.633 -47.96,143.131 -117.61,143.131 -88.91,0 -132.13,-75.209 -132.13,-229.94 0,-154.73 43.22,-229.93 132.13,-229.93 77.35,0 122.43,57.149 123.67,156.801 l 0.08,6.008 h -58.97 l -0.08,-5.848" /><path
         id="path42"
         style="fill:#ffffff;fill-opacity:1;fill-rule:nonzero;stroke:none"
         d="m 1836.33,786.711 h 116.13 V 579.012 h 58.96 v 447.798 h -58.96 V 838.43 h -116.13 v 188.38 h -58.97 V 579.012 h 58.97 v 207.699" /><path
         id="path44"
         style="fill:#ffffff;fill-opacity:1;fill-rule:nonzero;stroke:none"
         d="m 2312.26,699.66 v 327.15 h -58.98 V 700.879 c 0,-52.699 -17.9,-76.188 -58.07,-76.188 -40.13,0 -58.05,23.489 -58.05,76.188 v 325.931 h -58.97 V 699.66 c 0,-81.691 41.57,-126.68 117.02,-126.68 75.47,0 117.05,44.989 117.05,126.68" /><path
         id="path46"
         style="fill:#ffffff;fill-opacity:1;fill-rule:nonzero;stroke:none"
         d="m 2581.7,630.738 h -141.27 v 396.072 h -58.97 V 579.012 h 200.24 v 51.726" /><path
         id="path48"
         style="fill:#ffffff;fill-opacity:1;fill-rule:nonzero;stroke:none"
         d="m 2675.27,630.738 v 155.973 h 112.31 v 51.719 h -112.31 v 136.66 h 152.15 v 51.72 H 2616.31 V 579.012 h 218.35 v 51.726 h -159.39" /><path
         id="path50"
         style="fill:#ffffff;fill-opacity:1;fill-rule:nonzero;stroke:none"
         d="M 58.957,396.078 H 78.3906 C 143.461,396.078 181.133,367.91 181.133,223.91 181.133,79.9102 143.461,51.7305 78.3906,51.7305 H 58.957 Z m 27.8828,51.723 H 0 V 0 H 86.8398 C 192.832,0 240.09,69.0703 240.09,223.91 c 0,154.84 -47.258,223.891 -153.2502,223.891" /><path
         id="path52"
         style="fill:#ffffff;fill-opacity:1;fill-rule:nonzero;stroke:none"
         d="m 387.813,207.711 h 112.304 v 51.711 H 387.813 v 136.656 h 152.152 v 51.723 H 328.848 V 0 H 547.207 V 51.7305 H 387.813 V 207.711" /><path
         id="path54"
         style="fill:#ffffff;fill-opacity:1;fill-rule:nonzero;stroke:none"
         d="m 697.047,396.078 h 35.105 c 60.059,0 83.438,-19.476 83.438,-69.539 0,-50.019 -23.379,-69.519 -83.438,-69.519 h -35.105 z m 177.5,-67.129 c 0,72.211 -49.242,118.852 -125.465,118.852 H 638.086 V 0 h 58.961 v 204.32 l 51.449,2.02 L 817.113,4.03125 818.48,0 h 62.047 L 806.07,218.57 c 44.2,17.782 68.477,56.871 68.477,110.379" /><path
         id="path56"
         style="fill:#ffffff;fill-opacity:1;fill-rule:nonzero;stroke:none"
         d="m 1232.47,196.332 -72.05,251.469 h -85.21 V 0 h 55.2 v 357.891 l 81.08,-267.809 h 40.28 l 81.1,267.809 V 0 h 55.2 v 447.801 h -85.27 l -70.33,-251.469" /><path
         id="path58"
         style="fill:#ffffff;fill-opacity:1;fill-rule:nonzero;stroke:none"
         d="m 1544.25,207.711 h 112.27 v 51.711 h -112.27 v 136.656 h 152.12 v 51.723 H 1485.29 V 0 h 218.32 V 51.7305 H 1544.25 V 207.711" /><path
         id="path60"
         style="fill:#ffffff;fill-opacity:1;fill-rule:nonzero;stroke:none"
         d="m 1851.88,396.078 h 19.44 c 65.08,0 102.74,-28.168 102.74,-172.168 0,-143.9998 -37.66,-172.1795 -102.74,-172.1795 h -19.44 z m 27.91,51.723 h -86.86 V 0 h 86.86 c 105.98,0 153.23,69.0703 153.23,223.91 0,154.84 -47.25,223.891 -153.23,223.891" /><path
         id="path62"
         style="fill:#ffffff;fill-opacity:1;fill-rule:nonzero;stroke:none"
         d="m 2121.96,0 h 58.96 v 447.801 h -58.96 V 0" /><path
         id="path64"
         style="fill:#ffffff;fill-opacity:1;fill-rule:nonzero;stroke:none"
         d="m 2339.85,207.711 h 112.3 v 51.711 h -112.3 V 396.078 H 2492 v 51.723 H 2280.89 V 0 h 218.35 V 51.7305 H 2339.85 V 207.711" /></g></g></svg>