<?xml version="1.0" encoding="UTF-8" standalone="no"?>
<svg
   xmlns:dc="http://purl.org/dc/elements/1.1/"
   xmlns:cc="http://creativecommons.org/ns#"
   xmlns:rdf="http://www.w3.org/1999/02/22-rdf-syntax-ns#"
   xmlns:svg="http://www.w3.org/2000/svg"
   xmlns="http://www.w3.org/2000/svg"
   viewBox="0 0 208.21333 97.32"
   height="97.32"
   width="208.21333"
   xml:space="preserve"
   id="svg2"
   version="1.1"><metadata
     id="metadata8"><rdf:RDF><cc:Work
         rdf:about=""><dc:format>image/svg+xml</dc:format><dc:type
           rdf:resource="http://purl.org/dc/dcmitype/StillImage" /></cc:Work></rdf:RDF></metadata><defs
     id="defs6" /><g
     transform="matrix(1.3333333,0,0,-1.3333333,0,97.32)"
     id="g10"><g
       transform="scale(0.1)"
       id="g12"><path
         id="path14"
         style="fill:#ffffff;fill-opacity:1;fill-rule:nonzero;stroke:none"
         d="m 196.758,159.59 v 34.078 H 169.352 V 159.59 h -9.903 v 71.805 h 9.903 v -29.493 h 27.406 v 29.493 h 10.105 V 159.59 h -10.105" /><path
         id="path16"
         style="fill:#ffffff;fill-opacity:1;fill-rule:nonzero;stroke:none"
         d="m 255.84,224.828 c -12.715,0 -17.824,-9.48 -17.824,-27.93 0,-18.339 4.273,-30.847 18.339,-30.847 11.157,0 17.512,8.027 17.512,28.035 0,19.488 -4.48,30.742 -18.027,30.742 z m 0.515,-66.387 c -19.796,0 -29.593,15.739 -29.593,37.313 0,23.656 11.461,36.891 29.078,36.891 21.152,0 29.492,-17.61 29.492,-37.622 0,-21.992 -10.738,-36.582 -28.977,-36.582" /><path
         id="path18"
         style="fill:#ffffff;fill-opacity:1;fill-rule:nonzero;stroke:none"
         d="m 332.219,158.551 c -9.383,0 -16.887,3.851 -22.309,10.73 -5.101,6.567 -7.812,15.215 -7.812,25.641 0,8.336 1.668,15.527 4.687,21.363 5.32,10.215 14.801,16.465 25.848,16.465 6.777,0 13.133,-1.98 17.609,-5.625 l -4.894,-6.57 c -3.961,2.922 -7.922,4.172 -12.715,4.172 -7.086,0 -12.61,-3.649 -15.945,-10.317 -2.293,-4.586 -3.442,-10.633 -3.442,-19.281 0,-8.024 0.836,-12.719 2.609,-16.883 3.333,-7.926 10.004,-11.676 17.614,-11.676 5.519,0 9.379,1.461 13.234,4.485 l 4.899,-6.567 c -5.524,-3.961 -12.09,-5.937 -19.383,-5.937" /><path
         id="path20"
         style="fill:#ffffff;fill-opacity:1;fill-rule:nonzero;stroke:none"
         d="m 406.723,159.59 v 34.078 H 379.316 V 159.59 h -9.902 v 71.805 h 9.902 v -29.493 h 27.407 v 29.493 h 10.109 V 159.59 h -10.109" /><path
         id="path22"
         style="fill:#ffffff;fill-opacity:1;fill-rule:nonzero;stroke:none"
         d="m 459.34,158.238 c -8.231,0 -16.152,2.078 -23.133,6.356 l 3.961,7.711 c 6.254,-3.86 12.191,-5.942 19.383,-5.942 9.379,0 15.527,4.793 15.527,12.508 0,5.836 -3.855,9.899 -11.879,12.192 l -7.508,2.191 c -10.839,3.125 -16.984,8.34 -16.984,18.547 0,12.402 9.59,20.844 23.766,20.844 7.918,0 15.629,-2.293 21.984,-6.77 l -4.48,-7.09 c -6.672,4.067 -11.153,5.629 -17.09,5.629 -8.028,0 -13.028,-4.172 -13.028,-10.84 0,-5.105 2.918,-8.023 10.629,-10.316 l 8.442,-2.5 c 9.586,-2.813 17.511,-9.07 17.511,-20.223 0,-10.004 -8.238,-22.297 -27.101,-22.297" /><path
         id="path24"
         style="fill:#ffffff;fill-opacity:1;fill-rule:nonzero;stroke:none"
         d="m 532.805,158.551 c -9.383,0 -16.887,3.851 -22.309,10.73 -5.101,6.567 -7.812,15.215 -7.812,25.641 0,8.336 1.668,15.527 4.687,21.363 5.32,10.215 14.801,16.465 25.848,16.465 6.777,0 13.133,-1.98 17.609,-5.625 l -4.894,-6.57 c -3.961,2.922 -7.922,4.172 -12.715,4.172 -7.086,0 -12.61,-3.649 -15.946,-10.317 -2.293,-4.586 -3.441,-10.633 -3.441,-19.281 0,-8.024 0.836,-12.719 2.609,-16.883 3.332,-7.926 10.004,-11.676 17.614,-11.676 5.519,0 9.379,1.461 13.234,4.485 l 4.899,-6.567 c -5.524,-3.961 -12.09,-5.937 -19.383,-5.937" /><path
         id="path26"
         style="fill:#ffffff;fill-opacity:1;fill-rule:nonzero;stroke:none"
         d="m 607.305,159.59 v 34.078 H 579.898 V 159.59 h -9.902 v 71.805 h 9.902 v -29.493 h 27.407 v 29.493 H 617.41 V 159.59 h -10.105" /><path
         id="path28"
         style="fill:#ffffff;fill-opacity:1;fill-rule:nonzero;stroke:none"
         d="m 684.516,166.887 c -3.649,-4.485 -9.586,-8.446 -20.633,-8.446 -10.836,0 -18.028,3.446 -21.676,10.004 -1.875,3.336 -2.297,5.321 -2.297,12.821 v 50.129 h 10.113 V 185.02 c 0,-5.211 0.52,-11.567 2.606,-13.965 1.98,-2.293 5.629,-4.067 11.359,-4.067 5.422,0 9.379,1.668 11.672,4.692 1.77,2.289 2.606,6.148 2.606,11.879 v 47.836 h 10.004 v -49.297 c 0,-9.067 -0.52,-11.254 -3.754,-15.211" /><path
         id="path30"
         style="fill:#ffffff;fill-opacity:1;fill-rule:nonzero;stroke:none"
         d="m 746.617,159.59 h -35.851 v 71.805 h 10.214 v -63.469 h 27.305 l -1.668,-8.336" /><path
         id="path32"
         style="fill:#ffffff;fill-opacity:1;fill-rule:nonzero;stroke:none"
         d="m 763.492,159.59 v 71.805 h 39.082 l -1.359,-8.231 h -27.508 v -21.891 h 23.031 v -8.437 h -23.031 v -24.594 h 30.012 v -8.652 h -40.227" /><path
         id="path34"
         style="fill:#ffffff;fill-opacity:1;fill-rule:nonzero;stroke:none"
         d="m 900.621,159.59 v 34.078 H 873.215 V 159.59 h -9.906 v 71.805 h 9.906 v -29.493 h 27.406 v 29.493 h 10.106 V 159.59 h -10.106" /><path
         id="path36"
         style="fill:#ffffff;fill-opacity:1;fill-rule:nonzero;stroke:none"
         d="m 933.75,159.59 v 71.805 h 39.082 l -1.359,-8.231 h -27.508 v -21.891 h 23.031 v -8.437 h -23.031 v -24.594 h 30.015 v -8.652 h -40.23" /><path
         id="path38"
         style="fill:#ffffff;fill-opacity:1;fill-rule:nonzero;stroke:none"
         d="m 991.266,159.59 v 71.805 h 10.214 V 159.59 h -10.214" /><path
         id="path40"
         style="fill:#ffffff;fill-opacity:1;fill-rule:nonzero;stroke:none"
         d="m 1060.36,159.59 h -35.85 v 71.805 h 10.21 v -63.469 h 27.31 l -1.67,-8.336" /><path
         id="path42"
         style="fill:#ffffff;fill-opacity:1;fill-rule:nonzero;stroke:none"
         d="m 1106.21,192.105 c -1.88,0.418 -3.97,0.625 -7.51,0.625 h -11.57 v -25.011 h 14.17 c 5.95,0 12.62,3.547 12.62,12.715 0,5.836 -3.24,10.629 -7.71,11.671 z m -2.09,30.122 c -1.67,0.515 -3.65,0.726 -7.29,0.726 h -9.8 V 201.07 h 11.36 c 6.36,0 8.54,1.149 10.63,3.957 1.35,1.875 2.08,4.586 2.08,6.985 0,5 -2.81,8.961 -6.98,10.215 z m 6.36,-61.489 c -3.23,-0.836 -7.61,-1.148 -11.36,-1.148 h -21.89 v 71.805 h 15.22 c 12.09,0 15.32,-0.309 19.8,-2.707 6.35,-3.336 9.69,-8.446 9.69,-15.012 0,-7.5 -4.27,-13.231 -13.03,-15.84 10.84,-2.398 16.05,-9.168 16.05,-18.551 0,-10.004 -6.15,-16.359 -14.48,-18.547" /><path
         id="path44"
         style="fill:#ffffff;fill-opacity:1;fill-rule:nonzero;stroke:none"
         d="m 1171.12,221.805 c -2.09,0.836 -5.01,1.359 -8.76,1.359 h -7.5 v -25.016 h 6.98 c 6.36,0 9.9,1.047 12.4,3.446 2.19,2.078 3.55,5.519 3.55,9.691 0,5 -2.71,8.957 -6.67,10.52 z m 8.54,-62.215 c -2.08,4.062 -3.02,5.73 -5.94,10.629 -5.52,9.172 -7.29,12.191 -12.4,17.926 -1.88,2.085 -3.44,3.128 -6.46,3.234 V 159.59 h -10.01 v 71.805 h 20.12 c 8.54,0 13.55,-1.981 16.98,-5.207 3.24,-3.024 6.36,-7.821 6.36,-14.801 0,-10.942 -6.87,-19.699 -18.34,-19.699 h -0.83 c 3.12,-2.606 4.06,-3.754 6.25,-6.668 1.46,-1.985 3.65,-5.11 6.05,-8.86 l 10.42,-16.57 h -12.2" /><path
         id="path46"
         style="fill:#ffffff;fill-opacity:1;fill-rule:nonzero;stroke:none"
         d="m 1234.05,224.828 c -12.71,0 -17.82,-9.48 -17.82,-27.93 0,-18.339 4.28,-30.847 18.34,-30.847 11.15,0 17.51,8.027 17.51,28.035 0,19.488 -4.48,30.742 -18.03,30.742 z m 0.52,-66.387 c -19.8,0 -29.59,15.739 -29.59,37.313 0,23.656 11.46,36.891 29.07,36.891 21.15,0 29.49,-17.61 29.49,-37.622 0,-21.992 -10.73,-36.582 -28.97,-36.582" /><path
         id="path48"
         style="fill:#ffffff;fill-opacity:1;fill-rule:nonzero;stroke:none"
         d="m 1320.54,159.59 -18.86,38.144 c -3.65,7.399 -7.4,15.528 -8.76,19.696 l -0.63,-0.106 c 0.52,-6.148 0.74,-13.34 0.83,-20.011 l 0.42,-37.723 h -10.1 v 71.805 h 11.67 l 20.01,-39.602 c 3.02,-5.938 6.56,-15.215 7.09,-17.199 l 0.62,0.211 c -0.21,2.086 -1.04,13.449 -1.04,21.367 l -0.21,35.223 h 9.69 V 159.59 h -10.73" /><path
         id="path50"
         style="fill:#ffffff;fill-opacity:1;fill-rule:nonzero;stroke:none"
         d="m 1391.39,159.59 -18.87,38.144 c -3.63,7.399 -7.4,15.528 -8.75,19.696 l -0.63,-0.106 c 0.53,-6.148 0.73,-13.34 0.84,-20.011 l 0.41,-37.723 h -10.11 v 71.805 h 11.68 l 20.02,-39.602 c 3,-5.938 6.56,-15.215 7.07,-17.199 l 0.62,0.211 c -0.19,2.086 -1.03,13.449 -1.03,21.367 l -0.22,35.223 h 9.71 V 159.59 h -10.74" /><path
         id="path52"
         style="fill:#ffffff;fill-opacity:1;fill-rule:nonzero;stroke:none"
         d="m 674.867,426.352 h 138.321 v 53.203 H 674.867 v 90.871 H 602.078 V 337.77 h 72.789 v 88.582" /><path
         id="path54"
         style="fill:#ffffff;fill-opacity:1;fill-rule:nonzero;stroke:none"
         d="m 935.742,426.352 h 138.318 v 53.203 H 935.742 v 90.871 H 862.934 V 337.77 h 72.808 v 88.582" /><path
         id="path56"
         style="fill:#ffffff;fill-opacity:1;fill-rule:nonzero;stroke:none"
         d="m 1402.13,337.77 v 232.675 h -66.25 v -151.34 l -145.14,151.34 h -67.15 V 337.77 h 67.15 V 486.508 L 1335.12,337.77 h 67.01" /></g></g></svg>