<?xml version="1.0" encoding="UTF-8" standalone="no"?>
<svg
   xmlns:dc="http://purl.org/dc/elements/1.1/"
   xmlns:cc="http://creativecommons.org/ns#"
   xmlns:rdf="http://www.w3.org/1999/02/22-rdf-syntax-ns#"
   xmlns:svg="http://www.w3.org/2000/svg"
   xmlns="http://www.w3.org/2000/svg"
   viewBox="0 0 400 160.61333"
   height="160.61333"
   width="400"
   xml:space="preserve"
   id="svg2"
   version="1.1"><metadata
     id="metadata8"><rdf:RDF><cc:Work
         rdf:about=""><dc:format>image/svg+xml</dc:format><dc:type
           rdf:resource="http://purl.org/dc/dcmitype/StillImage" /></cc:Work></rdf:RDF></metadata><defs
     id="defs6" /><g
     transform="matrix(1.3333333,0,0,-1.3333333,0,160.61333)"
     id="g10"><g
       transform="scale(0.1)"
       id="g12"><path
         id="path14"
         style="fill:#FFFFFF;fill-opacity:1;fill-rule:nonzero;stroke:none"
         d="m 756.75,459.879 c -57.039,0 -64.352,47.547 -64.352,109.726 0,62.192 7.313,109 64.352,109 57.07,0 65.121,-46.808 65.121,-109 0,-62.179 -8.051,-109.726 -65.121,-109.726 z m 65.121,266.258 c -24.871,27.808 -54.133,38.058 -92.902,38.058 -37.309,0 -71.68,-13.16 -92.899,-34.367 -38.05,-38.051 -38.789,-103.14 -38.789,-160.223 0,-57.07 0.739,-122.898 38.789,-160.929 21.219,-21.207 56.328,-34.391 93.61,-34.391 40.261,0 68.039,10.992 94.379,40.223 v -35.832 h 92.871 v 520.84 H 821.871 V 726.137" /><path
         id="path16"
         style="fill:#FFFFFF;fill-opacity:1;fill-rule:nonzero;stroke:none"
         d="m 1211.01,519.137 c 0,-23.41 -3.65,-38.77 -13.9,-48.27 -16.82,-16.109 -33.63,-18.301 -59.98,-18.301 -37.32,0 -54.87,17.551 -54.87,43.872 0,27.097 19.04,43.167 53.41,43.167 h 75.34 z m -67.29,245.058 c -63.63,0 -100.23,-11.707 -137.54,-52.668 l 60.72,-59.269 c 19.75,22.699 36.6,31.461 73.17,31.461 50.47,0 70.94,-18.274 70.94,-59.981 v -19.011 h -89.98 c -88.5,0 -130.21,-49.758 -130.21,-110.481 0,-33.629 10.99,-64.348 31.46,-85.57 22.69,-22.688 54.13,-33.649 97.29,-33.649 43.91,0 68.03,10.961 93.64,36.571 v -32.922 h 92.89 v 250.91 c 0,89.25 -55.58,134.609 -162.38,134.609" /><path
         id="path18"
         style="fill:#FFFFFF;fill-opacity:1;fill-rule:nonzero;stroke:none"
         d="m 186.539,764.195 c -33.66,0 -65.859,-13.16 -91.4413,-39.507 V 899.516 H 0 v -520.84 h 95.0977 v 232.621 c 0,49.75 31.4613,67.308 61.4333,67.308 30.008,0 62.18,-16.808 62.18,-67.308 V 378.676 h 95.098 v 246.519 c 0,80.481 -43.879,139 -127.27,139" /><path
         id="path20"
         style="fill:#FFFFFF;fill-opacity:1;fill-rule:nonzero;stroke:none"
         d="m 365,309.047 h 226.648 v 21.519 H 365 v -21.519" /><path
         id="path22"
         style="fill:#FFFFFF;fill-opacity:1;fill-rule:nonzero;stroke:none"
         d="m 1656.36,765.805 c -12.81,0 -24.58,-4.86 -33.55,-14.59 v 65.562 h -26.12 V 634.438 h 26.12 v 79.636 c 0,19.473 11.78,28.434 26.38,28.434 14.59,0 26.12,-8.703 26.12,-28.434 v -79.636 h 26.12 v 83.738 c 0,28.172 -16.14,47.629 -45.07,47.629" /><path
         id="path24"
         style="fill:#FFFFFF;fill-opacity:1;fill-rule:nonzero;stroke:none"
         d="m 1806.61,663.887 c -4.86,-4.871 -11.53,-7.68 -19.2,-7.68 -7.69,0 -14.09,2.809 -18.96,7.68 -7.93,7.937 -8.96,21.508 -8.96,35.597 0,14.082 1.03,27.653 8.96,35.59 4.87,4.871 11.27,7.434 18.96,7.434 7.67,0 14.34,-2.563 19.2,-7.434 7.95,-7.937 8.97,-21.508 8.97,-35.59 0,-14.089 -1.02,-27.66 -8.97,-35.597 z m -19.2,101.918 c -17.67,0 -30.22,-6.649 -38.67,-15.36 -12.3,-12.808 -15.38,-29.199 -15.38,-50.961 0,-22.027 3.08,-38.418 15.38,-51.218 8.45,-8.711 21,-15.371 38.67,-15.371 17.67,0 30.47,6.66 38.92,15.371 12.29,12.8 15.36,29.191 15.36,51.218 0,21.762 -3.07,38.153 -15.36,50.961 -8.45,8.711 -21.25,15.36 -38.92,15.36" /><path
         id="path26"
         style="fill:#FFFFFF;fill-opacity:1;fill-rule:nonzero;stroke:none"
         d="m 1927.11,742.508 c 10.25,0 16.65,-3.332 24.85,-12.289 l 17.92,17.41 c -12.28,13.059 -24.84,18.18 -42.77,18.18 -29.18,0 -57.87,-17.672 -57.87,-66.321 0,-48.66 28.69,-66.59 57.87,-66.59 17.93,0 30.49,5.379 42.77,18.438 l -17.92,17.16 c -8.2,-8.961 -14.6,-12.289 -24.85,-12.289 -9.98,0 -18.43,4.09 -24.07,11.52 -5.63,7.171 -7.68,16.64 -7.68,31.761 0,15.11 2.05,24.328 7.68,31.5 5.64,7.418 14.09,11.52 24.07,11.52" /><path
         id="path28"
         style="fill:#FFFFFF;fill-opacity:1;fill-rule:nonzero;stroke:none"
         d="m 2024.29,714.074 c 0,19.473 11.78,28.434 26.38,28.434 14.59,0 26.12,-8.703 26.12,-28.434 v -79.636 h 26.12 v 83.738 c 0,28.172 -16.14,47.629 -45.07,47.629 -12.8,0 -24.58,-4.86 -33.55,-14.59 v 65.562 h -26.12 V 634.438 h 26.12 v 79.636" /><path
         id="path30"
         style="fill:#FFFFFF;fill-opacity:1;fill-rule:nonzero;stroke:none"
         d="m 2238.53,674.129 c 0,23.047 -14.34,34.578 -38.67,36.617 l -20.49,1.789 c -13.83,1.293 -17.92,7.184 -17.92,14.863 0,9.731 7.94,16.637 23.56,16.637 12.3,0 23.81,-2.547 32,-9.469 l 16.4,16.641 c -12.04,10.5 -28.68,14.602 -48.15,14.602 -27.14,0 -48.91,-14.34 -48.91,-39.692 0,-22.789 14.09,-33.801 38.41,-35.859 l 20.75,-1.789 c 12.55,-1.024 17.41,-6.653 17.41,-15.364 0,-12.289 -12.55,-17.929 -28.42,-17.929 -12.81,0 -26.89,2.82 -37.39,13.582 l -17.16,-17.16 c 15.36,-15.121 33.29,-18.7 54.55,-18.7 30.98,0 54.03,14.079 54.03,41.231" /><path
         id="path32"
         style="fill:#FFFFFF;fill-opacity:1;fill-rule:nonzero;stroke:none"
         d="m 2346.36,668.496 c -8.19,-8.961 -14.6,-12.289 -24.85,-12.289 -9.98,0 -18.43,4.09 -24.07,11.52 -5.63,7.171 -7.68,16.64 -7.68,31.761 0,15.11 2.05,24.328 7.68,31.5 5.64,7.418 14.09,11.52 24.07,11.52 10.25,0 16.66,-3.332 24.85,-12.289 l 17.92,17.41 c -12.29,13.059 -24.84,18.18 -42.77,18.18 -29.18,0 -57.87,-17.672 -57.87,-66.321 0,-48.66 28.69,-66.59 57.87,-66.59 17.93,0 30.48,5.379 42.77,18.438 l -17.92,17.16" /><path
         id="path34"
         style="fill:#FFFFFF;fill-opacity:1;fill-rule:nonzero;stroke:none"
         d="m 2418.7,714.074 c 0,19.473 11.78,28.434 26.38,28.434 14.6,0 26.12,-8.703 26.12,-28.434 v -79.636 h 26.12 v 83.738 c 0,28.172 -16.13,47.629 -45.07,47.629 -12.8,0 -24.58,-4.86 -33.55,-14.59 v 65.562 h -26.12 V 634.438 h 26.12 v 79.636" /><path
         id="path36"
         style="fill:#FFFFFF;fill-opacity:1;fill-rule:nonzero;stroke:none"
         d="m 2613.16,647.496 v -13.058 h 25.61 v 129.839 h -26.13 v -79.132 c 0,-19.981 -12.28,-28.938 -26.89,-28.938 -14.59,0 -26.12,8.699 -26.12,28.938 v 79.132 h -26.11 v -82.98 c 0,-14.59 3.06,-26.891 13.06,-36.621 7.67,-7.418 18.69,-11.781 32,-11.781 13.06,0 25.62,4.871 34.58,14.601" /><path
         id="path38"
         style="fill:#FFFFFF;fill-opacity:1;fill-rule:nonzero;stroke:none"
         d="m 2728.48,634.438 v 22.277 h -11.52 c -10.5,0 -14.09,5.121 -14.09,15.109 v 144.953 h -26.12 V 670.285 c 0,-19.211 10.76,-35.847 35.6,-35.847 h 16.13" /><path
         id="path40"
         style="fill:#FFFFFF;fill-opacity:1;fill-rule:nonzero;stroke:none"
         d="m 2774.17,709.98 c 0.25,7.942 0.77,11.782 3.33,17.668 4.1,9.743 13.58,16.391 25.86,16.391 12.3,0 21.51,-6.648 25.61,-16.391 2.57,-5.886 3.34,-9.726 3.59,-17.668 z m 29.19,55.829 c -33.28,0 -55.05,-24.329 -55.05,-66.329 0,-49.421 25.86,-66.582 58.39,-66.582 22.79,0 35.34,6.911 48.65,20.231 l -16.64,15.621 c -9.22,-9.219 -16.9,-13.309 -31.5,-13.309 -21.26,0 -33.04,14.079 -33.04,36.36 h 84.26 v 11.527 c 0,36.871 -20.23,62.481 -55.07,62.481" /><path
         id="path42"
         style="fill:#FFFFFF;fill-opacity:1;fill-rule:nonzero;stroke:none"
         d="m 1643.81,400.18 c -23.56,0 -27.14,20.23 -27.14,43.281 0,23.039 3.58,43.019 27.14,43.019 23.56,0 26.89,-19.98 26.89,-43.019 0,-23.051 -3.33,-43.281 -26.89,-43.281 z m 26.89,95.011 c -9.47,11.27 -20.23,14.59 -34.06,14.59 -13.06,0 -24.33,-4.351 -31.5,-11.519 -13.06,-13.063 -14.6,-35.082 -14.6,-54.801 0,-19.719 1.54,-42 14.6,-55.059 7.17,-7.172 18.7,-11.531 31.76,-11.531 14.08,0 24.58,3.59 34.31,15.371 V 378.41 h 25.61 v 182.34 h -26.12 v -65.559" /><path
         id="path44"
         style="fill:#FFFFFF;fill-opacity:1;fill-rule:nonzero;stroke:none"
         d="m 1805.92,425.27 c 0,-9.219 -1.79,-15.36 -5.63,-19.2 -6.92,-6.66 -14.34,-7.429 -24.33,-7.429 -16.39,0 -23.82,6.66 -23.82,18.441 0,11.777 7.94,18.688 23.31,18.688 h 30.47 z m -27.4,84.511 c -21.51,0 -34.32,-4.351 -46.61,-18.691 l 17.16,-16.129 c 7.17,9.219 14.08,12.539 28.43,12.539 20.23,0 28.42,-7.93 28.42,-24.32 v -9.219 h -34.31 c -29.71,0 -44.82,-15.629 -44.82,-37.391 0,-11.019 3.58,-21 10.24,-27.91 7.94,-7.949 18.7,-11.789 34.83,-11.789 16.14,0 25.1,3.84 34.57,13.32 V 378.41 h 25.61 v 86.813 c 0,29.457 -17.92,44.558 -53.52,44.558" /><path
         id="path46"
         style="fill:#FFFFFF;fill-opacity:1;fill-rule:nonzero;stroke:none"
         d="m 1895.35,494.164 v 14.082 h -25.61 V 378.418 h 26.12 v 78.867 c 0,17.93 11.78,29.199 25.86,29.199 8.97,0 13.58,-2.816 19.47,-8.707 l 19.72,19.719 c -8.97,8.961 -18.44,12.289 -30.99,12.289 -14.6,0 -27.92,-6.398 -34.57,-15.621" /><path
         id="path48"
         style="fill:#FFFFFF;fill-opacity:1;fill-rule:nonzero;stroke:none"
         d="m 2122.59,509.781 c -17.15,0 -30.21,-6.14 -40.71,-18.949 -8.2,12.551 -20.75,18.949 -36.89,18.949 -13.06,0 -25.86,-5.121 -34.56,-14.59 v 13.059 h -25.61 V 378.41 h 26.12 v 79.129 c 0,19.981 12.29,28.941 26.89,28.941 14.59,0 26.11,-8.71 26.11,-28.941 V 378.41 h 26.13 v 80.41 c 0,18.7 12.81,27.66 26.89,27.66 14.59,0 26.12,-8.71 26.12,-28.941 V 378.41 h 26.12 v 82.973 c 0,14.597 -3.84,26.898 -13.83,36.617 -7.68,7.43 -19.46,11.781 -32.78,11.781" /><path
         id="path50"
         style="fill:#FFFFFF;fill-opacity:1;fill-rule:nonzero;stroke:none"
         d="m 2266.38,454.723 -20.49,1.789 c -13.83,1.293 -17.92,7.179 -17.92,14.859 0,9.731 7.94,16.652 23.56,16.652 12.3,0 23.81,-2.558 32,-9.48 l 16.4,16.648 c -12.04,10.493 -28.68,14.59 -48.15,14.59 -27.14,0 -48.91,-14.34 -48.91,-39.687 0,-22.789 14.08,-33.801 38.41,-35.852 l 20.75,-1.801 c 12.55,-1.019 17.41,-6.648 17.41,-15.359 0,-12.289 -12.55,-17.93 -28.42,-17.93 -12.81,0 -26.89,2.821 -37.39,13.582 l -17.16,-17.16 c 15.36,-15.109 33.29,-18.699 54.55,-18.699 30.99,0 54.03,14.09 54.03,41.227 0,23.05 -14.33,34.582 -38.67,36.621" /><path
         id="path52"
         style="fill:#FFFFFF;fill-opacity:1;fill-rule:nonzero;stroke:none"
         d="m 2366.72,545.383 h -26.13 v -39.442 h -14.85 v -19.968 h 14.85 V 414.52 c 0,-18.688 11.27,-36.11 35.6,-36.11 h 15.62 v 22.281 h -10.75 c -9.73,0 -14.34,5.641 -14.34,15.11 v 70.172 h 25.09 v 19.968 h -25.09 v 39.442" /><path
         id="path54"
         style="fill:#FFFFFF;fill-opacity:1;fill-rule:nonzero;stroke:none"
         d="m 2494.93,425.27 c 0,-9.219 -1.79,-15.36 -5.63,-19.2 -6.92,-6.66 -14.34,-7.429 -24.33,-7.429 -16.4,0 -23.82,6.66 -23.82,18.441 0,11.777 7.94,18.688 23.31,18.688 h 30.47 z m -27.4,84.511 c -21.51,0 -34.32,-4.351 -46.61,-18.691 l 17.16,-16.129 c 7.17,9.219 14.08,12.539 28.43,12.539 20.23,0 28.42,-7.93 28.42,-24.32 v -9.219 h -34.31 c -29.72,0 -44.82,-15.629 -44.82,-37.391 0,-11.019 3.58,-21 10.24,-27.91 7.94,-7.949 18.7,-11.789 34.83,-11.789 16.14,0 25.1,3.84 34.57,13.32 V 378.41 h 25.61 v 86.813 c 0,29.457 -17.92,44.558 -53.52,44.558" /><path
         id="path56"
         style="fill:#FFFFFF;fill-opacity:1;fill-rule:nonzero;stroke:none"
         d="m 2606.99,400.18 c -23.56,0 -27.14,20.23 -27.14,43.281 0,23.039 3.58,43.019 27.14,43.019 23.56,0 26.89,-19.98 26.89,-43.019 0,-23.051 -3.33,-43.281 -26.89,-43.281 z m 26.89,95.011 c -9.47,11.27 -20.23,14.59 -34.06,14.59 -13.06,0 -24.33,-4.351 -31.49,-11.519 -13.07,-13.063 -14.61,-35.082 -14.61,-54.801 0,-19.719 1.54,-42 14.61,-55.059 7.16,-7.172 18.69,-11.531 31.75,-11.531 14.09,0 24.58,3.59 34.31,15.371 V 378.41 H 2660 v 182.34 h -26.12 v -65.559" /><path
         id="path58"
         style="fill:#FFFFFF;fill-opacity:1;fill-rule:nonzero;stroke:none"
         d="m 2729.01,545.383 h -26.13 v -39.442 h -14.84 v -19.968 h 14.84 V 414.52 c 0,-18.688 11.28,-36.11 35.61,-36.11 h 15.62 v 22.281 h -10.76 c -9.73,0 -14.34,5.641 -14.34,15.11 v 70.172 h 25.1 v 19.968 h -25.1 v 39.442" /><path
         id="path60"
         style="fill:#FFFFFF;fill-opacity:1;fill-rule:nonzero;stroke:none"
         d="M 3046.11,2.17188 3054.26,0 l 322.46,1202.42 -8.13,2.19 L 3046.11,2.17188" /><path
         id="path62"
         style="fill:#FFFFFF;fill-opacity:1;fill-rule:nonzero;stroke:none"
         d="m 3954.77,969.68 c 0,9.66 5.51,14.718 13.83,14.718 8.32,0 13.61,-4.929 13.61,-14.718 v -34.071 h 8.09 v 34.969 c 0,8.762 5.74,13.82 13.84,13.82 8.31,0 13.6,-4.929 13.6,-14.718 v -34.071 h 8.09 v 35.422 c 0,6.399 -2.02,11.571 -5.95,15.399 -3.38,3.261 -8.33,5.172 -14.29,5.172 -7.75,0 -13.94,-3.141 -18.21,-9.223 -3.37,6.082 -9.33,9.223 -16.98,9.223 -6.18,0 -11.69,-2.243 -15.63,-6.743 v 6.071 h -8.1 v -55.321 h 8.1 v 34.071" /><path
         id="path64"
         style="fill:#FFFFFF;fill-opacity:1;fill-rule:nonzero;stroke:none"
         d="m 4057.15,976.426 c 2.13,5.058 7.08,8.316 12.92,8.316 5.85,0 10.8,-3.258 12.94,-8.316 1.24,-3.043 1.46,-4.731 1.69,-9.223 h -29.24 c 0.22,4.492 0.45,6.18 1.69,9.223 z m 14.39,-41.5 c 9.45,0 14.62,2.929 20.24,8.558 l -5.51,4.821 c -4.39,-4.379 -8.1,-6.289 -14.51,-6.289 -10.56,0 -16.3,6.976 -16.3,19.117 h 37.34 v 3.711 c 0,16.422 -8.44,26.75 -22.73,26.75 -14.05,0 -22.7,-10.449 -22.7,-28.321 0,-19.57 9.55,-28.347 24.17,-28.347" /><path
         id="path66"
         style="fill:#FFFFFF;fill-opacity:1;fill-rule:nonzero;stroke:none"
         d="m 4122.65,969.68 c 0,9.66 5.51,14.718 13.83,14.718 8.33,0 13.61,-4.929 13.61,-14.718 v -34.071 h 8.09 v 34.969 c 0,8.762 5.73,13.82 13.83,13.82 8.33,0 13.61,-4.929 13.61,-14.718 v -34.071 h 8.09 v 35.422 c 0,6.399 -2.02,11.571 -5.96,15.399 -3.36,3.261 -8.31,5.172 -14.28,5.172 -7.76,0 -13.94,-3.141 -18.21,-9.223 -3.37,6.082 -9.34,9.223 -16.98,9.223 -6.18,0 -11.7,-2.243 -15.63,-6.743 v 6.071 h -8.1 v -55.321 h 8.1 v 34.071" /><path
         id="path68"
         style="fill:#FFFFFF;fill-opacity:1;fill-rule:nonzero;stroke:none"
         d="m 4239.97,984.395 c 12.04,0 13.84,-10.321 13.84,-21.122 0,-10.789 -1.8,-21.148 -13.84,-21.148 -12.03,0 -13.94,10.359 -13.94,21.148 0,10.801 1.91,21.122 13.94,21.122 z m -13.94,-42.153 c 4.5,-5.847 9.55,-7.316 15.63,-7.316 5.62,0 10.57,1.918 13.5,4.84 5.61,5.629 6.74,14.839 6.74,23.507 0,8.661 -1.13,17.872 -6.74,23.5 -2.93,2.911 -7.88,4.821 -13.5,4.821 -6.08,0 -11.13,-1.328 -15.63,-7.071 v 31.137 h -8.1 v -80.055 h 8.1 v 6.637" /><path
         id="path70"
         style="fill:#FFFFFF;fill-opacity:1;fill-rule:nonzero;stroke:none"
         d="m 4291.5,976.426 c 2.13,5.058 7.08,8.316 12.92,8.316 5.85,0 10.8,-3.258 12.94,-8.316 1.24,-3.043 1.46,-4.731 1.69,-9.223 h -29.24 c 0.22,4.492 0.45,6.18 1.69,9.223 z m 14.39,-41.5 c 9.45,0 14.62,2.929 20.24,8.558 l -5.51,4.821 c -4.39,-4.379 -8.1,-6.289 -14.5,-6.289 -10.57,0 -16.31,6.976 -16.31,19.117 h 37.34 v 3.711 c 0,16.422 -8.44,26.75 -22.73,26.75 -14.05,0 -22.7,-10.449 -22.7,-28.321 0,-19.57 9.55,-28.347 24.17,-28.347" /><path
         id="path72"
         style="fill:#FFFFFF;fill-opacity:1;fill-rule:nonzero;stroke:none"
         d="m 4357,969.57 c 0,8.422 5.17,14.832 13.27,14.832 4.27,0 6.52,-1.011 9.55,-4.039 l 5.97,6.071 c -3.94,3.937 -7.98,5.16 -13.27,5.16 -6.41,0 -12.49,-2.801 -15.52,-7.41 v 6.75 h -8.1 v -55.332 h 8.1 v 33.968" /><path
         id="path74"
         style="fill:#FFFFFF;fill-opacity:1;fill-rule:nonzero;stroke:none"
         d="m 4433.88,980.363 c 2.58,2.582 6.07,4.039 10.01,4.039 3.93,0 7.53,-1.457 10.11,-4.039 4.05,-4.058 4.39,-10.918 4.39,-17.09 0,-6.187 -0.34,-13.058 -4.39,-17.089 -2.58,-2.59 -6.18,-4.059 -10.11,-4.059 -3.94,0 -7.43,1.469 -10.01,4.059 -4.05,4.031 -4.5,10.902 -4.5,17.089 0,6.172 0.45,13.032 4.5,17.09 z m 10.01,-45.437 c 6.75,0 12.03,2.476 15.85,6.297 5.62,5.742 6.75,13.492 6.75,22.05 0,8.532 -1.13,16.301 -6.75,22.02 -3.82,3.84 -9.1,6.301 -15.85,6.301 -6.75,0 -12.04,-2.461 -15.86,-6.301 -5.62,-5.719 -6.74,-13.488 -6.74,-22.02 0,-8.558 1.12,-16.308 6.74,-22.05 3.82,-3.821 9.11,-6.297 15.86,-6.297" /><path
         id="path76"
         style="fill:#FFFFFF;fill-opacity:1;fill-rule:nonzero;stroke:none"
         d="m 4489.54,935.605 h 8.1 v 48.79 h 11.81 v 6.191 h -11.81 v 10.234 c 0,5.06 2.24,8.1 7.42,8.1 h 4.39 v 6.97 h -5.85 c -9.45,0 -14.06,-6.63 -14.06,-14.84 v -10.464 h -7.08 v -6.191 h 7.08 v -48.79" /><path
         id="path78"
         style="fill:#FFFFFF;fill-opacity:1;fill-rule:nonzero;stroke:none"
         d="m 3790.41,271.699 v 21.36 h 7.1 c 4.11,0 7.16,-0.813 9.13,-2.442 1.97,-1.64 2.95,-4.277 2.95,-7.91 0,-3.828 -1,-6.609 -2.98,-8.367 -2,-1.774 -4.96,-2.641 -8.83,-2.641 z m 25.87,0.078 c 2.46,2.922 3.68,6.563 3.68,10.93 0,12.109 -7.68,18.18 -23.04,18.18 h -16.45 v -62.75 h 9.94 v 25.832 h 6.42 l 14.91,-25.832 h 11.56 l -16.79,27.293 c 4.07,1.328 7.31,3.437 9.77,6.347" /><path
         id="path80"
         style="fill:#FFFFFF;fill-opacity:1;fill-rule:nonzero;stroke:none"
         d="m 4518.52,271.699 v 21.36 h 7.1 c 4.13,0 7.16,-0.813 9.13,-2.442 1.97,-1.66 2.95,-4.289 2.95,-7.929 0,-3.809 -1,-6.61 -3,-8.372 -1.98,-1.75 -4.94,-2.617 -8.81,-2.617 z m 25.87,0.078 c 2.45,2.922 3.68,6.563 3.68,10.911 0,12.128 -7.68,18.199 -23.06,18.199 h -16.43 v -62.75 h 9.94 v 25.832 h 6.42 l 14.91,-25.832 h 11.57 l -16.8,27.293 c 4.05,1.316 7.31,3.437 9.77,6.347" /><path
         id="path82"
         style="fill:#FFFFFF;fill-opacity:1;fill-rule:nonzero;stroke:none"
         d="m 4472.73,142.691 c -1.94,-4 -5.05,-6 -9.34,-6 -4.22,0 -7.32,2 -9.29,6 -1.97,4 -2.95,10.098 -2.95,18.278 0,8.312 0.96,14.453 2.9,18.472 1.94,4 5.07,5.989 9.34,5.989 4.29,0 7.4,-1.989 9.34,-5.989 1.95,-4.019 2.92,-10.132 2.92,-18.371 0,-8.261 -0.97,-14.379 -2.92,-18.379 z m -9.34,51.028 c -7.24,0 -12.8,-2.989 -16.66,-8.93 -3.86,-5.93 -5.8,-13.879 -5.8,-23.82 0,-10.047 1.94,-17.989 5.8,-23.789 3.86,-5.782 9.42,-8.668 16.66,-8.668 7.26,0 12.82,2.937 16.66,8.808 3.86,5.879 5.8,13.809 5.8,23.75 0,10.051 -1.94,18.008 -5.8,23.871 -3.84,5.84 -9.4,8.778 -16.66,8.778" /><path
         id="path84"
         style="fill:#FFFFFF;fill-opacity:1;fill-rule:nonzero;stroke:none"
         d="m 3873.91,142.691 c -1.94,-4 -5.05,-6.011 -9.34,-6.011 -4.22,0 -7.32,2.011 -9.29,6.011 -1.97,4 -2.95,10.079 -2.95,18.278 0,8.301 0.96,14.453 2.9,18.453 1.94,4 5.05,6.008 9.34,6.008 4.29,0 7.4,-2.008 9.34,-6.008 1.94,-4 2.92,-10.133 2.92,-18.371 0,-8.25 -0.98,-14.36 -2.92,-18.36 z m -9.34,51.008 c -7.26,0 -12.82,-2.969 -16.66,-8.91 -3.86,-5.937 -5.78,-13.898 -5.78,-23.82 0,-10.071 1.92,-18 5.78,-23.789 3.84,-5.782 9.4,-8.692 16.66,-8.692 7.26,0 12.82,2.953 16.66,8.832 3.86,5.879 5.78,13.789 5.78,23.731 0,10.07 -1.92,18.019 -5.78,23.879 -3.84,5.851 -9.4,8.769 -16.66,8.769" /><path
         id="path86"
         style="fill:#FFFFFF;fill-opacity:1;fill-rule:nonzero;stroke:none"
         d="m 3853.82,287.879 c 1.92,4 5.03,6.012 9.32,6.012 4.29,0 7.4,-2.012 9.34,-6.012 1.95,-4 2.92,-10.117 2.92,-18.359 0,-8.258 -0.97,-14.372 -2.92,-18.372 -1.94,-4 -5.05,-6.007 -9.34,-6.007 -4.22,0 -7.32,2.007 -9.29,6.007 -1.97,4 -2.95,10.082 -2.95,18.262 0,8.32 0.96,14.469 2.92,18.469 z m 9.32,-50.93 c 7.26,0 12.82,2.942 16.68,8.832 3.84,5.879 5.78,13.778 5.78,23.739 0,10.058 -1.94,18.011 -5.78,23.871 -3.86,5.847 -9.42,8.769 -16.68,8.769 -7.24,0 -12.8,-2.969 -16.66,-8.91 -3.86,-5.941 -5.78,-13.879 -5.78,-23.84 0,-10.051 1.92,-17.98 5.78,-23.769 3.86,-5.782 9.42,-8.692 16.66,-8.692" /><path
         id="path88"
         style="fill:#FFFFFF;fill-opacity:1;fill-rule:nonzero;stroke:none"
         d="m 4528.59,156.602 h 10.02 V 139.32 c -2.86,-1.75 -6.11,-2.64 -9.77,-2.64 -4.79,0 -8.35,1.929 -10.67,5.789 -2.3,3.84 -3.48,10.062 -3.48,18.672 0,8.371 1.48,14.519 4.43,18.418 2.93,3.91 6.69,5.871 11.26,5.871 2.29,0 4.36,-0.399 6.21,-1.231 1.86,-0.808 3.7,-2.109 5.53,-3.871 l 5.58,6.113 c -2.47,2.481 -5.05,4.309 -7.77,5.5 -2.72,1.168 -5.99,1.778 -9.8,1.778 -4.75,0 -9.08,-1.258 -12.99,-3.739 -3.91,-2.492 -7.02,-6.191 -9.34,-11.101 -2.32,-4.91 -3.46,-10.809 -3.46,-17.738 0,-10.653 2.09,-18.77 6.29,-24.313 4.21,-5.558 10.11,-8.316 17.78,-8.316 3.88,0 7.41,0.488 10.58,1.488 3.18,1 6.27,2.41 9.29,4.238 v 30.461 h -20.72 l 1.03,-8.097" /><path
         id="path90"
         style="fill:#FFFFFF;fill-opacity:1;fill-rule:nonzero;stroke:none"
         d="m 3745.08,260.691 c 0,-5.207 -0.84,-9.078 -2.53,-11.589 -1.69,-2.528 -4.36,-3.778 -8.02,-3.778 -3.58,0 -6.24,1.25 -7.92,3.778 -1.68,2.511 -2.53,6.382 -2.53,11.589 v 40.204 h -9.94 v -42.204 c 0,-6.609 1.78,-11.878 5.37,-15.82 3.54,-3.949 8.56,-5.918 15.02,-5.918 4.29,0 7.98,0.93 11.06,2.781 3.08,1.84 5.43,4.411 7.08,7.68 1.62,3.27 2.43,7.039 2.43,11.277 v 42.204 h -10.02 v -40.204" /><path
         id="path92"
         style="fill:#FFFFFF;fill-opacity:1;fill-rule:nonzero;stroke:none"
         d="m 4689.87,292.328 h 17.82 v -54.187 h 9.94 v 54.187 h 17.06 l 1.01,8.563 h -45.83 v -8.563" /><path
         id="path94"
         style="fill:#FFFFFF;fill-opacity:1;fill-rule:nonzero;stroke:none"
         d="m 4777.18,271.141 -13.98,29.75 h -10.97 l 19.8,-38.848 v -23.902 h 9.95 v 24 l 19.78,38.75 h -10.45 l -14.13,-29.75" /><path
         id="path96"
         style="fill:#FFFFFF;fill-opacity:1;fill-rule:nonzero;stroke:none"
         d="m 3664.27,266.059 h 21.42 v 7.91 h -21.42 v 18.91 h 24.51 l 1.11,8.012 h -35.56 v -62.75 h 36.08 v 8 h -26.14 v 19.918" /><path
         id="path98"
         style="fill:#FFFFFF;fill-opacity:1;fill-rule:nonzero;stroke:none"
         d="m 4589.4,162.699 -13.98,29.731 h -10.95 l 19.78,-38.828 V 129.68 h 9.95 v 24.019 l 19.78,38.731 h -10.45 l -14.13,-29.731" /><path
         id="path100"
         style="fill:#FFFFFF;fill-opacity:1;fill-rule:nonzero;stroke:none"
         d="m 4634.18,292.887 h 12.85 v -46.66 h -12.85 v -8.082 h 35.64 v 8.082 h -12.85 v 46.66 h 12.85 v 8 h -35.64 v -8" /><path
         id="path102"
         style="fill:#FFFFFF;fill-opacity:1;fill-rule:nonzero;stroke:none"
         d="m 4135.21,300.891 h -8.83 v -28.563 c 0,-4.859 0.14,-9.078 0.38,-12.687 0.27,-3.602 0.6,-7.653 1,-12.153 l -18.85,53.403 h -12.94 v -62.75 h 8.83 v 28.461 c 0,6.668 -0.46,14.976 -1.39,24.918 l 18.86,-53.379 h 12.94 v 62.75" /><path
         id="path104"
         style="fill:#FFFFFF;fill-opacity:1;fill-rule:nonzero;stroke:none"
         d="m 3910.49,129.68 h 9.94 v 26.73 h 22.28 v 8 h -22.28 v 20.012 h 25.37 l 1.03,8.008 h -36.34 v -62.75" /><path
         id="path106"
         style="fill:#FFFFFF;fill-opacity:1;fill-rule:nonzero;stroke:none"
         d="m 4481.16,292.887 1.11,8 h -35.57 v -62.742 h 36.08 v 7.98 h -26.14 v 19.941 h 21.42 v 7.911 h -21.42 v 18.91 h 24.52" /><path
         id="path108"
         style="fill:#FFFFFF;fill-opacity:1;fill-rule:nonzero;stroke:none"
         d="m 4355.54,292.887 v 8 h -35.64 v -8 h 12.85 v -46.66 h -12.85 v -8.082 h 35.64 v 8.082 h -12.85 v 46.66 h 12.85" /><path
         id="path110"
         style="fill:#FFFFFF;fill-opacity:1;fill-rule:nonzero;stroke:none"
         d="m 4351.48,142.691 c -1.94,-4 -5.05,-6 -9.34,-6 -4.22,0 -7.32,2 -9.29,6 -1.97,4 -2.95,10.098 -2.95,18.278 0,8.312 0.96,14.453 2.9,18.472 1.94,4 5.07,5.989 9.34,5.989 4.29,0 7.4,-1.989 9.34,-5.989 1.95,-4.019 2.92,-10.132 2.92,-18.371 0,-8.261 -0.97,-14.379 -2.92,-18.379 z m -9.34,51.028 c -7.24,0 -12.82,-2.989 -16.66,-8.93 -3.86,-5.93 -5.78,-13.879 -5.78,-23.82 0,-10.047 1.92,-17.989 5.78,-23.789 3.84,-5.782 9.42,-8.668 16.66,-8.668 7.26,0 12.82,2.937 16.68,8.808 3.85,5.879 5.78,13.809 5.78,23.75 0,10.051 -1.93,18.008 -5.78,23.871 -3.86,5.84 -9.42,8.778 -16.68,8.778" /><path
         id="path112"
         style="fill:#FFFFFF;fill-opacity:1;fill-rule:nonzero;stroke:none"
         d="m 4223.18,166.879 h -19.38 v 25.551 h -9.92 v -62.739 h 9.92 v 28.547 h 19.38 v -28.547 h 9.93 v 62.739 h -9.93 v -25.551" /><path
         id="path114"
         style="fill:#FFFFFF;fill-opacity:1;fill-rule:nonzero;stroke:none"
         d="m 4160.43,138.469 c -2.03,-0.938 -4.48,-1.41 -7.32,-1.41 -4.97,0 -8.94,1.953 -11.91,5.863 -2.97,3.898 -4.47,9.988 -4.47,18.226 0,8.372 1.53,14.524 4.55,18.422 3.03,3.91 6.94,5.86 11.73,5.86 4.58,0 8.66,-1.539 12.26,-4.629 l 5.15,6.551 c -2.51,2.179 -5.15,3.777 -7.89,4.828 -2.73,1.019 -6.05,1.539 -9.94,1.539 -4.87,0 -9.28,-1.278 -13.27,-3.821 -4.01,-2.546 -7.16,-6.277 -9.48,-11.187 -2.32,-4.902 -3.46,-10.762 -3.46,-17.563 0,-6.91 1.13,-12.82 3.38,-17.718 2.26,-4.91 5.37,-8.629 9.37,-11.141 4.01,-2.519 8.55,-3.777 13.63,-3.777 7.54,0 13.72,2.476 18.5,7.449 l -4.78,6.461 c -2.02,-1.692 -4.02,-3.012 -6.05,-3.953" /><path
         id="path116"
         style="fill:#FFFFFF;fill-opacity:1;fill-rule:nonzero;stroke:none"
         d="m 4266.19,266.602 c 0,6.668 -0.46,14.976 -1.37,24.918 l 18.84,-53.379 h 12.94 v 62.75 h -8.81 v -28.563 c 0,-4.859 0.11,-9.078 0.38,-12.687 0.25,-3.621 0.59,-7.653 0.99,-12.153 l -18.86,53.403 h -12.94 v -62.75 h 8.83 v 28.461" /><path
         id="path118"
         style="fill:#FFFFFF;fill-opacity:1;fill-rule:nonzero;stroke:none"
         d="m 4223.17,260.691 c 0,-5.226 -0.84,-9.078 -2.53,-11.589 -1.68,-2.528 -4.35,-3.778 -8,-3.778 -3.61,0 -6.24,1.25 -7.92,3.778 -1.69,2.511 -2.53,6.363 -2.53,11.589 v 40.204 h -9.94 v -42.204 c 0,-6.609 1.78,-11.878 5.35,-15.839 3.56,-3.93 8.58,-5.899 15.04,-5.899 4.27,0 7.97,0.918 11.05,2.781 3.08,1.84 5.44,4.411 7.07,7.68 1.62,3.27 2.45,7.039 2.45,11.277 v 42.204 h -10.04 v -40.204" /><path
         id="path120"
         style="fill:#FFFFFF;fill-opacity:1;fill-rule:nonzero;stroke:none"
         d="m 4589.97,245.223 c -6.4,0 -11.82,2.191 -16.28,6.543 l -5.48,-6.442 c 5.37,-5.582 12.63,-8.371 21.76,-8.371 4.68,0 8.72,0.789 12.13,2.36 3.4,1.57 5.99,3.8 7.8,6.64 1.8,2.86 2.7,6.16 2.7,9.91 0,5.461 -1.51,9.61 -4.51,12.45 -3,2.863 -7.35,5.191 -13.05,7.023 -3.61,1.137 -6.39,2.187 -8.37,3.129 -1.97,0.937 -3.37,1.98 -4.2,3.14 -0.82,1.149 -1.23,2.547 -1.23,4.18 0,2.61 0.98,4.61 2.95,6 1.97,1.399 4.56,2.098 7.75,2.098 5.26,0 9.93,-1.86 13.98,-5.559 l 5.22,6.289 c -5.26,5.02 -11.86,7.551 -19.79,7.551 -3.89,0 -7.37,-0.719 -10.47,-2.148 -3.08,-1.411 -5.49,-3.43 -7.22,-6 -1.76,-2.571 -2.62,-5.532 -2.62,-8.864 0,-4.668 1.54,-8.437 4.62,-11.277 3.1,-2.84 7.91,-5.301 14.48,-7.371 3.21,-1.031 5.66,-2.051 7.37,-3.031 1.72,-1.02 2.93,-2.149 3.64,-3.418 0.72,-1.27 1.08,-2.86 1.08,-4.731 0,-3.211 -1.16,-5.699 -3.48,-7.461 -2.32,-1.769 -5.24,-2.64 -8.78,-2.64" /><path
         id="path122"
         style="fill:#FFFFFF;fill-opacity:1;fill-rule:nonzero;stroke:none"
         d="m 4004.46,183.891 h 17.82 v -54.2 h 9.94 v 54.2 h 17.06 l 1.01,8.539 h -45.83 v -8.539" /><path
         id="path124"
         style="fill:#FFFFFF;fill-opacity:1;fill-rule:nonzero;stroke:none"
         d="m 4399.17,192.43 h -9.85 v -62.75 h 35.31 l 1.11,8.832 h -26.57 v 53.918" /><path
         id="path126"
         style="fill:#FFFFFF;fill-opacity:1;fill-rule:nonzero;stroke:none"
         d="m 4288.98,163.879 c 0,-4.84 0.11,-9.07 0.38,-12.668 0.25,-3.621 0.57,-7.672 0.99,-12.152 l -18.86,53.371 h -12.94 v -62.739 h 8.83 v 28.457 c 0,6.68 -0.46,14.973 -1.37,24.93 l 18.84,-53.387 h 12.94 v 62.739 h -8.81 v -28.551" /><path
         id="path128"
         style="fill:#FFFFFF;fill-opacity:1;fill-rule:nonzero;stroke:none"
         d="m 4005.49,292.887 1.1,8 h -35.55 v -62.742 h 36.07 v 8 h -26.14 v 19.921 h 21.42 v 7.911 h -21.42 v 18.91 h 24.52" /><path
         id="path130"
         style="fill:#FFFFFF;fill-opacity:1;fill-rule:nonzero;stroke:none"
         d="m 4402.17,248.129 -13.98,52.762 h -10.62 l 18.77,-62.75 h 11.31 l 18.76,62.75 h -10.11 l -14.13,-52.762" /><path
         id="path132"
         style="fill:#FFFFFF;fill-opacity:1;fill-rule:nonzero;stroke:none"
         d="m 4080.8,157.602 h 21.42 v 7.91 h -21.42 v 18.91 h 24.51 l 1.11,8.008 h -35.56 v -62.75 h 36.07 v 8 h -26.13 v 19.922" /><path
         id="path134"
         style="fill:#FFFFFF;fill-opacity:1;fill-rule:nonzero;stroke:none"
         d="m 4042.67,261.422 8.48,31.289 8.48,-31.289 z m 14.82,39.469 h -12.34 l -18.83,-62.75 h 10.19 l 4.11,15.089 h 21.08 l 4.11,-15.089 h 10.53 l -18.85,62.75" /><path
         id="path136"
         style="fill:#FFFFFF;fill-opacity:1;fill-rule:nonzero;stroke:none"
         d="m 3936.38,271.43 c -2.21,-1.95 -5.3,-2.918 -9.31,-2.918 h -7.27 v 24.468 h 7.18 c 8.46,0 12.7,-3.949 12.7,-11.832 0,-4.539 -1.11,-7.777 -3.3,-9.718 z m -10.07,29.461 h -16.37 v -62.75 h 9.86 v 22.379 h 7.18 c 7.14,0 12.78,1.671 16.9,5.031 4.11,3.371 6.16,8.578 6.16,15.597 0,6.563 -2.05,11.481 -6.16,14.782 -4.12,3.308 -9.98,4.961 -17.57,4.961" /><path
         id="path138"
         style="fill:#FFFFFF;fill-opacity:1;fill-rule:nonzero;stroke:none"
         d="m 4817.94,582.477 v 76.41 h -49.37 v -76.41 h -75.29 v -50.122 h 75.29 v -76.39 h 49.37 v 76.39 h 75.27 v 50.122 h -75.27" /><path
         id="path140"
         style="fill:#FFFFFF;fill-opacity:1;fill-rule:nonzero;stroke:none"
         d="m 4581.07,658.887 h -49.38 V 378.426 h 49.38 v 280.461" /><path
         id="path142"
         style="fill:#FFFFFF;fill-opacity:1;fill-rule:nonzero;stroke:none"
         d="m 3812.22,582.484 c -0.03,1.43 -0.05,2.891 -0.05,4.332 0,74.118 60.08,139.137 128.58,139.137 64.58,0 81.63,-44.75 81.63,-68.418 0,-51.558 -44.24,-75.051 -85.36,-75.051 z m 607.27,-204.05 v 335.691 h 273.78 v 50.109 h -322.82 l -0.34,-335.687 h -88.35 c -51.17,0 -88.31,33.566 -88.31,79.828 v 255.859 h -49.38 V 602.047 c -0.68,-97.293 -74.36,-173.5 -167.74,-173.5 -77.44,0 -135.27,38.668 -156.01,103.808 h 116.7 c 88.46,0 134.74,62.981 134.74,125.18 0,58.91 -44.99,118.531 -131.01,118.531 -96.46,0 -177.95,-86.671 -177.95,-189.25 0,-1.441 0.01,-2.89 0.05,-4.332 h -199.94 v -50.129 h 206.18 c 22.37,-93.652 103.26,-153.921 207.24,-153.921 69.32,0 133.66,33.16 174.14,89.269 17.55,-53.816 68.96,-89.269 131.29,-89.269 h 137.73" /></g></g></svg>