<?xml version="1.0" encoding="UTF-8" standalone="no"?>
<svg
   xmlns:dc="http://purl.org/dc/elements/1.1/"
   xmlns:cc="http://creativecommons.org/ns#"
   xmlns:rdf="http://www.w3.org/1999/02/22-rdf-syntax-ns#"
   xmlns:svg="http://www.w3.org/2000/svg"
   xmlns="http://www.w3.org/2000/svg"
   viewBox="0 0 377.94666 134.49333"
   height="134.49333"
   width="377.94666"
   xml:space="preserve"
   id="svg2"
   version="1.1"><metadata
     id="metadata8"><rdf:RDF><cc:Work
         rdf:about=""><dc:format>image/svg+xml</dc:format><dc:type
           rdf:resource="http://purl.org/dc/dcmitype/StillImage" /></cc:Work></rdf:RDF></metadata><defs
     id="defs6" /><g
     transform="matrix(1.3333333,0,0,-1.3333333,0,134.49333)"
     id="g10"><g
       transform="scale(0.1)"
       id="g12"><path
         id="path14"
         style="fill:#ffffff;fill-opacity:1;fill-rule:nonzero;stroke:none"
         d="m 2097.67,698.742 c 0,-73.004 59.1,-132.172 132.03,-132.172 72.99,0 132.11,59.168 132.11,132.172 0,73.016 -59.12,132.184 -132.11,132.184 -72.93,0 -132.03,-59.168 -132.03,-132.184" /><path
         id="path16"
         style="fill:#ffffff;fill-opacity:1;fill-rule:nonzero;stroke:none"
         d="M 2834.64,349.652 C 2713.94,140.637 2488.26,0 2229.7,0 1971.83,0 1746.6,139.984 1625.69,348.156 L 1740,414.535 c 98,-168.828 280.62,-282.305 489.7,-282.305 209.63,0 392.64,114.012 490.47,283.477 l 114.47,-66.055" /><path
         id="path18"
         style="fill:#ffffff;fill-opacity:1;fill-rule:nonzero;stroke:none"
         d="m 2722.01,830.398 c 11.17,-41.98 17.15,-86.14 17.15,-131.656 0,-281.582 -228.07,-509.844 -509.46,-509.844 -140.7,0 -268.08,57.11 -360.31,149.434 l 93.4,93.469 c 68.32,-68.41 162.67,-110.696 266.91,-110.696 208.48,0 377.37,169.055 377.37,377.637 0,33.719 -4.42,66.426 -12.74,97.547 l 127.68,34.109" /><path
         id="path20"
         style="fill:#ffffff;fill-opacity:1;fill-rule:nonzero;stroke:none"
         d="m 2313.49,1008.69 c 136.54,-36.885 236.99,-161.667 236.99,-309.948 0,-177.273 -143.61,-321.004 -320.78,-321.004 -28.63,0 -56.4,3.789 -82.85,10.84 l 34.12,127.746 c 15.55,-4.148 31.88,-6.359 48.73,-6.359 104.22,0 188.65,84.508 188.65,188.777 0,87.227 -59.06,160.613 -139.33,182.301 l 34.47,127.647" /><path
         id="path22"
         style="fill:#ffffff;fill-opacity:1;fill-rule:nonzero;stroke:none"
         d="M 0.328125,914.836 H 14.5938 v -46.66 h 37.6367 v 46.66 H 66.4922 V 806.18 H 52.2305 v 49.836 H 14.5938 V 806.18 H 0.328125 v 108.656" /><path
         id="path24"
         style="fill:#ffffff;fill-opacity:1;fill-rule:nonzero;stroke:none"
         d="m 115.289,881.512 v -37.289 c 0,-9.629 1.41,-16.809 4.266,-21.524 2.847,-4.664 8.105,-7 15.765,-7 6.973,0 12.039,2.16 15.188,6.481 3.187,4.328 4.785,11.867 4.785,22.629 v 37.445 c 0,7.609 -1.781,13.355 -5.375,17.242 -3.586,3.883 -8.477,5.824 -14.668,5.824 -13.312,0 -19.961,-7.937 -19.961,-23.808 z m -14.273,-36.043 v 35.769 c 0,11.36 2.898,20.157 8.711,26.403 5.8,6.293 14.332,9.441 25.593,9.441 11.219,0 19.727,-3.148 25.528,-9.441 5.808,-6.246 8.707,-14.953 8.707,-26.11 v -36.062 c 0,-14.219 -2.735,-24.696 -8.188,-31.434 -5.465,-6.726 -14.074,-10.097 -25.824,-10.097 -12.441,0 -21.32,3.464 -26.633,10.398 -5.258,6.98 -7.894,17.355 -7.894,31.133" /><path
         id="path26"
         style="fill:#ffffff;fill-opacity:1;fill-rule:nonzero;stroke:none"
         d="m 253.082,838.168 h 14.262 c 0,-11.809 -2.578,-20.465 -7.75,-25.973 -5.117,-5.507 -13.024,-8.257 -23.75,-8.257 -10.668,0 -18.922,2.921 -24.781,8.769 -5.79,5.906 -8.696,16.992 -8.696,33.273 v 32.231 c 0,25.914 11.449,38.871 34.367,38.871 19.61,0 29.418,-8.332 29.418,-24.992 l -0.039,-6.863 h -14.258 l 0.04,3.605 c 0,10.988 -5.278,16.488 -15.825,16.488 -5.797,0 -10.484,-1.843 -14.066,-5.527 -3.586,-3.688 -5.379,-11.816 -5.379,-24.398 v -31.321 c 0,-9.531 1.328,-16.66 3.984,-21.375 2.696,-4.664 7.829,-7 15.387,-7 5.352,0 9.527,1.989 12.52,5.965 3.043,4.031 4.566,9.535 4.566,16.504" /><path
         id="path28"
         style="fill:#ffffff;fill-opacity:1;fill-rule:nonzero;stroke:none"
         d="m 298.125,914.836 h 14.258 v -46.66 h 37.64 v 46.66 h 14.262 V 806.18 h -14.262 v 49.836 h -37.64 V 806.18 h -14.258 v 108.656" /><path
         id="path30"
         style="fill:#ffffff;fill-opacity:1;fill-rule:nonzero;stroke:none"
         d="m 396.273,838.168 14.262,-0.059 0.039,-3.812 c 0,-5.578 1.614,-10.008 4.844,-13.281 3.238,-3.282 8.02,-4.918 14.348,-4.918 5.445,0 9.851,1.468 13.23,4.418 3.391,2.949 5.078,7.257 5.078,12.906 0,4.519 -1.687,8.398 -5.078,11.641 -3.34,3.246 -9.246,6.98 -17.734,11.21 -10.403,5.344 -17.446,10.317 -21.121,14.883 -3.633,4.617 -5.45,10.125 -5.45,16.52 0,8.793 2.817,15.89 8.473,21.297 5.645,5.406 13.547,8.109 23.711,8.109 10.07,0 17.637,-2.461 22.699,-7.375 5.055,-4.914 7.578,-11.672 7.578,-20.273 l -0.039,-4.207 -14.258,-0.063 h 0.036 c 0,13.168 -5.606,19.762 -16.817,19.762 -5.347,0 -9.531,-1.434 -12.57,-4.278 -3.043,-2.851 -4.555,-6.683 -4.555,-11.5 0,-5.062 2.305,-9.535 6.914,-13.414 2.852,-2.461 8.598,-5.847 17.227,-10.175 8.687,-4.325 14.898,-8.723 18.621,-13.196 4.422,-5.304 6.637,-11.476 6.637,-18.504 0,-19.949 -11.625,-29.921 -34.864,-29.921 -9.929,0 -17.605,2.578 -23.07,7.746 -5.406,5.214 -8.105,12.714 -8.105,22.504 l -0.036,3.98" /><path
         id="path32"
         style="fill:#ffffff;fill-opacity:1;fill-rule:nonzero;stroke:none"
         d="m 542.496,838.168 h 14.266 c 0,-11.809 -2.582,-20.465 -7.75,-25.973 -5.11,-5.507 -13.028,-8.257 -23.75,-8.257 -10.672,0 -18.918,2.921 -24.778,8.769 -5.796,5.906 -8.703,16.992 -8.703,33.273 v 32.231 c 0,25.914 11.457,38.871 34.367,38.871 19.614,0 29.426,-8.332 29.426,-24.992 l -0.043,-6.863 H 541.27 l 0.035,3.605 c 0,10.988 -5.274,16.488 -15.821,16.488 -5.796,0 -10.48,-1.843 -14.066,-5.527 -3.586,-3.688 -5.375,-11.816 -5.375,-24.398 v -31.321 c 0,-9.531 1.324,-16.66 3.98,-21.375 2.7,-4.664 7.829,-7 15.391,-7 5.352,0 9.524,1.989 12.516,5.965 3.043,4.031 4.566,9.535 4.566,16.504" /><path
         id="path34"
         style="fill:#ffffff;fill-opacity:1;fill-rule:nonzero;stroke:none"
         d="m 587.469,914.836 h 14.265 v -46.66 h 37.641 v 46.66 h 14.258 V 806.18 h -14.258 v 49.836 H 601.734 V 806.18 h -14.265 v 108.656" /><path
         id="path36"
         style="fill:#ffffff;fill-opacity:1;fill-rule:nonzero;stroke:none"
         d="m 688.336,914.836 h 14.258 V 844.32 c 0,-10.382 1.601,-17.754 4.793,-22.129 3.195,-4.328 8.199,-6.492 15.031,-6.492 7.023,0 12.133,2.141 15.324,6.418 3.25,4.278 4.86,11.699 4.86,22.278 v 70.441 h 14.273 v -68.914 c 0,-14.906 -2.875,-25.629 -8.633,-32.172 -5.715,-6.543 -14.179,-9.812 -25.383,-9.812 -11.707,0 -20.382,3.269 -26.043,9.812 -5.664,6.543 -8.48,17.266 -8.48,32.172 v 68.914" /><path
         id="path38"
         style="fill:#ffffff;fill-opacity:1;fill-rule:nonzero;stroke:none"
         d="M 791.063,914.836 H 805.32 V 818.34 h 40.157 v -12.16 h -54.414 v 108.656" /><path
         id="path40"
         style="fill:#ffffff;fill-opacity:1;fill-rule:nonzero;stroke:none"
         d="m 868.484,806.18 v 108.656 h 56.661 v -12.16 h -42.391 v -34.5 h 39.355 v -12.16 H 882.754 V 818.34 h 43.316 v -12.16 h -57.586" /><path
         id="path42"
         style="fill:#ffffff;fill-opacity:1;fill-rule:nonzero;stroke:none"
         d="M 0,655.109 V 763.77 H 54.418 V 751.605 H 14.2656 v -34.496 h 37.9063 v -12.16 H 14.2656 v -49.84 H 0" /><path
         id="path44"
         style="fill:#ffffff;fill-opacity:1;fill-rule:nonzero;stroke:none"
         d="m 72.2109,763.77 h 14.2539 v -70.52 c 0,-10.383 1.5977,-17.754 4.793,-22.125 3.1953,-4.328 8.211,-6.492 15.0472,-6.492 7.019,0 12.129,2.137 15.324,6.414 3.238,4.277 4.859,11.707 4.859,22.277 v 70.446 h 14.27 v -68.918 c 0,-14.907 -2.891,-25.629 -8.633,-32.168 -5.715,-6.547 -14.172,-9.817 -25.383,-9.817 -11.7068,0 -20.3943,3.27 -26.0506,9.817 -5.6523,6.539 -8.4805,17.261 -8.4805,32.168 v 68.918" /><path
         id="path46"
         style="fill:#ffffff;fill-opacity:1;fill-rule:nonzero;stroke:none"
         d="m 183.207,717.109 h 20.387 c 4.57,0 8.179,1.641 10.828,4.926 2.695,3.281 4.043,7.653 4.043,13.094 0,4.461 -1.199,8.312 -3.598,11.551 -2.41,3.281 -5.996,4.925 -10.758,4.925 h -20.902 z m -14.262,-62 V 763.77 h 37.387 c 8.313,0 14.777,-2.391 19.395,-7.157 4.671,-4.718 7.007,-11.386 7.007,-19.996 0,-13.91 -6.82,-22.293 -20.468,-25.144 5.875,-0.594 10.238,-2.516 13.101,-5.762 2.903,-3.246 4.531,-8.965 4.875,-17.141 0.446,-14.129 1.805,-25.281 4.071,-33.461 h -14.477 c -1.434,2.168 -2.41,6.891 -2.945,14.18 -0.5,7.281 -0.914,14.492 -1.258,21.633 -0.539,9.351 -5.867,14.027 -15.988,14.027 h -16.438 v -49.84 h -14.262" /><path
         id="path48"
         style="fill:#ffffff;fill-opacity:1;fill-rule:nonzero;stroke:none"
         d="m 247.879,763.77 h 70.797 V 751.605 H 290.41 v -96.496 h -14.269 v 96.496 h -28.262 v 12.165" /><path
         id="path50"
         style="fill:#ffffff;fill-opacity:1;fill-rule:nonzero;stroke:none"
         d="m 326.539,763.77 h 14.926 l 21.023,-94.629 h -0.047 l 21.805,94.629 h 17.961 l 20.395,-94.629 h -0.047 l 21.691,94.629 h 14.488 L 430.469,655.109 h -16.895 l -21.203,94.27 h 0.106 l -21.961,-94.27 H 353.602 L 326.539,763.77" /><path
         id="path52"
         style="fill:#ffffff;fill-opacity:1;fill-rule:nonzero;stroke:none"
         d="m 486.484,693.273 v 0.04 h 34.496 v -0.04 l -17.546,58.172 h 0.004 z m -25.621,-38.164 34.211,108.661 h 17.832 l 35.395,-108.661 h -15.59 l -7.813,26.063 v -0.02 h -42.027 v 0.02 l -8.027,-26.063 h -13.981" /><path
         id="path54"
         style="fill:#ffffff;fill-opacity:1;fill-rule:nonzero;stroke:none"
         d="m 568.426,763.77 h 19.804 l 42.672,-93.821 h -0.004 v 93.821 h 12.411 V 655.109 h -19.145 l -43.34,94.633 h 0.016 V 655.109 H 568.426 V 763.77" /><path
         id="path56"
         style="fill:#ffffff;fill-opacity:1;fill-rule:nonzero;stroke:none"
         d="m 704.559,701.906 v 12.16 h 34.199 v -53.082 c -9.438,-5.414 -20.477,-8.117 -33.117,-8.117 -11.414,0 -19.969,3.172 -25.676,9.516 -5.707,6.347 -8.555,17.16 -8.555,32.453 v 35.406 c 0,23.848 11.578,35.774 34.742,35.774 21.743,0 32.606,-9.141 32.606,-27.434 v -4.426 h -14.262 c 0,13.395 -6.258,20.094 -18.789,20.094 -7.309,0 -12.496,-2.234 -15.539,-6.707 -2.996,-4.473 -4.496,-10.223 -4.496,-17.242 v -37.293 c 0,-11.695 1.812,-19.367 5.449,-23 3.633,-3.582 8.184,-5.375 13.629,-5.375 8.887,0 15.48,1.59 19.746,4.789 v 32.484 h -19.937" /><path
         id="path58"
         style="fill:#ffffff;fill-opacity:1;fill-rule:nonzero;stroke:none"
         d="M 769.336,655.109 V 763.77 h 56.648 v -12.165 h -42.39 v -34.496 h 39.355 v -12.16 h -39.355 v -37.672 h 43.308 v -12.168 h -57.566" /><path
         id="path60"
         style="fill:#ffffff;fill-opacity:1;fill-rule:nonzero;stroke:none"
         d="m 850.25,763.77 h 19.809 l 42.664,-93.821 h -0.008 v 93.821 h 12.414 V 655.109 H 905.98 l -43.328,94.633 h 0.008 V 655.109 H 850.25 V 763.77" /><path
         id="path62"
         style="fill:#ffffff;fill-opacity:1;fill-rule:nonzero;stroke:none"
         d="m 154.164,612.699 h 14.27 V 542.18 c 0,-10.375 1.593,-17.754 4.785,-22.121 3.203,-4.332 8.211,-6.496 15.035,-6.496 7.027,0 12.133,2.136 15.324,6.421 3.246,4.274 4.879,11.7 4.879,22.27 v 70.445 h 14.246 v -68.918 c 0,-14.902 -2.867,-25.625 -8.625,-32.168 -5.703,-6.543 -14.168,-9.808 -25.379,-9.808 -11.707,0 -20.383,3.265 -26.047,9.808 -5.648,6.543 -8.488,17.266 -8.488,32.168 v 68.918" /><path
         id="path64"
         style="fill:#ffffff;fill-opacity:1;fill-rule:nonzero;stroke:none"
         d="m 252.215,612.699 h 19.812 l 42.668,-93.82 h -0.011 v 93.82 h 12.414 V 504.047 h -19.149 l -43.324,94.629 h 0.012 v -94.629 h -12.422 v 108.652" /><path
         id="path66"
         style="fill:#ffffff;fill-opacity:1;fill-rule:nonzero;stroke:none"
         d="m 358.207,612.699 h 14.27 V 504.047 h -14.27 v 108.652" /><path
         id="path68"
         style="fill:#ffffff;fill-opacity:1;fill-rule:nonzero;stroke:none"
         d="m 433.719,516.371 h -0.09 l 25.644,96.328 h 14.258 L 441.699,504.047 H 425.066 L 393.23,612.699 h 15.153 l 25.336,-96.328" /><path
         id="path70"
         style="fill:#ffffff;fill-opacity:1;fill-rule:nonzero;stroke:none"
         d="m 491.176,504.047 v 108.652 h 56.66 v -12.164 h -42.387 v -34.496 h 39.352 v -12.16 h -39.352 v -37.668 h 43.309 v -12.164 h -57.582" /><path
         id="path72"
         style="fill:#ffffff;fill-opacity:1;fill-rule:nonzero;stroke:none"
         d="m 585.141,566.039 h 20.394 c 4.563,0 8.164,1.641 10.82,4.926 2.708,3.285 4.055,7.656 4.055,13.098 0,4.46 -1.207,8.308 -3.609,11.546 -2.399,3.286 -5.981,4.926 -10.742,4.926 h -20.918 z m -14.254,-61.992 v 108.652 h 37.39 c 8.301,0 14.766,-2.386 19.391,-7.152 4.668,-4.723 7.008,-11.383 7.008,-19.996 0,-13.91 -6.828,-22.297 -20.473,-25.149 5.871,-0.589 10.235,-2.507 13.098,-5.761 2.91,-3.246 4.539,-8.965 4.89,-17.137 0.442,-14.133 1.797,-25.285 4.067,-33.457 h -14.492 c -1.414,2.168 -2.403,6.891 -2.942,14.18 -0.496,7.273 -0.91,14.488 -1.246,21.625 -0.547,9.351 -5.875,14.027 -15.992,14.027 h -16.445 v -49.832 h -14.254" /><path
         id="path74"
         style="fill:#ffffff;fill-opacity:1;fill-rule:nonzero;stroke:none"
         d="m 656.816,536.031 14.254,-0.054 0.039,-3.821 c 0,-5.574 1.625,-10 4.856,-13.281 3.234,-3.281 8.015,-4.918 14.344,-4.918 5.437,0 9.847,1.477 13.234,4.422 3.379,2.953 5.074,7.254 5.074,12.902 0,4.524 -1.695,8.407 -5.078,11.649 -3.34,3.242 -9.254,6.976 -17.734,11.203 -10.41,5.355 -17.457,10.316 -21.133,14.89 -3.629,4.618 -5.449,10.125 -5.449,16.512 0,8.793 2.824,15.899 8.476,21.305 5.649,5.402 13.551,8.105 23.723,8.105 10.062,0 17.621,-2.453 22.683,-7.371 5.059,-4.922 7.583,-11.676 7.583,-20.277 l -0.032,-4.207 -14.258,-0.063 h 0.032 c 0,13.176 -5.61,19.758 -16.836,19.758 -5.324,0 -9.516,-1.426 -12.551,-4.277 -3.039,-2.852 -4.551,-6.68 -4.551,-11.496 0,-5.063 2.301,-9.539 6.914,-13.414 2.848,-2.461 8.586,-5.844 17.235,-10.176 8.683,-4.32 14.886,-8.727 18.617,-13.195 4.422,-5.305 6.629,-11.473 6.629,-18.504 0,-19.946 -11.621,-29.918 -34.864,-29.918 -9.921,0 -17.617,2.578 -23.062,7.738 -5.41,5.215 -8.109,12.723 -8.109,22.512 l -0.036,3.976" /><path
         id="path76"
         style="fill:#ffffff;fill-opacity:1;fill-rule:nonzero;stroke:none"
         d="m 749.754,612.699 h 14.273 V 504.047 h -14.273 v 108.652" /><path
         id="path78"
         style="fill:#ffffff;fill-opacity:1;fill-rule:nonzero;stroke:none"
         d="m 784.434,612.699 h 70.789 v -12.164 h -28.266 v -96.488 h -14.254 v 96.488 h -28.269 v 12.164" /><path
         id="path80"
         style="fill:#ffffff;fill-opacity:1;fill-rule:nonzero;stroke:none"
         d="m 863.266,612.699 h 15.589 l 21.559,-52.629 h -0.027 l 22.078,52.629 h 13.969 L 906.98,545.672 v -41.625 h -14.261 v 41.625 l -29.453,67.027" /><path
         id="path82"
         style="fill:#ffffff;fill-opacity:1;fill-rule:nonzero;stroke:none"
         d="m 1096.73,499.809 v 422.832 h 53.82 V 739.906 h 148.03 v 182.735 h 53.84 V 499.809 h -53.84 V 693.074 H 1150.55 V 499.809 h -53.82" /><path
         id="path84"
         style="fill:#ffffff;fill-opacity:1;fill-rule:nonzero;stroke:none"
         d="m 1426.66,499.809 v 422.832 h 209.43 v -46.84 H 1480.48 V 739.906 h 147.46 V 693.074 H 1480.48 V 499.809 h -53.82" /><path
         id="path86"
         style="fill:#ffffff;fill-opacity:1;fill-rule:nonzero;stroke:none"
         d="m 1680.84,922.641 h 53.82 V 652.094 c 0,-92.539 28.11,-115.949 79.01,-115.949 50.9,0 79,23.41 79,115.949 v 270.547 h 53.83 V 654.426 c 0,-117.129 -43.32,-163.395 -132.83,-163.395 -89.51,0 -132.83,46.266 -132.83,163.395 v 268.215" /><path
         id="path88"
         style="fill:none;stroke:#ffffff;stroke-width:8;stroke-linecap:butt;stroke-linejoin:miter;stroke-miterlimit:4;stroke-dasharray:none;stroke-opacity:1"
         d="M 1006.99,922.188 V 498.402" /></g></g></svg>