<?xml version="1.0" encoding="UTF-8" standalone="no"?>
<svg
   xmlns:dc="http://purl.org/dc/elements/1.1/"
   xmlns:cc="http://creativecommons.org/ns#"
   xmlns:rdf="http://www.w3.org/1999/02/22-rdf-syntax-ns#"
   xmlns:svg="http://www.w3.org/2000/svg"
   xmlns="http://www.w3.org/2000/svg"
   width="210mm"
   height="66.501999mm"
   viewBox="0 0 210 66.501999"
   version="1.1"
   id="svg8">
  <defs
     id="defs2">
    <clipPath
       clipPathUnits="userSpaceOnUse"
       id="clipPath853">
      <path
         d="m 1589.289,2964.616 h 794.648 v 405.778 h -794.648 z"
         id="path851" />
    </clipPath>
    <clipPath
       clipPathUnits="userSpaceOnUse"
       id="clipPath865">
      <path
         d="m 1733.002,3108.328 h 507.222 v 160.622 h -507.222 z"
         id="path863" />
    </clipPath>
  </defs>
  <metadata
     id="metadata5">
    <rdf:RDF>
      <cc:Work
         rdf:about="">
        <dc:format>image/svg+xml</dc:format>
        <dc:type
           rdf:resource="http://purl.org/dc/dcmitype/StillImage" />
        <dc:title></dc:title>
      </cc:Work>
    </rdf:RDF>
  </metadata>
  <g
     id="g859"
     transform="matrix(0.41402174,0,0,-0.41402174,-717.5005,1353.4164)"
     style="fill:#ffffff">
    <g
       id="g861"
       clip-path="url(#clipPath865)"
       style="fill:#ffffff">
      <g
         id="g867"
         transform="translate(1773.979,3165.1953)"
         style="fill:#ffffff">
        <path
           d="m 0,0 c -5.216,-1.903 -12.111,-3.642 -19.841,-3.642 -7.731,0 -14.626,1.739 -19.845,3.642 -0.64,0.231 -1.291,-0.29 -1.291,-1.038 v -46.089 c 0,-0.436 0.221,-0.83 0.585,-1.001 4.172,-1.969 11.699,-4.794 20.551,-4.794 8.774,0 16.352,2.839 20.547,4.814 0.364,0.169 0.586,0.562 0.586,0.996 V -1.038 C 1.292,-0.29 0.641,0.234 0,0"
           style="fill:#ffffff;fill-opacity:1;fill-rule:nonzero;stroke:none"
           id="path869" />
      </g>
      <g
         id="g871"
         transform="translate(1835.7402,3112.3284)"
         style="fill:#ffffff">
        <path
           d="m 0,0 c 5.215,1.905 12.113,3.643 19.841,3.643 7.729,0 14.624,-1.738 19.843,-3.637 0.642,-0.236 1.292,0.285 1.292,1.034 v 46.091 c 0,0.435 -0.221,0.829 -0.581,0.999 -4.176,1.97 -11.704,4.795 -20.554,4.795 -8.774,0 -16.352,-2.842 -20.549,-4.814 -0.364,-0.169 -0.584,-0.56 -0.584,-0.999 V 1.04 C -1.292,0.291 -0.642,-0.23 0,0"
           style="fill:#ffffff;fill-opacity:1;fill-rule:nonzero;stroke:none"
           id="path873" />
      </g>
      <g
         id="g875"
         transform="translate(1785.0167,3112.3284)"
         style="fill:#ffffff">
        <path
           d="m 0,0 c 5.216,1.905 12.111,3.643 19.841,3.643 7.731,0 14.626,-1.738 19.845,-3.637 0.64,-0.236 1.291,0.285 1.291,1.034 v 46.091 c 0,0.435 -0.221,0.829 -0.582,0.999 -4.175,1.97 -11.702,4.795 -20.554,4.795 -8.774,0 -16.352,-2.842 -20.547,-4.814 -0.364,-0.169 -0.586,-0.56 -0.586,-0.999 V 1.04 C -1.292,0.291 -0.641,-0.23 0,0"
           style="fill:#ffffff;fill-opacity:1;fill-rule:nonzero;stroke:none"
           id="path877" />
      </g>
      <g
         id="g879"
         transform="translate(1773.979,3223.8069)"
         style="fill:#ffffff">
        <path
           d="m 0,0 c -5.216,-1.903 -12.111,-3.642 -19.841,-3.642 -7.731,0 -14.626,1.739 -19.845,3.642 -0.64,0.235 -1.291,-0.29 -1.291,-1.038 v -46.088 c 0,-0.439 0.221,-0.829 0.585,-1.002 4.172,-1.969 11.699,-4.793 20.551,-4.793 8.774,0 16.352,2.84 20.547,4.81 0.364,0.17 0.586,0.564 0.586,0.999 V -1.038 C 1.292,-0.29 0.641,0.235 0,0"
           style="fill:#ffffff;fill-opacity:1;fill-rule:nonzero;stroke:none"
           id="path881" />
      </g>
      <g
         id="g883"
         transform="translate(1835.7402,3170.9429)"
         style="fill:#ffffff">
        <path
           d="M 0,0 C 5.215,1.9 12.113,3.642 19.841,3.642 27.57,3.642 34.465,1.9 39.684,0 c 0.642,-0.234 1.292,0.29 1.292,1.038 v 46.089 c 0,0.435 -0.221,0.828 -0.581,0.998 -4.176,1.972 -11.704,4.796 -20.554,4.796 -8.774,0 -16.352,-2.843 -20.549,-4.81 -0.364,-0.173 -0.584,-0.563 -0.584,-1.002 V 1.035 C -1.292,0.29 -0.642,-0.234 0,0"
           style="fill:#ffffff;fill-opacity:1;fill-rule:nonzero;stroke:none"
           id="path885" />
      </g>
      <g
         id="g887"
         transform="translate(1785.0167,3170.9443)"
         style="fill:#ffffff">
        <path
           d="m 0,0 c 5.216,1.899 12.111,3.64 19.841,3.64 7.731,0 14.626,-1.741 19.845,-3.64 0.64,-0.236 1.291,0.288 1.291,1.037 v 91.175 c 0,0.438 -0.221,0.829 -0.582,0.999 -4.175,1.971 -11.702,4.795 -20.554,4.795 -8.774,0 -16.352,-2.84 -20.547,-4.813 -0.364,-0.17 -0.586,-0.562 -0.586,-0.997 V 1.034 C -1.292,0.288 -0.641,-0.236 0,0"
           style="fill:#ffffff;fill-opacity:1;fill-rule:nonzero;stroke:none"
           id="path889" />
      </g>
      <g
         id="g891"
         transform="translate(1955.1609,3217.9995)"
         style="fill:#ffffff">
        <path
           d="M 0,0 H -8.787 V -11.994 H -18.946 V 0 h -8.787 v -32.356 h 8.787 v 13.19 h 10.159 v -13.19 H 0 Z m 34.107,-3.719 c -2.656,2.819 -6.56,4.23 -11.708,4.23 -5.136,0 -9.048,-1.42 -11.741,-4.262 -2.693,-2.842 -4.041,-6.952 -4.041,-12.338 0,-5.445 1.354,-9.591 4.061,-12.439 2.709,-2.848 6.601,-4.271 11.676,-4.271 5.151,0 9.057,1.417 11.73,4.251 2.673,2.832 4.004,6.972 4.004,12.415 0,5.461 -1.325,9.596 -3.981,12.414 M 22.399,-6.662 c 2.154,0 3.773,-0.772 4.855,-2.311 1.086,-1.545 1.628,-3.93 1.628,-7.16 0,-3.218 -0.536,-5.586 -1.603,-7.105 -1.072,-1.52 -2.711,-2.28 -4.925,-2.28 -4.354,0 -6.528,3.128 -6.528,9.385 0,6.313 2.19,9.471 6.573,9.471 m 40.526,-0.617 c 1.197,-0.388 2.388,-0.86 3.585,-1.42 l 2.679,6.883 C 66,-0.294 62.66,0.466 59.165,0.466 c -3.203,0 -5.988,-0.683 -8.356,-2.049 -2.367,-1.365 -4.182,-3.317 -5.446,-5.851 -1.258,-2.541 -1.89,-5.482 -1.89,-8.833 0,-5.357 1.299,-9.449 3.906,-12.281 2.603,-2.834 6.346,-4.251 11.23,-4.251 3.41,0 6.462,0.597 9.162,1.793 v 7.39 c -1.357,-0.561 -2.708,-1.037 -4.048,-1.437 -1.343,-0.399 -2.729,-0.598 -4.162,-0.598 -4.735,0 -7.103,3.115 -7.103,9.342 0,2.994 0.582,5.344 1.747,7.046 1.165,1.704 2.788,2.556 4.87,2.556 1.372,0 2.656,-0.191 3.85,-0.572 M 102.519,0 H 93.733 V -11.994 H 83.569 V 0 h -8.782 v -32.356 h 8.782 v 13.19 h 10.164 v -13.19 h 8.786 z m 27.866,-17.097 c -1.085,1.437 -3.021,2.786 -5.812,4.038 -2.905,1.331 -4.686,2.243 -5.344,2.746 -0.654,0.501 -0.988,1.069 -0.988,1.704 0,0.59 0.26,1.085 0.779,1.483 0.519,0.399 1.339,0.598 2.481,0.598 2.195,0 4.807,-0.694 7.831,-2.081 l 2.678,6.751 c -3.48,1.548 -6.895,2.324 -10.247,2.324 -3.79,0 -6.769,-0.836 -8.94,-2.502 -2.168,-1.667 -3.251,-3.991 -3.251,-6.973 0,-1.592 0.253,-2.97 0.763,-4.136 0.507,-1.166 1.289,-2.199 2.344,-3.098 1.056,-0.902 2.637,-1.832 4.748,-2.789 2.332,-1.047 3.767,-1.742 4.304,-2.081 0.539,-0.341 0.93,-0.674 1.175,-1.006 0.241,-0.334 0.364,-0.721 0.364,-1.162 0,-0.711 -0.305,-1.289 -0.907,-1.739 -0.605,-0.451 -1.557,-0.674 -2.854,-0.674 -1.509,0 -3.158,0.242 -4.96,0.717 -1.798,0.481 -3.534,1.15 -5.201,2.006 v -7.791 c 1.578,-0.754 3.099,-1.281 4.557,-1.583 1.464,-0.301 3.272,-0.454 5.425,-0.454 2.583,0 4.831,0.432 6.749,1.295 1.92,0.861 3.388,2.073 4.405,3.63 1.019,1.556 1.526,3.336 1.526,5.344 0,2.183 -0.539,3.996 -1.625,5.433 m 25.844,9.818 c 1.194,-0.388 2.386,-0.86 3.579,-1.42 l 2.682,6.883 c -3.18,1.522 -6.52,2.282 -10.018,2.282 -3.2,0 -5.985,-0.683 -8.35,-2.049 -2.389,-1.365 -4.196,-3.317 -5.455,-5.851 -1.261,-2.541 -1.894,-5.482 -1.894,-8.833 0,-5.357 1.303,-9.449 3.91,-12.281 2.603,-2.834 6.34,-4.251 11.228,-4.251 3.403,0 6.463,0.597 9.171,1.793 v 7.39 c -1.372,-0.561 -2.708,-1.037 -4.059,-1.437 -1.33,-0.399 -2.723,-0.598 -4.155,-0.598 -4.729,0 -7.115,3.115 -7.115,9.342 0,2.994 0.596,5.344 1.747,7.046 1.176,1.704 2.801,2.556 4.874,2.556 1.371,0 2.66,-0.191 3.855,-0.572 M 195.813,0 h -8.785 V -11.994 H 176.885 V 0 h -8.786 v -32.356 h 8.786 v 13.19 h 10.143 v -13.19 h 8.785 z m 26.721,0 v -18.946 c 0,-2.332 -0.399,-4.008 -1.192,-5.034 -0.818,-1.025 -2.106,-1.538 -3.895,-1.538 -1.67,0 -2.923,0.518 -3.779,1.551 -0.859,1.031 -1.291,2.689 -1.291,4.98 V 0 h -8.789 v -19.673 c 0,-4.234 1.193,-7.483 3.558,-9.741 2.368,-2.256 5.768,-3.385 10.161,-3.385 4.533,0 7.971,1.16 10.378,3.487 2.404,2.323 3.599,5.601 3.599,9.836 V 0 Z m 37.696,-32.356 v 7.058 H 247.765 V 0 h -8.73 v -32.356 z m 24.834,7.127 h -10.477 v 6.108 h 9.702 v 7.017 h -9.702 v 5.087 h 10.477 V 0 h -19.227 v -32.356 h 19.227 z"
           style="fill:#ffffff;fill-opacity:1;fill-rule:nonzero;stroke:none"
           id="path893" />
      </g>
      <g
         id="g895"
         transform="translate(1949.8474,3143.8345)"
         style="fill:#ffffff">
        <path
           d="m 0,0 6.529,23.26 h 0.2 C 6.553,19.749 6.451,17.543 6.43,16.644 6.41,15.744 6.397,14.923 6.397,14.186 V 0 h 8.035 V 32.355 H 2.768 L -3.849,9.384 h -0.179 l -6.749,22.971 h -11.64 V 0 h 7.744 v 14.052 c 0,2.199 -0.154,5.283 -0.464,9.253 h 0.199 L -8.319,0 Z M 31.156,32.355 H 22.367 V 0 h 8.789 z m 21.99,-7.146 h 7.881 v 7.146 h -24.52 v -7.146 h 7.899 V 0 h 8.74 z m 28.72,0 h 7.879 v 7.146 H 65.221 v -7.146 h 7.901 V 0 h 8.744 z m 57.561,7.146 h -8.434 l -3.588,-16.266 c -0.853,-4.044 -1.375,-6.883 -1.569,-8.519 -0.164,1.266 -0.489,3.189 -0.972,5.751 -0.486,2.569 -0.966,4.833 -1.44,6.795 l -2.765,12.239 h -8.1 l -2.854,-12.239 c -0.432,-1.694 -0.892,-3.836 -1.387,-6.419 -0.495,-2.581 -0.835,-4.622 -1.032,-6.127 -0.289,2.122 -0.84,4.977 -1.631,8.565 l -3.519,16.22 H 93.702 L 101.71,0 h 10.336 c 1.894,8.487 2.962,13.321 3.221,14.518 0.256,1.196 0.522,2.505 0.79,3.928 0.263,1.425 0.454,2.615 0.57,3.576 0.152,-1.181 0.382,-2.652 0.701,-4.405 0.313,-1.756 0.546,-2.93 0.698,-3.518 L 121.121,0 h 10.337 z M 163.75,7.127 h -10.459 v 6.107 h 9.68 v 7.016 h -9.68 v 5.091 h 10.459 v 7.014 H 144.544 V 0 h 19.206 z m 15.946,25.228 h -8.792 V 0 h 8.792 z m 31.156,-3.984 c -2.824,2.658 -6.841,3.984 -12.03,3.984 H 187.629 V 0 h 10.459 c 5.383,0 9.561,1.459 12.543,4.38 2.965,2.924 4.456,7.083 4.456,12.486 0,5.016 -1.417,8.85 -4.235,11.505 M 204.151,9.483 C 202.919,7.942 200.966,7.17 198.305,7.17 h -1.947 v 18.127 h 2.541 c 2.41,0 4.175,-0.716 5.347,-2.148 1.178,-1.431 1.775,-3.629 1.775,-6.593 0,-3.174 -0.618,-5.53 -1.87,-7.073 M 248.786,0 238.11,32.489 H 226.437 L 215.877,0 h 9.603 l 1.655,6.064 H 237.63 L 239.24,0 Z m -19.847,13.234 c 1.354,5.075 2.21,8.478 2.607,10.205 0.376,1.723 0.656,2.963 0.775,3.715 0.161,-0.811 0.457,-2.153 0.916,-4.025 0.477,-1.873 0.877,-3.4 1.19,-4.581 l 1.396,-5.314 z"
           style="fill:#ffffff;fill-opacity:1;fill-rule:nonzero;stroke:none"
           id="path897" />
      </g>
      <g
         id="g899"
         transform="translate(1937.292,3129.2783)"
         style="fill:#ffffff">
        <path
           d="m 0,0 v -9.899 c 0,-2.534 -1.207,-3.804 -3.623,-3.804 -1.243,0 -2.165,0.309 -2.767,0.924 -0.6,0.614 -0.901,1.569 -0.901,2.862 V 0 h -2.57 v -10.1 c 0,-1.803 0.536,-3.215 1.616,-4.243 1.079,-1.032 2.591,-1.547 4.536,-1.547 1.309,0 2.431,0.236 3.373,0.702 0.939,0.472 1.658,1.139 2.154,2.007 0.498,0.868 0.745,1.881 0.745,3.037 L 2.563,0 Z m 16.644,-7.945 c 0,2.895 -1.422,4.342 -4.266,4.342 -0.803,0 -1.531,-0.154 -2.188,-0.463 C 9.532,-4.371 9.026,-4.808 8.667,-5.37 H 8.539 L 8.184,-3.818 H 6.212 V -15.674 H 8.73 v 5.906 c 0,1.479 0.248,2.537 0.743,3.163 0.492,0.629 1.269,0.944 2.334,0.944 0.802,0 1.388,-0.225 1.755,-0.676 0.369,-0.452 0.551,-1.133 0.551,-2.045 v -7.292 h 2.531 z m 5.914,4.127 h -2.519 v -11.856 h 2.519 z m -2.299,2.126 c 0.247,-0.242 0.599,-0.37 1.055,-0.37 0.446,0 0.788,0.128 1.035,0.37 0.248,0.247 0.371,0.585 0.371,1.016 0,0.449 -0.123,0.798 -0.371,1.04 -0.247,0.242 -0.589,0.364 -1.035,0.364 -0.456,0 -0.808,-0.122 -1.055,-0.364 -0.244,-0.242 -0.369,-0.591 -0.369,-1.04 0,-0.431 0.125,-0.769 0.369,-1.016 m 11.533,-13.982 4.524,11.856 h -2.678 l -2.413,-6.891 c -0.438,-1.36 -0.686,-2.298 -0.751,-2.81 h -0.088 c -0.083,0.713 -0.333,1.651 -0.748,2.81 l -2.412,6.891 h -2.66 l 4.503,-11.856 z m 13.491,-0.032 c 0.629,0.122 1.249,0.326 1.867,0.623 v 2.044 c -0.694,-0.305 -1.341,-0.527 -1.947,-0.658 -0.603,-0.131 -1.255,-0.198 -1.957,-0.198 -1.065,0 -1.89,0.312 -2.474,0.929 -0.588,0.618 -0.899,1.5 -0.933,2.65 h 7.899 v 1.364 c 0,1.666 -0.454,2.973 -1.36,3.925 -0.907,0.95 -2.145,1.424 -3.71,1.424 -1.688,0 -3.012,-0.553 -3.979,-1.659 -0.962,-1.11 -1.445,-2.631 -1.445,-4.57 0,-1.884 0.521,-3.367 1.559,-4.444 1.041,-1.072 2.482,-1.614 4.328,-1.614 0.808,0 1.523,0.064 2.152,0.184 m -0.726,9.441 c 0.455,-0.506 0.691,-1.246 0.706,-2.225 h -5.381 c 0.09,0.973 0.379,1.713 0.862,2.22 0.481,0.507 1.125,0.76 1.924,0.76 0.799,0 1.431,-0.253 1.889,-0.755 m 10.06,2.039 c -0.631,-0.413 -1.144,-0.975 -1.538,-1.68 h -0.127 l -0.335,2.088 h -1.971 v -11.856 h 2.521 v 6.197 c 0,1.049 0.312,1.905 0.935,2.56 0.626,0.658 1.444,0.987 2.452,0.987 0.384,0 0.757,-0.043 1.115,-0.128 l 0.245,2.348 c -0.329,0.073 -0.746,0.107 -1.252,0.107 -0.728,0 -1.413,-0.209 -2.045,-0.623 m 13.406,-6.596 c -0.216,0.41 -0.542,0.771 -0.984,1.086 -0.443,0.314 -1.157,0.661 -2.135,1.04 -1.162,0.451 -1.919,0.806 -2.266,1.063 -0.347,0.259 -0.518,0.571 -0.518,0.944 0,0.757 0.661,1.132 1.992,1.132 0.871,0 1.945,-0.262 3.227,-0.792 l 0.815,1.899 c -1.246,0.565 -2.563,0.847 -3.958,0.847 -1.407,0 -2.519,-0.279 -3.34,-0.844 -0.816,-0.559 -1.224,-1.348 -1.224,-2.362 0,-0.845 0.236,-1.529 0.72,-2.056 0.483,-0.533 1.409,-1.06 2.775,-1.588 0.696,-0.273 1.247,-0.515 1.64,-0.73 0.39,-0.213 0.673,-0.42 0.848,-0.621 0.168,-0.201 0.256,-0.451 0.256,-0.751 0,-0.935 -0.775,-1.404 -2.327,-1.404 -1.203,0 -2.499,0.321 -3.891,0.967 v -2.178 c 0.955,-0.478 2.225,-0.72 3.803,-0.72 1.573,0 2.782,0.312 3.627,0.929 0.841,0.618 1.263,1.506 1.263,2.665 0,0.571 -0.107,1.063 -0.323,1.474 m 5.531,7.004 h -2.522 v -11.856 h 2.522 z m -2.301,2.126 c 0.247,-0.242 0.6,-0.37 1.057,-0.37 0.443,0 0.789,0.128 1.034,0.37 0.248,0.247 0.37,0.585 0.37,1.016 0,0.449 -0.122,0.798 -0.37,1.04 -0.245,0.242 -0.591,0.364 -1.034,0.364 -0.457,0 -0.81,-0.122 -1.057,-0.364 -0.248,-0.242 -0.37,-0.591 -0.37,-1.04 0,-0.431 0.122,-0.769 0.37,-1.016 m 9.124,-11.725 c -0.305,0.288 -0.454,0.737 -0.454,1.345 v 6.346 h 3.376 v 1.908 h -3.376 v 2.639 H 78.365 L 77.509,-3.69 75.77,-4.61 v -1.116 h 1.619 v -6.389 c 0,-2.517 1.197,-3.775 3.582,-3.775 0.472,0 0.93,0.044 1.366,0.122 0.443,0.085 0.801,0.187 1.081,0.309 v 1.896 c -0.615,-0.195 -1.229,-0.288 -1.846,-0.288 -0.493,0 -0.892,0.143 -1.195,0.434 m 9.131,-2.257 -0.443,-1.116 c -0.492,-1.406 -1.346,-2.111 -2.56,-2.111 -0.486,0 -0.92,0.041 -1.299,0.128 v -1.992 c 0.533,-0.122 1.075,-0.187 1.634,-0.187 2.149,0 3.684,1.235 4.607,3.699 l 5.071,13.435 h -2.72 c -1.649,-4.768 -2.555,-7.43 -2.723,-7.991 -0.175,-0.56 -0.292,-1.037 -0.356,-1.431 h -0.087 c -0.123,0.842 -0.364,1.745 -0.728,2.7 l -2.412,6.722 h -2.743 z m 22.965,10.417 c -1.002,1.104 -2.362,1.654 -4.08,1.654 -1.789,0 -3.182,-0.538 -4.169,-1.619 -0.984,-1.08 -1.477,-2.58 -1.477,-4.502 0,-1.235 0.227,-2.324 0.683,-3.259 0.46,-0.938 1.113,-1.658 1.966,-2.155 0.85,-0.501 1.828,-0.752 2.934,-0.752 1.775,0 3.159,0.545 4.152,1.631 0.993,1.086 1.491,2.598 1.491,4.535 0,1.872 -0.501,3.36 -1.5,4.467 m -6.421,-1.456 c 0.477,0.702 1.24,1.052 2.302,1.052 2.016,0 3.021,-1.355 3.021,-4.063 0,-2.738 -0.999,-4.107 -3,-4.107 -2.022,0 -3.036,1.369 -3.036,4.107 0,1.307 0.236,2.312 0.713,3.011 m 16.674,2.895 h -2.896 v 0.775 c 0,0.704 0.131,1.238 0.394,1.59 0.259,0.352 0.677,0.533 1.246,0.533 0.57,0 1.16,-0.102 1.784,-0.303 l 0.665,1.91 c -0.862,0.292 -1.733,0.437 -2.616,0.437 -1.354,0 -2.356,-0.338 -3.012,-1.013 -0.662,-0.673 -0.987,-1.713 -0.987,-3.113 v -0.772 l -1.95,-0.775 v -1.177 h 1.95 v -9.948 h 2.526 v 9.948 h 2.896 z m 19.865,-11.856 -5.866,15.738 h -2.786 l -5.866,-15.738 h 2.702 l 1.533,4.351 h 5.997 l 1.56,-4.351 z m -9.529,6.561 1.414,4.086 c 0.373,1.04 0.653,2.004 0.847,2.884 0.069,-0.286 0.2,-0.737 0.394,-1.352 0.184,-0.617 0.336,-1.066 0.441,-1.351 l 1.467,-4.267 z m 21.145,-5.146 c 0.838,1.086 1.261,2.598 1.261,4.535 0,1.936 -0.417,3.442 -1.238,4.514 -0.829,1.072 -1.98,1.607 -3.462,1.607 -1.571,0 -2.747,-0.6 -3.534,-1.799 h -0.128 c -0.182,0.833 -0.301,1.362 -0.355,1.584 h -2.04 v -17.134 h 2.523 v 4.861 c 0,0.213 -0.054,0.819 -0.152,1.82 h 0.152 c 0.826,-1.077 1.992,-1.619 3.495,-1.619 1.479,0 2.64,0.545 3.478,1.631 m -2.028,7.575 c 0.468,-0.684 0.701,-1.689 0.701,-3.017 0,-1.325 -0.233,-2.344 -0.707,-3.058 -0.468,-0.714 -1.142,-1.072 -2.016,-1.072 -1.032,0 -1.781,0.323 -2.24,0.97 -0.459,0.65 -0.683,1.692 -0.683,3.137 v 0.376 c 0,1.287 0.227,2.222 0.689,2.807 0.462,0.585 1.196,0.88 2.195,0.88 0.903,0 1.595,-0.341 2.061,-1.023 m 15.716,-7.575 c 0.835,1.086 1.271,2.598 1.271,4.535 0,1.936 -0.415,3.442 -1.25,4.514 -0.817,1.072 -1.971,1.607 -3.462,1.607 -1.569,0 -2.744,-0.6 -3.537,-1.799 h -0.12 c -0.182,0.833 -0.301,1.362 -0.357,1.584 h -2.028 v -17.134 h 2.505 v 4.861 c 0,0.213 -0.042,0.819 -0.137,1.82 h 0.137 c 0.832,-1.077 2.01,-1.619 3.501,-1.619 1.491,0 2.639,0.545 3.477,1.631 m -2.028,7.575 c 0.475,-0.684 0.713,-1.689 0.713,-3.017 0,-1.325 -0.238,-2.344 -0.713,-3.058 -0.477,-0.714 -1.136,-1.072 -2.01,-1.072 -1.034,0 -1.786,0.323 -2.245,0.97 -0.457,0.65 -0.695,1.692 -0.695,3.137 v 0.376 c 0,1.287 0.238,2.222 0.695,2.807 0.459,0.585 1.196,0.88 2.207,0.88 0.894,0 1.592,-0.341 2.048,-1.023 m 8.765,7.692 h -2.523 v -16.682 h 2.523 z m 6.027,-4.826 h -2.529 v -11.856 h 2.529 z m -2.308,2.126 c 0.26,-0.242 0.6,-0.37 1.053,-0.37 0.459,0 0.799,0.128 1.038,0.37 0.259,0.247 0.379,0.585 0.379,1.016 0,0.449 -0.12,0.798 -0.379,1.04 -0.239,0.242 -0.579,0.364 -1.038,0.364 -0.453,0 -0.793,-0.122 -1.053,-0.364 -0.238,-0.242 -0.358,-0.591 -0.358,-1.04 0,-0.431 0.12,-0.769 0.358,-1.016 m 13.182,-14.014 c 0.635,0.122 1.252,0.326 1.87,0.623 v 2.044 c -0.695,-0.305 -1.354,-0.527 -1.951,-0.658 -0.593,-0.131 -1.252,-0.198 -1.944,-0.198 -1.077,0 -1.888,0.312 -2.484,0.929 -0.582,0.618 -0.895,1.5 -0.94,2.65 h 7.918 v 1.364 c 0,1.666 -0.462,2.973 -1.372,3.925 -0.894,0.95 -2.147,1.424 -3.701,1.424 -1.688,0 -3.021,-0.553 -3.978,-1.659 -0.972,-1.11 -1.45,-2.631 -1.45,-4.57 0,-1.884 0.52,-3.367 1.554,-4.444 1.029,-1.072 2.485,-1.614 4.334,-1.614 0.793,0 1.527,0.064 2.144,0.184 m -0.737,9.441 c 0.463,-0.506 0.701,-1.246 0.719,-2.225 h -5.386 c 0.095,0.973 0.397,1.713 0.874,2.22 0.474,0.507 1.112,0.76 1.926,0.76 0.797,0 1.411,-0.253 1.867,-0.755 m 13.743,-7.857 h 0.119 l 0.435,-1.552 h 1.969 V 1.008 h -2.523 v -4.322 c 0,-0.495 0.056,-1.165 0.176,-2.016 h -0.12 c -0.811,1.151 -2.007,1.727 -3.555,1.727 -1.491,0 -2.669,-0.541 -3.504,-1.625 -0.832,-1.083 -1.252,-2.595 -1.252,-4.54 0,-1.937 0.42,-3.44 1.234,-4.514 0.838,-1.069 1.986,-1.608 3.478,-1.608 1.553,0 2.725,0.591 3.543,1.768 m -4.972,1.305 c -0.459,0.687 -0.698,1.692 -0.698,3.008 0,1.329 0.239,2.351 0.737,3.073 0.48,0.716 1.151,1.075 2.028,1.075 1.055,0 1.81,-0.315 2.287,-0.944 0.498,-0.626 0.737,-1.689 0.737,-3.186 v -0.353 c -0.021,-1.304 -0.26,-2.254 -0.737,-2.833 -0.459,-0.583 -1.213,-0.874 -2.245,-0.874 -0.937,0 -1.632,0.343 -2.109,1.034 m 25.167,3.241 c -0.256,0.524 -0.635,0.99 -1.169,1.407 -0.536,0.413 -1.392,0.859 -2.546,1.34 -1.014,0.422 -1.73,0.76 -2.109,1.016 -0.397,0.256 -0.674,0.533 -0.853,0.821 -0.182,0.289 -0.259,0.638 -0.259,1.046 0,0.594 0.217,1.072 0.638,1.433 0.435,0.361 1.071,0.538 1.888,0.538 1.094,0 2.347,-0.291 3.739,-0.879 l 0.812,2.094 c -1.491,0.656 -2.983,0.984 -4.474,0.984 -1.568,0 -2.821,-0.375 -3.757,-1.124 -0.913,-0.751 -1.39,-1.779 -1.39,-3.087 0,-1.043 0.295,-1.94 0.874,-2.682 0.599,-0.743 1.613,-1.404 3.042,-1.984 1.374,-0.556 2.287,-1.039 2.746,-1.447 0.433,-0.405 0.656,-0.903 0.656,-1.491 0,-0.65 -0.238,-1.168 -0.718,-1.553 -0.499,-0.387 -1.235,-0.579 -2.246,-0.579 -0.698,0 -1.452,0.096 -2.246,0.288 -0.817,0.195 -1.574,0.46 -2.287,0.793 v -2.421 c 1.133,-0.553 2.582,-0.827 4.354,-0.827 1.771,0 3.161,0.396 4.172,1.191 0.996,0.793 1.512,1.887 1.512,3.28 0,0.71 -0.14,1.325 -0.379,1.843 m 9.961,-6.142 c 0.498,0.117 0.975,0.303 1.435,0.568 v 2.199 c -0.993,-0.559 -2.07,-0.836 -3.182,-0.836 -0.996,0 -1.73,0.335 -2.249,1.002 -0.516,0.67 -0.775,1.669 -0.775,2.994 0,2.726 1.034,4.086 3.086,4.086 0.692,0 1.566,-0.204 2.64,-0.621 l 0.757,2.024 c -0.996,0.467 -2.129,0.699 -3.379,0.699 -1.831,0 -3.238,-0.535 -4.217,-1.607 -0.993,-1.072 -1.47,-2.607 -1.47,-4.599 0,-1.96 0.459,-3.463 1.39,-4.508 0.939,-1.052 2.308,-1.573 4.097,-1.573 0.734,0 1.351,0.058 1.867,0.172 m 6.624,11.9 h -2.529 v -11.856 h 2.529 z m -2.308,2.126 c 0.259,-0.242 0.599,-0.37 1.055,-0.37 0.457,0 0.794,0.128 1.035,0.37 0.257,0.247 0.376,0.585 0.376,1.016 0,0.449 -0.119,0.798 -0.376,1.04 -0.241,0.242 -0.578,0.364 -1.035,0.364 -0.456,0 -0.796,-0.122 -1.055,-0.364 -0.239,-0.242 -0.358,-0.591 -0.358,-1.04 0,-0.431 0.119,-0.769 0.358,-1.016 m 13.181,-14.014 c 0.636,0.122 1.253,0.326 1.87,0.623 v 2.044 c -0.695,-0.305 -1.354,-0.527 -1.947,-0.658 -0.597,-0.131 -1.253,-0.198 -1.948,-0.198 -1.076,0 -1.908,0.312 -2.484,0.929 -0.599,0.618 -0.894,1.5 -0.939,2.65 h 7.897 v 1.364 c 0,1.666 -0.442,2.973 -1.354,3.925 -0.913,0.95 -2.144,1.424 -3.719,1.424 -1.667,0 -3,-0.553 -3.975,-1.659 -0.955,-1.11 -1.429,-2.631 -1.429,-4.57 0,-1.884 0.516,-3.367 1.548,-4.444 1.032,-1.072 2.484,-1.614 4.336,-1.614 0.793,0 1.509,0.064 2.144,0.184 m -0.736,9.441 c 0.459,-0.506 0.7,-1.246 0.715,-2.225 h -5.382 c 0.098,0.973 0.375,1.713 0.873,2.22 0.477,0.507 1.113,0.76 1.906,0.76 0.817,0 1.434,-0.253 1.888,-0.755 m 16.522,-1.68 c 0,2.895 -1.408,4.342 -4.253,4.342 -0.817,0 -1.53,-0.154 -2.189,-0.463 -0.656,-0.305 -1.172,-0.742 -1.53,-1.304 h -0.119 l -0.358,1.552 h -1.968 v -11.856 h 2.507 v 5.906 c 0,1.479 0.26,2.537 0.755,3.163 0.477,0.629 1.273,0.944 2.323,0.944 0.8,0 1.396,-0.225 1.751,-0.676 0.382,-0.452 0.561,-1.133 0.561,-2.045 v -7.292 h 2.52 z m 10.142,-7.773 c 0.516,0.117 0.996,0.303 1.453,0.568 v 2.199 c -1.017,-0.559 -2.067,-0.836 -3.182,-0.836 -0.994,0 -1.748,0.335 -2.246,1.002 -0.516,0.67 -0.775,1.669 -0.775,2.994 0,2.726 1.034,4.086 3.077,4.086 0.698,0 1.572,-0.204 2.627,-0.621 l 0.776,2.024 c -1.014,0.467 -2.126,0.699 -3.379,0.699 -1.849,0 -3.263,-0.535 -4.235,-1.607 -0.975,-1.072 -1.452,-2.607 -1.452,-4.599 0,-1.96 0.459,-3.463 1.39,-4.508 0.936,-1.052 2.287,-1.573 4.097,-1.573 0.716,0 1.333,0.058 1.849,0.172 m 11.413,0.012 c 0.636,0.122 1.253,0.326 1.87,0.623 v 2.044 c -0.701,-0.305 -1.354,-0.527 -1.953,-0.658 -0.615,-0.131 -1.25,-0.198 -1.969,-0.198 -1.049,0 -1.887,0.312 -2.463,0.929 -0.593,0.618 -0.894,1.5 -0.933,2.65 h 7.891 v 1.364 c 0,1.666 -0.435,2.973 -1.348,3.925 -0.919,0.95 -2.15,1.424 -3.719,1.424 -1.691,0 -3.006,-0.553 -3.975,-1.659 -0.955,-1.11 -1.453,-2.631 -1.453,-4.57 0,-1.884 0.534,-3.367 1.572,-4.444 1.032,-1.072 2.484,-1.614 4.33,-1.614 0.799,0 1.515,0.064 2.15,0.184 m -0.736,9.441 c 0.456,-0.506 0.695,-1.246 0.715,-2.225 h -5.388 c 0.098,0.973 0.375,1.713 0.873,2.22 0.478,0.507 1.113,0.76 1.912,0.76 0.811,0 1.428,-0.253 1.888,-0.755 m 13.799,-4.557 c -0.203,0.41 -0.537,0.771 -0.975,1.086 -0.46,0.314 -1.152,0.661 -2.148,1.04 -1.154,0.451 -1.911,0.806 -2.269,1.063 -0.334,0.259 -0.516,0.571 -0.516,0.944 0,0.757 0.68,1.132 2.007,1.132 0.856,0 1.93,-0.262 3.221,-0.792 l 0.82,1.899 c -1.253,0.565 -2.568,0.847 -3.961,0.847 -1.407,0 -2.523,-0.279 -3.34,-0.844 -0.811,-0.559 -1.231,-1.348 -1.231,-2.362 0,-0.845 0.238,-1.529 0.733,-2.056 0.478,-0.533 1.393,-1.06 2.765,-1.588 0.695,-0.273 1.256,-0.515 1.634,-0.73 0.397,-0.213 0.671,-0.42 0.85,-0.621 0.182,-0.201 0.262,-0.451 0.262,-0.751 0,-0.935 -0.778,-1.404 -2.326,-1.404 -1.195,0 -2.505,0.321 -3.901,0.967 v -2.178 c 0.955,-0.478 2.228,-0.72 3.818,-0.72 1.575,0 2.764,0.312 3.62,0.929 0.835,0.618 1.274,1.506 1.274,2.665 0,0.571 -0.12,1.063 -0.337,1.474"
           style="fill:#ffffff;fill-opacity:1;fill-rule:nonzero;stroke:none"
           id="path901" />
      </g>
    </g>
  </g>
</svg>
