<?xml version="1.0" encoding="UTF-8" standalone="no"?>
<svg width="200" height="74" viewBox="0 0 200 74" fill="none" version="1.1" id="svg72" xmlns="http://www.w3.org/2000/svg" xmlns:svg="http://www.w3.org/2000/svg">
  <defs id="defs72"/>
  <path d="m 82.3,57.0611 h -2 v -1.2 h 3.5 v 6.6 c 0,1.7 0.3,3.2 2.4,3.2 2.5,0 4.1,-2.3 4.1,-4.6 v -4 h -2 v -1.2 h 3.5 v 9.3 c 0,0.3 0.2,0.5 0.5,0.5 h 1.3 v 1.2 h -1.9 c -0.9,0 -1.3,-0.4 -1.3,-1.2 v -0.5 c 0,-0.4 0,-0.8 0,-0.8 -0.3,0.8 -1.7,2.8 -4.4,2.8 -2.6,0 -3.6,-1.4 -3.6,-4.2 v -5.9 z" fill="white" id="path23" style="fill:#ffffff"/>
  <path d="M 95.2999,65.5613 H 97.2 v -8 c 0,-0.3 -0.2,-0.5 -0.5,-0.5 h -1.5 v -1.2 h 2.0999 c 0.9,0 1.3001,0.4 1.3001,1.2 v 0.6 c 0,0.4 -0.1,0.8 -0.1,0.8 0.3,-0.8 1.7,-2.9 4.5,-2.9 2.7,0 3.7,1.5 3.7,4.2 v 5.7 h 1.9 v 1.2 h -3.4 v -6.6 c 0,-1.7 -0.3,-3.2 -2.4,-3.2 -2.5,0 -4.2,2.1 -4.2,4.5 v 4 h 1.9 v 1.2 h -5.3 v -1 z" fill="white" id="path24" style="fill:#ffffff"/>
  <path d="m 110.2,65.5613 h 1.9 v -8.5 h -2 v -1.2 h 3.5 v 9.7 h 1.9 v 1.2 h -5.3 z m 1.8,-14 h 1.7 v 1.8 H 112 Z" fill="white" id="path25" style="fill:#ffffff"/>
  <path d="m 116.2,55.8611 h 4.6 v 1.2 h -1.6 l 2.8,7.3 c 0.2,0.4 0.2,0.8 0.2,0.8 h 0.1 c 0,0 0.1,-0.5 0.2,-0.8 l 2.8,-7.3 h -1.6 v -1.2 h 4.6 v 1.2 h -1.5 l -3.8,9.7 h -1.6 l -3.8,-9.7 h -1.5 v -1.2 z" fill="white" id="path26" style="fill:#ffffff"/>
  <path d="m 134.9,55.5613 c 3.1,0 4.7,2.3 4.7,5 0,0.3 -0.1,0.7 -0.1,0.7 H 131 c 0.1,2.8 2,4.4 4.3,4.4 2,0 3.4,-1.3 3.4,-1.3 l 0.7,1.1 c 0,0 -1.6,1.5 -4.1,1.5 -3.3,0 -5.8,-2.3 -5.8,-5.7 -0.1,-3.5 2.4,-5.7 5.4,-5.7 z m 3.1,4.7 c -0.1,-2.3 -1.5,-3.4 -3.1,-3.4 -1.9,0 -3.5,1.2 -3.8,3.4 z" fill="white" id="path27" style="fill:#ffffff"/>
  <path d="m 141.7,65.5611 h 1.7 v -8 c 0,-0.3 -0.2,-0.5 -0.5,-0.5 h -1.5 v -1.2 h 2.1 c 0.9,0 1.3,0.4 1.3,1.2 v 0.7 c 0,0.5 0,0.8 0,0.8 0.6,-1.7 1.8,-2.9 3.5,-2.9 0.3,0 0.6,0.1 0.6,0.1 v 1.5 c 0,0 -0.3,0 -0.6,0 -2.5,0 -3.5,2.8 -3.5,4.9 v 3.4 h 1.7 v 1.2 h -5 v -1.2 z" fill="white" id="path28" style="fill:#ffffff"/>
  <path d="m 150.4,63.4611 h 1.4 v 0.8 c 0,1.1 1.6,1.6 2.9,1.6 1.4,0 2.6,-0.6 2.6,-1.7 0,-1.3 -1.4,-1.7 -3,-2.3 -1.7,-0.6 -3.4,-1.3 -3.4,-3.3 0,-2 2,-2.9 3.8,-2.9 1.5,0 3.7,0.6 3.7,2.1 v 1.3 H 157 v -0.8 c 0,-0.8 -1.1,-1.3 -2.3,-1.3 -1.2,0 -2.3,0.5 -2.3,1.6 0,1.2 1.3,1.7 2.8,2.2 1.7,0.6 3.6,1.3 3.6,3.3 0,1.9 -1.7,3.1 -4.2,3.1 -2.1,0 -4.2,-0.9 -4.2,-2.6 z" fill="white" id="path29" style="fill:#ffffff"/>
  <path d="m 160.8,65.5613 h 1.9 v -8.5 h -2 v -1.2 h 3.5 v 9.7 h 1.9 v 1.2 h -5.3 z m 1.8,-14 h 1.7 v 1.8 h -1.7 z" fill="white" id="path30" style="fill:#ffffff"/>
  <path d="m 169,57.0611 h -2 v -1.2 h 2 v -3 h 1.5 v 3 h 2.8 v 1.2 h -2.8 v 5.6 c 0,2.6 1.7,2.9 2.5,2.9 0.3,0 0.5,0 0.5,0 v 1.3 c 0,0 -0.3,0 -0.6,0 -1.3,0 -3.9,-0.4 -3.9,-4.1 z" fill="white" id="path31" style="fill:#ffffff"/>
  <path d="m 180.7,55.5613 c 3.1,0 4.7,2.3 4.7,5 0,0.3 -0.1,0.7 -0.1,0.7 h -8.6 c 0.1,2.8 2,4.4 4.3,4.4 2,0 3.4,-1.3 3.4,-1.3 l 0.7,1.1 c 0,0 -1.6,1.5 -4.1,1.5 -3.3,0 -5.8,-2.3 -5.8,-5.7 0,-3.5 2.4,-5.7 5.5,-5.7 z m 3,4.7 c -0.1,-2.3 -1.5,-3.4 -3.1,-3.4 -1.9,0 -3.5,1.2 -3.8,3.4 z" fill="white" id="path32" style="fill:#ffffff"/>
  <path d="m 188.7,57.0611 h -2 v -1.2 h 2 v -3 h 1.5 v 3 h 2.8 v 1.2 h -2.8 v 5.6 c 0,2.6 1.7,2.9 2.5,2.9 0.3,0 0.5,0 0.5,0 v 1.3 c 0,0 -0.3,0 -0.6,0 -1.3,0 -3.9,-0.4 -3.9,-4.1 z" fill="white" id="path33" style="fill:#ffffff"/>
  <path d="m 92.2,35.0612 c -2,-2.6 -3.8,-5.2 -5.7,-7.9 h -0.1 c 0,2.9 0.1,5.8 0.1,8.8 v 11.3 h -6.4 v -30.3 h 6.3 l 9.1,12.3 c 2,2.6 3.8,5.2 5.7,7.9 h 0.1 c 0,-2.9 -0.1,-5.8 -0.1,-8.8 v -11.4 h 6.4 v 30.4 h -6.3 z" fill="white" id="path34" style="fill:#ffffff"/>
  <path d="m 110.9,32.1612 c 0,-8.9 6.8,-15.7 15.9,-15.7 9,0 15.9,6.8 15.9,15.7 0,8.9 -6.8,15.7 -15.9,15.7 -9.1,0 -15.9,-6.9 -15.9,-15.7 z m 25.1,0 c 0,-5.4 -3.9,-9.6 -9.2,-9.6 -5.2,0 -9.2,4.2 -9.2,9.6 0,5.4 3.9,9.6 9.2,9.6 5.2,0 9.2,-4.2 9.2,-9.6 z" fill="white" id="path35" style="fill:#ffffff"/>
  <path d="m 145.9,16.9612 h 9.5 c 3.6,0 7,0.5 9.4,2 2.2,1.4 3.7,3.7 3.7,7.1 0,3.9 -2.1,7.1 -6.2,8.4 l 8.6,12.8 h -7.7 l -7.7,-12 h -3 v 12 h -6.7 v -30.3 z m 10.1,13.4 c 1.8,0 3.2,-0.2 4.2,-0.7 1.1,-0.6 1.7,-1.6 1.7,-3.1 0,-1.4 -0.5,-2.4 -1.7,-3 -1.1,-0.5 -2.7,-0.8 -5,-0.8 h -2.6 v 7.6 z" fill="white" id="path36" style="fill:#ffffff"/>
  <path d="m 172.4,16.9612 h 8.5 c 5.4,0 9.6,0.9 12.8,3.1 3.7,2.6 5.8,6.9 5.8,12.1 0,4.8 -1.8,8.9 -5,11.5 -3.1,2.5 -7.5,3.7 -13.9,3.7 h -8.2 z m 8.5,24.6 c 4.3,0 7.1,-0.8 9,-2.4 1.8,-1.6 2.9,-4 2.9,-7 0,-3.2 -1.3,-5.9 -3.5,-7.5 -2.1,-1.5 -5,-1.8 -8.4,-1.8 h -1.8 v 18.7 z" fill="white" id="path37" style="fill:#ffffff"/>
  <path d="M 12.9,14.1611 0,34.7611 c 0.1,0.9 0.0999999,1.8 0.3,2.7 l 48.5,5.9 z" fill="white" id="path60" style="fill:#ffffff"/>
  <path d="m 65.3,27.6611 c -0.5,-3.1 -1.5,-6.2 -2.8,-9 l -6.8,0.6 -3.4,22.9 z" fill="white" id="path61" style="fill:#ffffff"/>
  <path d="m 50.8,42.2611 3.5,-23.7 -5.4,-14.29997 c -3,-1.7 -6.3,-2.9 -9.6,-3.599997 L 32.5,11.9611 Z" fill="white" id="path62" style="fill:#ffffff"/>
  <path d="m 0,32.0612 11.9,-19.2 -1,-4.40002 C 4.2,14.4612 0.2,23.0612 0,32.0612 Z" fill="white" id="path63" style="fill:#ffffff"/>
  <path d="M 48.4,41.1612 31.1,12.4612 18.7,3.26123 c -2.3,1.1 -4.5,2.5 -6.5,4.1 l 1.2,5.19997 z" fill="white" id="path64" style="fill:#ffffff"/>
  <path d="M 20.2,2.56115 31.4,10.8612 37.7,0.361152 c -6,-0.9 -12,-0.1 -17.5,2.199998 z" fill="white" id="path65" style="fill:#ffffff"/>
  <path d="m 0.5,38.9612 c 0.7,4 2.2,7.7 4.3,11.1 l 40.7,-5.6 z" fill="white" id="path66" style="fill:#ffffff"/>
  <path d="m 5.70001,51.4611 c 3.3,4.8 7.79999,8.7 13.09999,11.2 l 38.2,-7.4 c 2,-2.1 3.6,-4.5 5,-7.1 l -10.8,-3 z" fill="white" id="path67" style="fill:#ffffff"/>
  <path d="m 62.7,46.8612 c 0.3,-0.6 0.6,-1.3 0.8,-1.9 l -7.1,0.1 z" fill="white" id="path68" style="fill:#ffffff"/>
  <path d="m 64,43.4611 c 0.3,-0.9 0.5,-1.7 0.8,-2.6 l -8.5,2.8 z" fill="white" id="path69" style="fill:#ffffff"/>
  <path d="m 53.7,42.8611 11.5,-3.7 c 0.4,-2.1 0.6,-4.1 0.6,-6.2 0,-1.1 -0.1,-2.2 -0.2,-3.3 z" fill="white" id="path70" style="fill:#ffffff"/>
  <path d="m 46.1,63.0611 c 3.3,-1.5 6.3,-3.4 9,-5.9 l -29.1,5.7 z" fill="white" id="path71" style="fill:#ffffff"/>
  <path d="m 22.8,64.2612 c 6.2,2 13,2.1 19.3,0.2 z" fill="white" id="path72" style="fill:#ffffff"/>
</svg>