<?xml version="1.0" encoding="UTF-8"?>
<svg xmlns="http://www.w3.org/2000/svg" viewBox="0 0 755.211 316.8271">
  <g id="Boundingbox">
    <rect width="755.211" height="316.8271" fill="none" stroke-width="0"/>
  </g>
  <g id="Logo">
    <path d="m601.2526,198.5536c0-4.0067,1.6476-6.4032,4.7556-6.4032,3.0705,0,4.7556,2.3965,4.7556,6.4032s-1.6851,6.4032-4.7556,6.4032c-3.108,0-4.7556-2.3965-4.7556-6.4032m4.9802,18.2735c4.7181,0,9.998-2.0221,9.998-8.1632v-19.9585h-5.6918v4.4935c-.8987-2.6586-3.1454-4.9428-6.7402-4.9428-4.9802,0-8.3878,4.1939-8.3878,10.2976s3.3701,10.2976,8.3878,10.2976c3.1454,0,5.6168-1.8723,6.7402-4.4186v4.3437c0,2.8459-1.8723,4.1565-4.3063,4.1565-2.0221,0-3.7071-.9361-4.119-2.8459h-5.7666c.5617,4.6807,5.0926,6.7402,9.8857,6.7402m-24.7141-7.7887h5.7292v-10.5222c0-3.445,1.7225-4.6433,5.2798-4.6433h1.4604v-5.6169c-3.9318,0-5.9913,2.5838-6.7777,5.7666v-5.3173h-5.6918v20.333Zm-16.5135.4493c3.5573,0,5.4671-2.0221,6.4032-4.456v4.0067h5.6543v-20.333h-5.7292v11.5707c0,3.4824-1.2357,5.2049-3.6323,5.2049-2.359,0-3.6696-1.6102-3.6696-5.1301v-11.6456h-5.7292v12.8813c0,4.4935,1.9846,7.901,6.7028,7.901m-25.2758-10.5971c0-4.1565,1.6476-6.7402,4.7556-6.7402s4.7556,2.5837,4.7556,6.7402c0,4.119-1.6476,6.7028-4.7556,6.7028s-4.7556-2.5838-4.7556-6.7028m6.9649,10.5971c5.0177,0,8.3878-4.4935,8.3878-10.5971s-3.3701-10.6346-8.3878-10.6346c-3.5573,0-5.8415,2.3591-6.7402,5.0177v-12.6941h-5.6917v28.4587h5.6917v-4.0816c1.0859,2.6212,3.5948,4.5309,6.7402,4.5309m-25.2384,0c5.4296,0,9.5486-2.3216,9.5486-6.4781,0-3.2952-2.022-5.1301-6.2908-6.0662l-3.5948-.7864c-2.097-.4493-3.2578-.8987-3.2578-2.0595,0-1.2732,1.5727-1.9472,3.4075-1.9472,1.6476,0,3.108.674,3.5573,1.9472h5.7666c-.8987-3.9318-4.7556-5.8415-9.3614-5.8415-4.8679,0-8.8372,2.434-8.8372,6.2909,0,3.0331,2.0969,4.8305,5.9539,5.6543l3.5948.7864c2.771.6366,3.5948,1.2357,3.5948,2.4714,0,1.3106-1.348,2.1344-3.8569,2.1344-1.7974,0-3.5199-.6366-3.9318-2.6961h-5.7666c.7115,4.456,4.456,6.5904,9.4737,6.5904m-27.5226-10.9341c0-4.0067,1.6476-6.4032,4.7556-6.4032,3.0705,0,4.7556,2.3965,4.7556,6.4032s-1.6851,6.4032-4.7556,6.4032c-3.108,0-4.7556-2.3965-4.7556-6.4032m4.9803,18.2735c4.7181,0,9.998-2.0221,9.998-8.1632v-19.9585h-5.6917v4.4935c-.8987-2.6586-3.1454-4.9428-6.7402-4.9428-4.9803,0-8.3878,4.1939-8.3878,10.2976s3.3701,10.2976,8.3878,10.2976c3.1454,0,5.6168-1.8723,6.7402-4.4186v4.3437c0,2.8459-1.8723,4.1565-4.3063,4.1565-2.0221,0-3.7071-.9361-4.119-2.8459h-5.7666c.5617,4.6807,5.0926,6.7402,9.8857,6.7402m-26.3992-7.3393c3.5573,0,5.4671-2.0221,6.4032-4.456v4.0067h5.6543v-20.333h-5.7292v11.5707c0,3.4824-1.2357,5.2049-3.6322,5.2049-2.3591,0-3.6697-1.6102-3.6697-5.1301v-11.6456h-5.7292v12.8813c0,4.4935,1.9846,7.901,6.7028,7.901m-27.897-13.0685l4.6433-14.6413,4.6432,14.6413h-9.2865Zm-10.2227,12.6192h6.216l2.434-7.6764h12.432l2.434,7.6764h6.216l-9.4363-28.4587h-10.8592l-9.4363,28.4587Z" fill="#fff" stroke-width="0"/>
    <path d="m640.4949,156.4665c.4868-3.1829,2.1719-4.6058,4.456-4.6058,2.3965,0,4.119,1.7225,4.4186,4.6058h-8.8746Zm4.456,12.7315c4.8679,0,8.4627-2.1718,9.8107-6.4781h-5.7666c-.7115,1.6476-1.7974,2.5838-4.0067,2.5838-2.359,0-4.119-1.6102-4.5309-5.0177h14.6412c.0749-.5617.1123-1.1234.1123-1.6102,0-6.4032-3.9692-10.7095-10.2601-10.7095-6.1785,0-10.335,4.3437-10.335,10.5971s4.0067,10.6346,10.335,10.6346m-19.4343-.4493h5.7292v-28.4587h-5.7292v28.4587Zm-16.5135.4493c3.5573,0,5.4671-2.0221,6.4032-4.456v4.0067h5.6543v-20.333h-5.7292v11.5707c0,3.4824-1.2357,5.2049-3.6323,5.2049-2.359,0-3.6696-1.6102-3.6696-5.1301v-11.6456h-5.7292v12.8813c0,4.4935,1.9846,7.901,6.7028,7.901m-29.6944-.4493h5.7292v-11.5707c0-3.5948,1.3855-5.205,3.7446-5.205,2.3965,0,3.7446,1.6102,3.7446,5.1301v11.6456h5.7292v-12.8813c0-4.4935-2.0221-7.901-6.7777-7.901-3.5573,0-5.5419,2.0595-6.4781,4.6058v-12.2822h-5.6918v28.4587Zm-13.0685.4493c5.0926,0,9.1367-2.6961,10.1103-7.6764h-5.7666c-.6366,2.3591-1.9846,3.782-4.3437,3.782-2.9582,0-4.6807-2.4714-4.6807-6.7402,0-4.119,1.6476-6.7028,4.6807-6.7028,2.359,0,3.6696,1.7225,4.1565,3.8569h5.7666c-.8613-4.7556-4.5684-7.7513-9.9231-7.7513-6.216,0-10.5223,4.2314-10.5223,10.5971,0,6.4032,4.2314,10.6346,10.5223,10.6346m-22.5798,0c5.4296,0,9.5486-2.3216,9.5486-6.4781,0-3.2952-2.0221-5.1301-6.2909-6.0662l-3.5948-.7864c-2.0969-.4494-3.2578-.8987-3.2578-2.0595,0-1.2732,1.5727-1.9472,3.4075-1.9472,1.6476,0,3.108.674,3.5573,1.9472h5.7666c-.8987-3.9318-4.7556-5.8415-9.3614-5.8415-4.8679,0-8.8372,2.434-8.8372,6.2909,0,3.0331,2.0969,4.8305,5.9538,5.6543l3.5948.7864c2.7709.6366,3.5948,1.2357,3.5948,2.4714,0,1.3106-1.348,2.1344-3.8569,2.1344-1.7974,0-3.5199-.6366-3.9318-2.6961h-5.7666c.7115,4.456,4.456,6.5904,9.4738,6.5904m-31.3795-.4493h5.7292v-11.5707c0-3.5948,1.3855-5.205,3.7446-5.205,2.3973,0,3.7446,1.6102,3.7446,5.1301v11.6456h5.7299v-12.8813c0-4.4935-2.0221-7.901-6.7784-7.901-3.5573,0-5.5412,2.0595-6.4773,4.6058v-12.2822h-5.6925v28.4587Zm-13.0678.4493c5.0926,0,9.1368-2.6961,10.1103-7.6764h-5.7666c-.6366,2.3591-1.9846,3.782-4.3437,3.782-2.9582,0-4.6807-2.4714-4.6807-6.7402,0-4.119,1.6476-6.7028,4.6807-6.7028,2.3591,0,3.6697,1.7225,4.1565,3.8569h5.7666c-.8613-4.7556-4.5684-7.7513-9.9231-7.7513-6.216,0-10.5222,4.2314-10.5222,10.5971,0,6.4032,4.2313,10.6346,10.5222,10.6346m-28.5703-10.5971c0-4.1565,1.6476-6.7402,4.7556-6.7402s4.7556,2.5838,4.7556,6.7402c0,4.119-1.6476,6.7028-4.7556,6.7028s-4.7556-2.5838-4.7556-6.7028m4.7556,10.5971c6.5156,0,10.5971-4.3811,10.5971-10.5971,0-6.2534-4.0816-10.6346-10.5971-10.6346s-10.5971,4.3811-10.5971,10.6346c0,6.216,4.0816,10.5971,10.5971,10.5971m-20.0716-.4493h5.9164v-28.4587h-5.9164v11.2337h-12.02v-11.2337h-5.9164v28.4587h5.9164v-11.9077h12.02v11.9077Z" fill="#fff" stroke-width="0"/>
    <path d="m631.0204,116.1769c.4868-3.1829,2.1719-4.6058,4.456-4.6058,2.3965,0,4.119,1.7225,4.4186,4.6058h-8.8746Zm4.456,12.7315c4.8679,0,8.4627-2.1718,9.8107-6.4781h-5.7666c-.7115,1.6476-1.7974,2.5838-4.0067,2.5838-2.359,0-4.119-1.6102-4.5309-5.0177h14.6412c.0749-.5617.1123-1.1234.1123-1.6102,0-6.4032-3.9692-10.7095-10.2601-10.7095-6.1785,0-10.335,4.3437-10.335,10.5971s4.0067,10.6346,10.335,10.6346m-32.4279-.4493h5.7292v-11.5707c0-3.5948,1.3855-5.2049,3.7446-5.2049,2.3965,0,3.7446,1.6102,3.7446,5.13v11.6456h5.7292v-12.8813c0-4.4935-2.0221-7.901-6.7777-7.901-3.5573,0-5.542,2.0595-6.4781,4.6058v-12.2822h-5.6917v28.4587Zm-13.0678.4493c5.0926,0,9.1368-2.6961,10.1103-7.6764h-5.7666c-.6366,2.3591-1.9846,3.782-4.3437,3.782-2.9582,0-4.6807-2.4714-4.6807-6.7402,0-4.119,1.6476-6.7028,4.6807-6.7028,2.3591,0,3.6697,1.7225,4.1565,3.8569h5.7666c-.8612-4.7556-4.5684-7.7513-9.9231-7.7513-6.216,0-10.5222,4.2314-10.5222,10.5971,0,6.4032,4.2314,10.6346,10.5222,10.6346m-22.5797,0c5.4296,0,9.5486-2.3216,9.5486-6.4781,0-3.2952-2.0221-5.13-6.2909-6.0662l-3.5948-.7864c-2.0969-.4494-3.2578-.8987-3.2578-2.0595,0-1.2732,1.5727-1.9472,3.4075-1.9472,1.6476,0,3.108.674,3.5573,1.9472h5.7666c-.8987-3.9318-4.7556-5.8415-9.3614-5.8415-4.8679,0-8.8372,2.434-8.8372,6.2909,0,3.0331,2.097,4.8305,5.9539,5.6543l3.5948.7864c2.771.6366,3.5948,1.2357,3.5948,2.4714,0,1.3106-1.3481,2.1344-3.8569,2.1344-1.7974,0-3.5199-.6366-3.9318-2.6961h-5.7666c.7115,4.456,4.456,6.5904,9.4738,6.5904m-18.4607-23.5159h5.9164v-5.3922h-5.9164v5.3922Zm.0749,23.0665h5.7292v-20.333h-5.7292v20.333Zm-23.1789,0h5.7292v-11.5707c0-3.5948,1.3855-5.2049,3.7446-5.2049,2.3965,0,3.7446,1.6102,3.7446,5.13v11.6456h5.7292v-12.8813c0-4.4935-2.0221-7.901-6.7777-7.901-3.5573,0-5.542,2.0595-6.4781,4.6058v-4.1565h-5.6917v20.333Zm-23.1789,0h5.7292v-11.5707c0-3.5948,1.3855-5.2049,3.7446-5.2049,2.3965,0,3.7446,1.6102,3.7446,5.13v11.6456h5.7292v-12.8813c0-4.4935-2.0221-7.901-6.7777-7.901-3.5573,0-5.542,2.0595-6.4781,4.6058v-12.2822h-5.6917v28.4587Zm-13.0678.4493c5.0926,0,9.1367-2.6961,10.1103-7.6764h-5.7666c-.6366,2.3591-1.9846,3.782-4.3437,3.782-2.9582,0-4.6807-2.4714-4.6807-6.7402,0-4.119,1.6476-6.7028,4.6807-6.7028,2.359,0,3.6696,1.7225,4.1565,3.8569h5.7666c-.8613-4.7556-4.5684-7.7513-9.9231-7.7513-6.216,0-10.5222,4.2314-10.5222,10.5971,0,6.4032,4.2314,10.6346,10.5222,10.6346m-27.8596-12.7315c.4868-3.1829,2.1719-4.6058,4.456-4.6058,2.3965,0,4.119,1.7225,4.4186,4.6058h-8.8746Zm4.456,12.7315c4.8679,0,8.4627-2.1718,9.8108-6.4781h-5.7666c-.7115,1.6476-1.7974,2.5838-4.0067,2.5838-2.3591,0-4.119-1.6102-4.5309-5.0177h14.6412c.0749-.5617.1124-1.1234.1124-1.6102,0-6.4032-3.9693-10.7095-10.2601-10.7095-6.1785,0-10.335,4.3437-10.335,10.5971s4.0067,10.6346,10.335,10.6346m-22.2802-.4493h5.9164v-23.5159h8.8372v-4.9428h-23.5908v4.9428h8.8372v23.5159Z" fill="#fff" stroke-width="0"/>
    <path d="m355.3802,169.1536h21.6639v37.4459l-21.6639-37.4459Zm-63.1278-21.5209v-44.6198l25.8249,44.6198h-25.8249Zm-94.6917,61.406h22.9558v-39.8851h40.4588v-21.5209h-40.4588v-47.6327h-22.9558v109.0387Zm-64.5619,0h22.9551v-87.5178h32.9988v-21.5209h-88.9527v21.5209h32.9988v87.5178Zm242.4674,0h24.5338v-6.0258c0-28.2642-17.0731-55.3802-49.9281-55.3802h-7.0301l-17.6475-30.4158c-6.7433-11.6217-16.3556-17.2169-31.8507-17.2169h-24.247v109.0387h22.9558v-39.8851h38.3071l13.0559,22.6682c6.7433,11.6217,16.3556,17.2169,31.8507,17.2169" fill="#fff" stroke-width="0"/>
  </g>
</svg>