<?xml version="1.0" encoding="UTF-8" standalone="no"?>
<svg
   xmlns:dc="http://purl.org/dc/elements/1.1/"
   xmlns:cc="http://creativecommons.org/ns#"
   xmlns:rdf="http://www.w3.org/1999/02/22-rdf-syntax-ns#"
   xmlns:svg="http://www.w3.org/2000/svg"
   xmlns="http://www.w3.org/2000/svg"
   viewBox="0 0 158.74001 90.708664"
   height="90.708664"
   width="158.74001"
   xml:space="preserve"
   id="svg2"
   version="1.1"><metadata
     id="metadata8"><rdf:RDF><cc:Work
         rdf:about=""><dc:format>image/svg+xml</dc:format><dc:type
           rdf:resource="http://purl.org/dc/dcmitype/StillImage" /></cc:Work></rdf:RDF></metadata><defs
     id="defs6"><clipPath
       id="clipPath34"
       clipPathUnits="userSpaceOnUse"><path
         id="path32"
         d="M 0,68.031 H 119.055 V 0 H 0 Z" /></clipPath></defs><g
     transform="matrix(1.3333333,0,0,-1.3333333,0,90.708667)"
     id="g10"><g
       transform="translate(22.0015,50.0923)"
       id="g12"><path
         id="path14"
         style="fill:#FFFFFF;fill-opacity:1;fill-rule:nonzero;stroke:none"
         d="M 0,0 H 1.852 V -20.746 H -18.893 V 0 Z" /></g><path
       id="path16"
       style="fill:#FFFFFF;fill-opacity:1;fill-rule:nonzero;stroke:none"
       d="M 46.674,29.347 H 25.928 v 20.746 h 20.746 z" /><path
       id="path18"
       style="fill:#FFFFFF;fill-opacity:1;fill-rule:nonzero;stroke:none"
       d="M 69.493,29.347 H 48.749 v 20.746 h 20.744 z" /><path
       id="path20"
       style="fill:#FFFFFF;fill-opacity:1;fill-rule:nonzero;stroke:none"
       d="M 34.228,18.974 H 13.481 V 39.72 h 20.747 z" /><path
       id="path22"
       style="fill:#FFFFFF;fill-opacity:1;fill-rule:nonzero;stroke:none"
       d="M 59.12,39.719 H 38.376 V 60.465 H 59.12 Z" /><g
       transform="translate(78.2119,46.7646)"
       id="g24"><path
         id="path26"
         style="fill:#FFFFFF;fill-opacity:1;fill-rule:nonzero;stroke:none"
         d="m 0,0 h -6.642 v 3.319 h 17.12 V 0 H 3.837 V -17.374 H 0 Z" /></g><g
       id="g28"><g
         clip-path="url(#clipPath34)"
         id="g30"><g
           transform="translate(107.9365,36.9941)"
           id="g36"><path
             id="path38"
             style="fill:#FFFFFF;fill-opacity:1;fill-rule:nonzero;stroke:none"
             d="m 0,0 c 0,-1.246 -0.224,-2.371 -0.672,-3.375 -0.448,-1.003 -1.059,-1.855 -1.835,-2.556 -0.775,-0.703 -1.69,-1.242 -2.751,-1.621 -1.059,-0.381 -2.211,-0.57 -3.455,-0.57 -1.242,0 -2.393,0.189 -3.454,0.57 -1.061,0.379 -1.983,0.918 -2.767,1.621 -0.785,0.701 -1.397,1.553 -1.834,2.556 -0.439,1.004 -0.657,2.129 -0.657,3.375 v 13.09 h 3.838 V 0.132 c 0,-0.505 0.08,-1.036 0.244,-1.59 0.163,-0.555 0.434,-1.066 0.813,-1.533 0.378,-0.467 0.879,-0.851 1.503,-1.153 0.622,-0.3 1.393,-0.452 2.314,-0.452 0.92,0 1.692,0.152 2.316,0.452 0.623,0.302 1.125,0.686 1.502,1.153 0.378,0.467 0.649,0.978 0.813,1.533 0.163,0.554 0.245,1.085 0.245,1.59 V 13.09 H 0 Z" /></g><g
           transform="translate(86.3652,26.54)"
           id="g40"><path
             id="path42"
             style="fill:#FFFFFF;fill-opacity:1;fill-rule:nonzero;stroke:none"
             d="m 0,0 c -0.761,0.328 -1.746,0.485 -2.534,0.485 -2.293,0 -3.561,-1.442 -3.561,-3.317 0,-1.861 1.24,-3.264 3.335,-3.264 0.535,0 0.959,0.053 1.296,0.131 v 2.386 h -2.083 v 1.442 h 3.969 v -4.929 c -1.041,-0.262 -2.126,-0.472 -3.182,-0.472 -3.18,0 -5.39,1.481 -5.39,4.575 0,3.134 2.055,4.891 5.39,4.891 1.141,0 2.041,-0.145 2.886,-0.381 z" /></g><g
           transform="translate(88.7285,25.9111)"
           id="g44"><path
             id="path46"
             style="fill:#FFFFFF;fill-opacity:1;fill-rule:nonzero;stroke:none"
             d="m 0,0 h 1.676 v -1.534 h 0.028 c 0.084,0.63 0.858,1.691 1.984,1.691 0.183,0 0.381,0 0.577,-0.053 v -1.77 c -0.168,0.092 -0.506,0.145 -0.845,0.145 -1.533,0 -1.533,-1.784 -1.533,-2.752 V -6.752 H 0 Z" /></g><g
           transform="translate(96.6953,20.2861)"
           id="g48"><path
             id="path50"
             style="fill:#FFFFFF;fill-opacity:1;fill-rule:nonzero;stroke:none"
             d="m 0,0 c 0.577,0 1.027,0.236 1.322,0.604 0.31,0.379 0.395,0.865 0.395,1.389 H 0.9 C 0.057,1.993 -1.196,1.862 -1.196,0.826 -1.196,0.25 -0.676,0 0,0 m -2.211,5.271 c 0.732,0.315 1.718,0.511 2.521,0.511 2.209,0 3.124,-0.852 3.124,-2.845 V 2.071 c 0,-0.68 0.014,-1.192 0.028,-1.69 0.015,-0.512 0.042,-0.984 0.085,-1.508 H 1.886 c -0.071,0.354 -0.071,0.8 -0.084,1.01 h -0.03 c -0.435,-0.747 -1.379,-1.167 -2.237,-1.167 -1.28,0 -2.534,0.721 -2.534,2.006 0,1.008 0.52,1.598 1.239,1.926 0.719,0.329 1.647,0.394 2.436,0.394 h 1.041 c 0,1.088 -0.521,1.455 -1.633,1.455 -0.802,0 -1.605,-0.288 -2.237,-0.733 z" /></g><g
           transform="translate(101.6777,25.9111)"
           id="g52"><path
             id="path54"
             style="fill:#FFFFFF;fill-opacity:1;fill-rule:nonzero;stroke:none"
             d="M 0,0 H 5.742 V -1.442 L 2.138,-5.389 h 3.731 v -1.363 h -6.024 v 1.43 l 3.673,3.959 -3.518,0 z" /></g><path
           id="path56"
           style="fill:#FFFFFF;fill-opacity:1;fill-rule:nonzero;stroke:none"
           d="m 109.073,18.974 h 6.911 v 6.911 h -6.911 z" /><g
           transform="translate(6.1118,9.2783)"
           id="g58"><path
             id="path60"
             style="fill:#FFFFFF;fill-opacity:1;fill-rule:nonzero;stroke:none"
             d="M 0,0 V 0.719 H 2.594 V -1.547 C 2.196,-1.863 1.786,-2.102 1.363,-2.261 0.94,-2.42 0.507,-2.5 0.062,-2.5 c -0.601,0 -1.147,0.129 -1.637,0.387 -0.491,0.257 -0.862,0.629 -1.113,1.116 -0.25,0.487 -0.375,1.03 -0.375,1.632 0,0.595 0.125,1.151 0.374,1.668 0.249,0.515 0.607,0.899 1.074,1.149 C -1.147,3.703 -0.609,3.828 0,3.828 0.441,3.828 0.842,3.756 1.199,3.612 1.557,3.469 1.836,3.269 2.039,3.012 2.242,2.755 2.396,2.42 2.502,2.008 L 1.775,1.807 C 1.684,2.119 1.569,2.364 1.434,2.543 1.297,2.721 1.103,2.864 0.849,2.972 0.596,3.079 0.314,3.133 0.006,3.133 c -0.37,0 -0.69,-0.057 -0.96,-0.17 C -1.224,2.851 -1.441,2.702 -1.606,2.518 -1.772,2.334 -1.901,2.132 -1.993,1.912 -2.148,1.532 -2.227,1.121 -2.227,0.678 c 0,-0.547 0.094,-1.004 0.282,-1.371 0.188,-0.37 0.462,-0.642 0.82,-0.821 0.359,-0.178 0.74,-0.267 1.144,-0.267 0.35,0 0.692,0.068 1.026,0.203 0.334,0.136 0.587,0.28 0.76,0.433 V 0 Z" /></g><g
           transform="translate(9.7925,6.8799)"
           id="g62"><path
             id="path64"
             style="fill:#FFFFFF;fill-opacity:1;fill-rule:nonzero;stroke:none"
             d="M 0,0 V 4.43 H 0.672 V 3.762 c 0.173,0.313 0.332,0.519 0.478,0.619 0.147,0.1 0.308,0.15 0.483,0.15 0.254,0 0.512,-0.081 0.773,-0.242 L 2.146,3.593 C 1.963,3.703 1.779,3.758 1.596,3.758 1.433,3.758 1.285,3.709 1.154,3.609 1.023,3.511 0.931,3.373 0.875,3.198 0.792,2.932 0.75,2.639 0.75,2.321 V 0 Z" /></g><g
           transform="translate(15.4878,9.1064)"
           id="g66"><path
             id="path68"
             style="fill:#FFFFFF;fill-opacity:1;fill-rule:nonzero;stroke:none"
             d="m 0,0 c -0.274,-0.111 -0.686,-0.207 -1.234,-0.285 -0.311,-0.045 -0.531,-0.095 -0.66,-0.151 -0.128,-0.055 -0.228,-0.137 -0.298,-0.245 -0.07,-0.107 -0.105,-0.226 -0.105,-0.358 0,-0.201 0.076,-0.368 0.23,-0.502 0.152,-0.135 0.376,-0.201 0.671,-0.201 0.291,0 0.55,0.063 0.777,0.189 0.227,0.127 0.394,0.301 0.501,0.522 0.081,0.17 0.122,0.422 0.122,0.754 z M 0.063,-1.672 C -0.215,-1.912 -0.483,-2.081 -0.741,-2.18 -1,-2.279 -1.277,-2.328 -1.573,-2.328 c -0.489,0 -0.865,0.119 -1.127,0.357 -0.263,0.238 -0.394,0.541 -0.394,0.912 0,0.217 0.05,0.415 0.149,0.595 0.099,0.179 0.229,0.323 0.389,0.432 0.161,0.108 0.342,0.19 0.543,0.247 0.149,0.039 0.372,0.076 0.671,0.112 0.61,0.072 1.058,0.159 1.346,0.259 0.003,0.102 0.004,0.168 0.004,0.195 0,0.305 -0.071,0.52 -0.214,0.645 C -0.398,1.596 -0.686,1.68 -1.065,1.68 -1.42,1.68 -1.683,1.617 -1.852,1.494 -2.021,1.37 -2.146,1.15 -2.227,0.836 l -0.734,0.102 c 0.067,0.314 0.177,0.569 0.33,0.762 0.153,0.195 0.375,0.343 0.664,0.448 0.29,0.104 0.626,0.157 1.007,0.157 0.379,0 0.688,-0.045 0.924,-0.134 C 0.2,2.082 0.375,1.969 0.486,1.834 0.598,1.699 0.676,1.527 0.72,1.322 0.745,1.193 0.758,0.963 0.758,0.629 v -1.002 c 0,-0.699 0.014,-1.141 0.046,-1.324 0.03,-0.184 0.091,-0.361 0.18,-0.53 H 0.203 c -0.073,0.159 -0.12,0.343 -0.14,0.555" /></g><g
           transform="translate(16.9976,6.8799)"
           id="g70"><path
             id="path72"
             style="fill:#FFFFFF;fill-opacity:1;fill-rule:nonzero;stroke:none"
             d="M 0,0 V 0.611 L 2.815,3.836 C 2.496,3.82 2.214,3.813 1.97,3.813 H 0.164 V 4.43 H 3.789 V 3.925 L 1.389,1.121 0.919,0.602 C 1.256,0.633 1.572,0.648 1.868,0.648 H 3.922 L 3.922,0 Z" /></g><g
           transform="translate(28.1362,12.9971)"
           id="g74"><path
             id="path76"
             style="fill:#FFFFFF;fill-opacity:1;fill-rule:nonzero;stroke:none"
             d="m 0,0 h 0.813 v -3.533 c 0,-0.614 -0.07,-1.102 -0.209,-1.463 -0.139,-0.362 -0.389,-0.656 -0.752,-0.883 -0.363,-0.226 -0.838,-0.34 -1.427,-0.34 -0.572,0 -1.041,0.099 -1.404,0.296 -0.365,0.198 -0.625,0.484 -0.78,0.858 -0.155,0.374 -0.233,0.884 -0.233,1.532 V 0 h 0.812 v -3.531 c 0,-0.532 0.049,-0.922 0.148,-1.174 0.098,-0.252 0.267,-0.446 0.507,-0.582 0.24,-0.137 0.533,-0.205 0.879,-0.205 0.593,0 1.015,0.135 1.268,0.404 C -0.126,-4.817 0,-4.299 0,-3.531 Z" /></g><g
           transform="translate(30.2007,6.8799)"
           id="g78"><path
             id="path80"
             style="fill:#FFFFFF;fill-opacity:1;fill-rule:nonzero;stroke:none"
             d="M 0,0 V 4.43 H 0.672 V 3.8 C 0.998,4.287 1.469,4.531 2.085,4.531 2.352,4.531 2.598,4.483 2.822,4.387 3.046,4.291 3.214,4.166 3.325,4.01 3.438,3.854 3.515,3.669 3.56,3.455 3.588,3.315 3.602,3.072 3.602,2.725 V 0 h -0.75 v 2.697 c 0,0.307 -0.03,0.535 -0.088,0.687 C 2.705,3.535 2.602,3.656 2.452,3.747 2.304,3.838 2.129,3.883 1.929,3.883 1.608,3.883 1.331,3.781 1.099,3.578 0.866,3.375 0.75,2.989 0.75,2.422 V 0 Z" /></g><path
           id="path82"
           style="fill:#FFFFFF;fill-opacity:1;fill-rule:nonzero;stroke:none"
           d="m 34.958,11.31 h 0.75 V 6.88 h -0.75 z m 0,1.687 h 0.75 v -0.852 h -0.75 z" /><g
           transform="translate(38.0601,6.8799)"
           id="g84"><path
             id="path86"
             style="fill:#FFFFFF;fill-opacity:1;fill-rule:nonzero;stroke:none"
             d="m 0,0 -1.675,4.43 h 0.802 L 0.075,1.777 C 0.179,1.49 0.273,1.193 0.36,0.885 0.427,1.117 0.521,1.398 0.64,1.727 L 1.624,4.43 H 2.396 L 0.716,0 Z" /></g><g
           transform="translate(41.6782,9.5205)"
           id="g88"><path
             id="path90"
             style="fill:#FFFFFF;fill-opacity:1;fill-rule:nonzero;stroke:none"
             d="M 0,0 H 2.484 C 2.451,0.373 2.355,0.652 2.199,0.84 1.959,1.129 1.647,1.273 1.266,1.273 0.919,1.273 0.628,1.158 0.392,0.927 0.155,0.695 0.025,0.387 0,0 M 2.476,-1.211 3.248,-1.313 C 3.126,-1.766 2.899,-2.117 2.568,-2.367 2.237,-2.617 1.814,-2.742 1.3,-2.742 c -0.649,0 -1.163,0.199 -1.543,0.598 -0.38,0.4 -0.57,0.96 -0.57,1.681 0,0.745 0.192,1.324 0.577,1.736 0.383,0.412 0.882,0.618 1.494,0.618 0.593,0 1.076,-0.202 1.452,-0.606 0.376,-0.402 0.563,-0.971 0.563,-1.702 0,-0.044 -0.002,-0.111 -0.003,-0.2 h -3.309 c 0.027,-0.487 0.166,-0.861 0.414,-1.119 0.248,-0.26 0.559,-0.389 0.93,-0.389 0.275,0 0.511,0.072 0.707,0.218 0.195,0.145 0.349,0.378 0.464,0.696" /></g><g
           transform="translate(45.8569,6.8799)"
           id="g92"><path
             id="path94"
             style="fill:#FFFFFF;fill-opacity:1;fill-rule:nonzero;stroke:none"
             d="M 0,0 V 4.43 H 0.672 V 3.762 c 0.173,0.313 0.332,0.519 0.478,0.619 0.147,0.1 0.308,0.15 0.483,0.15 0.254,0 0.512,-0.081 0.773,-0.242 L 2.146,3.593 C 1.963,3.703 1.779,3.758 1.596,3.758 1.433,3.758 1.285,3.709 1.154,3.609 1.023,3.511 0.931,3.373 0.875,3.198 0.792,2.932 0.75,2.639 0.75,2.321 V 0 Z" /></g><g
           transform="translate(48.4116,8.2002)"
           id="g96"><path
             id="path98"
             style="fill:#FFFFFF;fill-opacity:1;fill-rule:nonzero;stroke:none"
             d="m 0,0 0.742,0.117 c 0.042,-0.298 0.157,-0.525 0.349,-0.683 0.189,-0.16 0.456,-0.239 0.798,-0.239 0.344,0 0.6,0.071 0.767,0.211 0.167,0.141 0.25,0.306 0.25,0.495 0,0.169 -0.073,0.304 -0.218,0.401 C 2.586,0.369 2.33,0.453 1.921,0.557 1.369,0.695 0.987,0.816 0.774,0.918 0.562,1.02 0.399,1.16 0.29,1.34 0.18,1.519 0.125,1.717 0.125,1.934 c 0,0.197 0.045,0.38 0.136,0.548 0.09,0.168 0.214,0.309 0.369,0.42 0.117,0.086 0.276,0.16 0.478,0.219 0.203,0.061 0.418,0.09 0.65,0.09 0.347,0 0.653,-0.05 0.916,-0.15 C 2.938,2.961 3.132,2.825 3.257,2.654 3.382,2.483 3.468,2.255 3.516,1.969 L 2.781,1.867 C 2.748,2.096 2.651,2.273 2.491,2.401 2.331,2.529 2.104,2.594 1.813,2.594 1.467,2.594 1.221,2.537 1.073,2.422 0.925,2.309 0.852,2.175 0.852,2.021 0.852,1.924 0.882,1.836 0.943,1.759 1.005,1.678 1.101,1.611 1.231,1.559 1.307,1.53 1.528,1.467 1.896,1.366 2.428,1.225 2.798,1.107 3.008,1.018 3.217,0.927 3.382,0.795 3.501,0.623 3.62,0.451 3.68,0.236 3.68,-0.02 3.68,-0.27 3.606,-0.506 3.461,-0.727 3.314,-0.948 3.104,-1.119 2.828,-1.24 2.553,-1.361 2.241,-1.422 1.894,-1.422 1.318,-1.422 0.88,-1.303 0.578,-1.063 0.276,-0.824 0.083,-0.47 0,0" /></g><path
           id="path100"
           style="fill:#FFFFFF;fill-opacity:1;fill-rule:nonzero;stroke:none"
           d="m 52.986,11.31 h 0.75 V 6.88 h -0.75 z m 0,1.687 h 0.75 v -0.852 h -0.75 z" /><g
           transform="translate(56.5161,7.5557)"
           id="g102"><path
             id="path104"
             style="fill:#FFFFFF;fill-opacity:1;fill-rule:nonzero;stroke:none"
             d="m 0,0 0.102,-0.664 c -0.211,-0.044 -0.401,-0.066 -0.568,-0.066 -0.272,0 -0.483,0.042 -0.634,0.128 -0.149,0.086 -0.255,0.2 -0.316,0.34 -0.062,0.141 -0.092,0.436 -0.092,0.885 v 2.545 h -0.555 v 0.586 h 0.555 v 1.097 l 0.75,0.45 V 3.754 H 0 V 3.168 H -0.758 V 0.584 c 0,-0.213 0.014,-0.351 0.04,-0.412 0.027,-0.061 0.07,-0.109 0.13,-0.145 0.06,-0.037 0.146,-0.054 0.257,-0.054 0.084,0 0.194,0.008 0.331,0.027" /></g><g
           transform="translate(57.2163,5.1729)"
           id="g106"><path
             id="path108"
             style="fill:#FFFFFF;fill-opacity:1;fill-rule:nonzero;stroke:none"
             d="M 0,0 -0.086,0.695 C 0.078,0.651 0.222,0.629 0.345,0.629 c 0.167,0 0.301,0.027 0.401,0.084 0.1,0.055 0.183,0.133 0.246,0.233 0.048,0.075 0.124,0.263 0.23,0.56 0.014,0.043 0.037,0.103 0.067,0.184 L -0.398,6.137 H 0.403 L 1.331,3.582 C 1.452,3.258 1.56,2.918 1.655,2.561 1.743,2.895 1.849,3.226 1.968,3.553 l 0.946,2.584 h 0.75 L 1.989,1.63 C 1.808,1.145 1.667,0.81 1.566,0.627 1.433,0.379 1.278,0.198 1.105,0.083 0.933,-0.032 0.726,-0.09 0.485,-0.09 0.341,-0.09 0.179,-0.06 0,0" /></g><g
           transform="translate(64.3809,9.0928)"
           id="g110"><path
             id="path112"
             style="fill:#FFFFFF;fill-opacity:1;fill-rule:nonzero;stroke:none"
             d="m 0,0 c 0,-0.567 0.123,-0.992 0.371,-1.273 0.246,-0.284 0.557,-0.424 0.932,-0.424 0.373,0 0.681,0.141 0.929,0.426 0.247,0.283 0.37,0.715 0.37,1.296 0,0.547 -0.123,0.963 -0.373,1.245 C 1.98,1.553 1.672,1.693 1.303,1.693 0.928,1.693 0.617,1.553 0.371,1.271 0.123,0.991 0,0.567 0,0 m -0.773,0.002 c 0,0.82 0.228,1.429 0.683,1.824 0.381,0.328 0.846,0.492 1.393,0.492 0.609,0 1.107,-0.199 1.492,-0.599 0.387,-0.399 0.58,-0.95 0.58,-1.655 0,-0.57 -0.086,-1.019 -0.256,-1.345 -0.172,-0.327 -0.42,-0.581 -0.746,-0.762 -0.326,-0.182 -0.684,-0.271 -1.07,-0.271 -0.619,0 -1.121,0.199 -1.502,0.596 -0.383,0.398 -0.574,0.972 -0.574,1.72" /></g><g
           transform="translate(68.8184,6.8799)"
           id="g114"><path
             id="path116"
             style="fill:#FFFFFF;fill-opacity:1;fill-rule:nonzero;stroke:none"
             d="M 0,0 V 3.844 H -0.664 V 4.43 H 0 V 4.9 C 0,5.198 0.025,5.42 0.078,5.564 0.152,5.759 0.279,5.916 0.463,6.037 0.645,6.158 0.9,6.219 1.229,6.219 1.439,6.219 1.674,6.193 1.93,6.144 L 1.816,5.489 C 1.66,5.518 1.514,5.531 1.375,5.531 1.146,5.531 0.986,5.482 0.891,5.385 0.797,5.287 0.75,5.105 0.75,4.839 V 4.43 H 1.609 V 3.844 H 0.75 V 0 Z" /></g><g
           transform="translate(74.877,6.8799)"
           id="g118"><path
             id="path120"
             style="fill:#FFFFFF;fill-opacity:1;fill-rule:nonzero;stroke:none"
             d="M 0,0 V 5.398 H -2.016 V 6.117 H 2.828 V 5.398 H 0.813 L 0.813,0 Z" /></g><g
           transform="translate(78.0605,9.5205)"
           id="g122"><path
             id="path124"
             style="fill:#FFFFFF;fill-opacity:1;fill-rule:nonzero;stroke:none"
             d="M 0,0 H 2.484 C 2.451,0.373 2.355,0.652 2.199,0.84 1.959,1.129 1.646,1.273 1.266,1.273 0.918,1.273 0.627,1.158 0.391,0.927 0.154,0.695 0.025,0.387 0,0 M 2.475,-1.211 3.248,-1.313 C 3.125,-1.766 2.898,-2.117 2.568,-2.367 2.236,-2.617 1.814,-2.742 1.299,-2.742 c -0.649,0 -1.162,0.199 -1.543,0.598 -0.379,0.4 -0.569,0.96 -0.569,1.681 0,0.745 0.192,1.324 0.577,1.736 0.382,0.412 0.881,0.618 1.494,0.618 0.592,0 1.076,-0.202 1.451,-0.606 0.377,-0.402 0.564,-0.971 0.564,-1.702 0,-0.044 -0.002,-0.111 -0.003,-0.2 h -3.309 c 0.027,-0.487 0.166,-0.861 0.414,-1.119 0.248,-0.26 0.557,-0.389 0.928,-0.389 0.277,0 0.513,0.072 0.709,0.218 0.195,0.145 0.349,0.378 0.463,0.696" /></g><g
           transform="translate(85.1445,8.5049)"
           id="g126"><path
             id="path128"
             style="fill:#FFFFFF;fill-opacity:1;fill-rule:nonzero;stroke:none"
             d="m 0,0 0.734,-0.102 c -0.08,-0.507 -0.287,-0.906 -0.617,-1.193 -0.332,-0.288 -0.74,-0.432 -1.222,-0.432 -0.606,0 -1.092,0.199 -1.459,0.595 -0.37,0.397 -0.553,0.965 -0.553,1.705 0,0.479 0.08,0.898 0.238,1.256 0.158,0.359 0.399,0.628 0.723,0.808 0.322,0.179 0.674,0.269 1.054,0.269 0.481,0 0.873,-0.122 1.18,-0.366 C 0.383,2.296 0.578,1.949 0.664,1.5 L -0.063,1.391 c -0.068,0.297 -0.191,0.522 -0.367,0.672 -0.177,0.151 -0.39,0.226 -0.64,0.226 -0.377,0 -0.684,-0.136 -0.92,-0.407 -0.235,-0.272 -0.354,-0.7 -0.354,-1.288 0,-0.596 0.114,-1.029 0.342,-1.299 0.227,-0.27 0.525,-0.404 0.891,-0.404 0.295,0 0.539,0.09 0.736,0.271 C -0.178,-0.656 -0.053,-0.377 0,0" /></g><g
           transform="translate(86.5156,6.8799)"
           id="g130"><path
             id="path132"
             style="fill:#FFFFFF;fill-opacity:1;fill-rule:nonzero;stroke:none"
             d="M 0,0 V 6.117 H 0.75 V 3.92 C 1.1,4.328 1.541,4.531 2.074,4.531 2.402,4.531 2.686,4.467 2.928,4.337 3.17,4.208 3.342,4.029 3.445,3.801 3.551,3.573 3.602,3.242 3.602,2.809 V 0 h -0.75 v 2.807 c 0,0.375 -0.081,0.648 -0.243,0.82 C 2.445,3.797 2.217,3.883 1.92,3.883 1.697,3.883 1.488,3.825 1.293,3.71 1.098,3.594 0.959,3.438 0.875,3.24 0.791,3.043 0.75,2.771 0.75,2.423 V 0 Z" /></g><g
           transform="translate(91.2656,6.8799)"
           id="g134"><path
             id="path136"
             style="fill:#FFFFFF;fill-opacity:1;fill-rule:nonzero;stroke:none"
             d="M 0,0 V 4.43 H 0.672 V 3.8 C 0.998,4.287 1.469,4.531 2.084,4.531 2.352,4.531 2.598,4.483 2.822,4.387 3.045,4.291 3.213,4.166 3.324,4.01 3.438,3.854 3.514,3.669 3.559,3.455 3.588,3.315 3.602,3.072 3.602,2.725 V 0 h -0.75 v 2.697 c 0,0.307 -0.03,0.535 -0.088,0.687 C 2.705,3.535 2.602,3.656 2.451,3.747 2.303,3.838 2.129,3.883 1.928,3.883 1.607,3.883 1.33,3.781 1.098,3.578 0.865,3.375 0.75,2.989 0.75,2.422 V 0 Z" /></g><g
           transform="translate(96.5059,9.0928)"
           id="g138"><path
             id="path140"
             style="fill:#FFFFFF;fill-opacity:1;fill-rule:nonzero;stroke:none"
             d="m 0,0 c 0,-0.567 0.123,-0.992 0.371,-1.273 0.246,-0.284 0.557,-0.424 0.932,-0.424 0.373,0 0.681,0.141 0.929,0.426 0.247,0.283 0.37,0.715 0.37,1.296 0,0.547 -0.123,0.963 -0.373,1.245 C 1.98,1.553 1.672,1.693 1.303,1.693 0.928,1.693 0.617,1.553 0.371,1.271 0.123,0.991 0,0.567 0,0 m -0.773,0.002 c 0,0.82 0.228,1.429 0.683,1.824 0.381,0.328 0.846,0.492 1.393,0.492 0.609,0 1.107,-0.199 1.492,-0.599 0.387,-0.399 0.58,-0.95 0.58,-1.655 0,-0.57 -0.086,-1.019 -0.256,-1.345 -0.172,-0.327 -0.42,-0.581 -0.746,-0.762 -0.326,-0.182 -0.684,-0.271 -1.07,-0.271 -0.619,0 -1.121,0.199 -1.502,0.596 -0.383,0.398 -0.574,0.972 -0.574,1.72" /></g><path
           id="path142"
           style="fill:#FFFFFF;fill-opacity:1;fill-rule:nonzero;stroke:none"
           d="m 100.748,12.997 h 0.75 V 6.88 h -0.75 z" /><g
           transform="translate(103.1523,9.0928)"
           id="g144"><path
             id="path146"
             style="fill:#FFFFFF;fill-opacity:1;fill-rule:nonzero;stroke:none"
             d="m 0,0 c 0,-0.567 0.123,-0.992 0.369,-1.273 0.248,-0.284 0.559,-0.424 0.934,-0.424 0.371,0 0.681,0.141 0.927,0.426 0.247,0.283 0.372,0.715 0.372,1.296 0,0.547 -0.125,0.963 -0.373,1.245 C 1.98,1.553 1.672,1.693 1.303,1.693 0.928,1.693 0.617,1.553 0.369,1.271 0.123,0.991 0,0.567 0,0 m -0.773,0.002 c 0,0.82 0.226,1.429 0.683,1.824 0.381,0.328 0.844,0.492 1.393,0.492 0.607,0 1.105,-0.199 1.492,-0.599 0.387,-0.399 0.58,-0.95 0.58,-1.655 0,-0.57 -0.086,-1.019 -0.258,-1.345 C 2.947,-1.608 2.699,-1.862 2.371,-2.043 2.045,-2.225 1.689,-2.314 1.303,-2.314 c -0.621,0 -1.121,0.199 -1.504,0.596 -0.381,0.398 -0.572,0.972 -0.572,1.72" /></g><g
           transform="translate(107.8965,9.1748)"
           id="g148"><path
             id="path150"
             style="fill:#FFFFFF;fill-opacity:1;fill-rule:nonzero;stroke:none"
             d="m 0,0 c 0,-0.58 0.115,-1.004 0.346,-1.271 0.23,-0.266 0.519,-0.399 0.867,-0.399 0.344,0 0.633,0.133 0.867,0.398 0.233,0.264 0.35,0.68 0.35,1.247 0,0.541 -0.121,0.949 -0.362,1.224 C 1.828,1.474 1.539,1.611 1.201,1.611 0.867,1.611 0.584,1.477 0.35,1.205 0.117,0.935 0,0.533 0,0 m -0.625,-2.662 0.727,-0.102 c 0.031,-0.226 0.115,-0.39 0.255,-0.494 0.186,-0.138 0.442,-0.209 0.764,-0.209 0.35,0 0.617,0.07 0.807,0.208 0.189,0.139 0.318,0.333 0.385,0.582 0.039,0.153 0.056,0.472 0.054,0.96 -0.328,-0.386 -0.736,-0.578 -1.226,-0.578 -0.61,0 -1.08,0.22 -1.414,0.659 -0.334,0.44 -0.5,0.967 -0.5,1.581 0,0.423 0.076,0.814 0.228,1.171 0.154,0.358 0.375,0.634 0.666,0.828 0.291,0.195 0.631,0.292 1.024,0.292 0.523,0 0.953,-0.214 1.293,-0.64 v 0.539 h 0.695 v -3.828 c 0,-0.69 -0.07,-1.179 -0.211,-1.467 -0.141,-0.287 -0.363,-0.515 -0.668,-0.682 -0.305,-0.166 -0.68,-0.25 -1.125,-0.25 -0.529,0 -0.957,0.119 -1.281,0.357 -0.327,0.237 -0.485,0.594 -0.473,1.073" /></g><g
           transform="translate(112.127,5.1729)"
           id="g152"><path
             id="path154"
             style="fill:#FFFFFF;fill-opacity:1;fill-rule:nonzero;stroke:none"
             d="m 0,0 -0.086,0.695 c 0.164,-0.044 0.307,-0.066 0.43,-0.066 0.168,0 0.301,0.027 0.402,0.084 0.1,0.055 0.182,0.133 0.246,0.233 0.047,0.075 0.123,0.263 0.229,0.56 0.015,0.043 0.037,0.103 0.068,0.184 l -1.687,4.447 h 0.8 L 1.33,3.582 C 1.451,3.258 1.559,2.918 1.654,2.561 1.742,2.895 1.848,3.226 1.967,3.553 l 0.947,2.584 h 0.75 L 1.988,1.63 C 1.807,1.145 1.666,0.81 1.566,0.627 1.432,0.379 1.277,0.198 1.105,0.083 0.932,-0.032 0.725,-0.09 0.484,-0.09 0.34,-0.09 0.178,-0.06 0,0" /></g></g></g></g></svg>