<?xml version="1.0" encoding="UTF-8" standalone="no"?>
<svg
   xmlns:dc="http://purl.org/dc/elements/1.1/"
   xmlns:cc="http://creativecommons.org/ns#"
   xmlns:rdf="http://www.w3.org/1999/02/22-rdf-syntax-ns#"
   xmlns:svg="http://www.w3.org/2000/svg"
   xmlns="http://www.w3.org/2000/svg"
   viewBox="0 0 357.33334 112"
   height="112"
   width="357.33334"
   xml:space="preserve"
   id="svg2"
   version="1.1"><metadata
     id="metadata8"><rdf:RDF><cc:Work
         rdf:about=""><dc:format>image/svg+xml</dc:format><dc:type
           rdf:resource="http://purl.org/dc/dcmitype/StillImage" /></cc:Work></rdf:RDF></metadata><defs
     id="defs6" /><g
     transform="matrix(1.3333333,0,0,-1.3333333,0,112)"
     id="g10"><g
       transform="scale(0.1)"
       id="g12"><path
         id="path14"
         style="fill:none;stroke:#FFFFFF;stroke-width:8.71700001;stroke-linecap:butt;stroke-linejoin:miter;stroke-miterlimit:3.8636899;stroke-dasharray:none;stroke-opacity:1"
         d="M 51.5391,46.9766 V 789.648 H 298.602 v -517.32" /><path
         id="path16"
         style="fill:#19b07b;fill-opacity:1;fill-rule:nonzero;stroke:none"
         d="M 47.1563,46.9766 H 417.746 L 788.348,417.578 V 602.055 H 605.164 L 47.1563,46.9766" /><path
         id="path18"
         style="fill:none;stroke:#FFFFFF;stroke-width:8.71700001;stroke-linecap:butt;stroke-linejoin:miter;stroke-miterlimit:3.8636899;stroke-dasharray:none;stroke-opacity:1"
         d="M 13.0156,829.344 H 828.891 V 13.4688 H 13.0156 Z" /><path
         id="path20"
         style="fill:#FFFFFF;fill-opacity:1;fill-rule:nonzero;stroke:none"
         d="m 1306.46,355.09 53.4,-109.332 v -77.93 h 36.18 v 82.719 l 54.21,104.543 h -19.6 l -44.19,-86.785 -42.44,86.785 h -37.56" /><path
         id="path22"
         style="fill:#FFFFFF;fill-opacity:1;fill-rule:nonzero;stroke:none"
         d="m 1772.42,355.09 v -16.078 h -63.49 V 278.77 h 61.7 v -16.063 h -61.7 v -78.215 h 65.27 V 167.828 H 1672.66 V 355.09 h 99.76" /><path
         id="path24"
         style="fill:#FFFFFF;fill-opacity:1;fill-rule:nonzero;stroke:none"
         d="m 2008.53,355.09 h 125.96 v -16.524 h -45.52 V 167.828 h -34.48 v 169.848 h -45.96 v 17.414" /><path
         id="path26"
         style="fill:#FFFFFF;fill-opacity:1;fill-rule:nonzero;stroke:none"
         d="m 2174.2,355.09 h 36.59 v -76.32 h 70.19 v 76.32 h 35.7 V 167.828 h -35.25 v 92.969 h -71.08 V 167.828 H 2174.2 V 355.09" /><path
         id="path28"
         style="fill:#FFFFFF;fill-opacity:1;fill-rule:nonzero;stroke:none"
         d="m 1832.71,252.184 c 0.02,-6.68 0.16,-11.821 0.16,-16.422 0,-50.926 32.29,-71.242 73.8,-71.242 47.1,0 67.62,26.003 67.62,88.847 l 0.12,101.723 h -15.62 l 0.01,-102.332 c -0.62,-43.524 -7.64,-69.707 -41.45,-69.707 -29.43,0 -45.76,9.433 -47.79,64.324 V 355.09 h -36.85 V 252.184" /><path
         id="path30"
         style="fill:#FFFFFF;fill-opacity:1;fill-rule:nonzero;stroke:none"
         d="m 2110.71,574.754 c 0,11.851 0,5.957 -0.08,17.066 -10.11,7.45 -26.93,12.789 -44.51,12.789 -29.07,0 -59.76,-20.906 -59.76,-58.359 0,-61.605 84.62,-50.469 84.62,-91.449 0,-15.199 -16.56,-30.352 -35.61,-30.352 -19.78,0 -49.86,17.379 -49.86,17.379 0,-15.918 -0.06,-5.805 0,-19.078 10.28,-5.324 26.17,-12.457 43.75,-12.457 38.84,0 71.76,24.965 71.76,61.332 0,61.609 -81.28,51.566 -81.28,91.73 0,13.028 10.5,28.547 25.4,28.532 25.56,-0.028 45.57,-17.133 45.57,-17.133" /><path
         id="path32"
         style="fill:#FFFFFF;fill-opacity:1;fill-rule:nonzero;stroke:none"
         d="m 1305.59,601.797 h 16.31 V 413.75 h -17.52 L 1199.36,545.355 V 413.75 h -16.92 v 188.047 h 17.77 l 105.38,-127.379 v 127.379" /><path
         id="path34"
         style="fill:#FFFFFF;fill-opacity:1;fill-rule:nonzero;stroke:none"
         d="m 1398.88,601.797 h 35.64 V 413.75 h -35.64 v 188.047" /><path
         id="path36"
         style="fill:#FFFFFF;fill-opacity:1;fill-rule:nonzero;stroke:none"
         d="m 1478.27,601.797 h 41.69 l 44.96,-136.442 47.37,136.442 h 18.13 L 1563.71,413.75 h -18.73 l -66.71,188.047" /><path
         id="path38"
         style="fill:#FFFFFF;fill-opacity:1;fill-rule:nonzero;stroke:none"
         d="m 1772.42,601.797 v -16.078 h -63.49 v -60.242 h 61.7 V 509.41 h -61.7 v -78.215 h 65.27 V 413.75 h -101.54 v 188.047 h 99.76" /><path
         id="path40"
         style="fill:#FFFFFF;fill-opacity:1;fill-rule:nonzero;stroke:none"
         d="m 2174.2,601.797 h 35.65 V 413.75 h -35.65 v 188.047" /><path
         id="path42"
         style="fill:#FFFFFF;fill-opacity:1;fill-rule:nonzero;stroke:none"
         d="m 2252.38,601.797 h 125.96 v -16.524 h -45.52 V 413.75 h -34.48 v 170.629 h -45.96 v 17.418" /><path
         id="path44"
         style="fill:#FFFFFF;fill-opacity:1;fill-rule:nonzero;stroke:none"
         d="m 975.293,498.891 c 0.02,-6.68 0.164,-11.825 0.164,-16.426 0,-50.922 32.293,-71.238 73.803,-71.238 47.09,0 67.62,26.003 67.62,88.843 l 0.12,101.727 h -15.62 V 499.461 c -0.61,-43.52 -7.63,-69.707 -41.44,-69.707 -29.44,0 -45.77,9.437 -47.8,64.328 V 601.797 H 975.293 V 498.891" /><path
         id="path46"
         style="fill:#FFFFFF;fill-opacity:1;fill-rule:nonzero;stroke:none"
         d="m 2550.57,601.797 h 125.97 v -16.524 h -45.52 V 413.75 h -34.48 v 170.629 h -45.97 v 17.418" /><path
         id="path48"
         style="fill:#FFFFFF;fill-opacity:1;fill-rule:evenodd;stroke:none"
         d="m 1922.27,549.684 c 0,-25.407 -9.01,-38.758 -43.92,-38.704 -1.88,0.004 -7.47,-0.097 -9.62,0.172 v 76.371 c 40.63,0.293 53.54,-5.945 53.54,-37.839 z m 8.52,-135.934 h 41.61 c -19.6,30.543 -40.91,62.902 -58.09,93.445 26.57,6.754 41.6,23.512 41.6,49.731 0,15.949 -6.71,27.84 -17.44,35.679 -9.4,6.758 -19.33,9.188 -46.43,9.188 l -59.33,0.004 V 413.75 h 36.02 v 87.961 h 11.21 l 50.85,-87.961" /><path
         id="path50"
         style="fill:#FFFFFF;fill-opacity:1;fill-rule:evenodd;stroke:none"
         d="m 1186.51,238.41 h 47.54 c -7.07,21.938 -15.39,48.797 -23.19,69.926 -8.41,-24.883 -14.2,-41.879 -24.35,-69.926 z m 44,116.68 h -18.46 l -68.79,-187.262 h 17.53 l 21.26,57.461 h 56.87 l 17.52,-57.461 h 42.15 l -68.08,187.262" /><path
         id="path52"
         style="fill:#FFFFFF;fill-opacity:1;fill-rule:evenodd;stroke:none"
         d="m 1578.89,303.766 c 0,-25.411 -9.02,-38.762 -43.93,-38.707 -1.87,0.004 -7.46,-0.098 -9.61,0.171 v 76.372 c 40.62,0.293 53.54,-5.946 53.54,-37.836 z m 7.85,-135.938 h 41.61 c -19.6,30.543 -40.24,62 -57.42,92.543 26.57,6.758 41.6,23.516 41.6,49.731 0,15.949 -6.71,27.839 -17.45,35.679 -9.39,6.758 -19.32,9.188 -46.43,9.188 h -59.33 V 167.828 h 36.03 v 87.059 l 11.21,0.004 50.18,-87.063" /><path
         id="path54"
         style="fill:#FFFFFF;fill-opacity:1;fill-rule:evenodd;stroke:none"
         d="m 1011.5,260 20.18,-0.012 c 22.53,0 38.27,-14.586 38.27,-39.82 0,-23.605 -17.02,-38.496 -33.63,-38.496 l -24.82,0.047 z m 57,47.809 c 0,-23.063 -19.9,-34.797 -35.95,-34.797 h -20.94 v 68.625 h 22.37 c 22.25,0 34.52,-16.465 34.52,-33.828 z M 975.293,355.09 V 167.828 l 70.067,-0.023 c 33.5,0 65.44,15.465 65.44,54.265 0,32.828 -33.51,44.766 -50.68,45.582 17.45,3.254 45.89,15.735 45.89,45.309 0,29.574 -17.97,42.34 -56.87,42.059 l -73.847,0.07" /><path
         id="path56"
         style="fill:#FFFFFF;fill-opacity:1;fill-rule:nonzero;stroke:none"
         d="m 2406.71,602.668 c 0,7.789 6.32,14.102 14.11,14.102 7.78,0 14.1,-6.313 14.1,-14.102 0,-7.789 -6.32,-14.102 -14.1,-14.102 -7.79,0 -14.11,6.313 -14.11,14.102" /><path
         id="path58"
         style="fill:none;stroke:#FFFFFF;stroke-width:4.7670002;stroke-linecap:butt;stroke-linejoin:miter;stroke-miterlimit:3.86370993;stroke-dasharray:none;stroke-opacity:1"
         d="m 2406.71,602.668 c 0,7.789 6.32,14.102 14.11,14.102 7.78,0 14.1,-6.313 14.1,-14.102 0,-7.789 -6.32,-14.102 -14.1,-14.102 -7.79,0 -14.11,6.313 -14.11,14.102 z" /><path
         id="path60"
         style="fill:#FFFFFF;fill-opacity:1;fill-rule:nonzero;stroke:none"
         d="m 2494.76,602.668 c 0,7.789 6.31,14.102 14.1,14.102 7.79,0 14.1,-6.313 14.1,-14.102 0,-7.789 -6.31,-14.102 -14.1,-14.102 -7.79,0 -14.1,6.313 -14.1,14.102" /><path
         id="path62"
         style="fill:none;stroke:#FFFFFF;stroke-width:4.7670002;stroke-linecap:butt;stroke-linejoin:miter;stroke-miterlimit:3.86370993;stroke-dasharray:none;stroke-opacity:1"
         d="m 2494.76,602.668 c 0,7.789 6.31,14.102 14.1,14.102 7.79,0 14.1,-6.313 14.1,-14.102 0,-7.789 -6.31,-14.102 -14.1,-14.102 -7.79,0 -14.1,6.313 -14.1,14.102 z" /><path
         id="path64"
         style="fill:#FFFFFF;fill-opacity:1;fill-rule:evenodd;stroke:none"
         d="m 2430.72,485.453 h 47.55 c -7.07,21.938 -15.39,48.797 -23.19,69.926 -8.41,-24.883 -14.2,-41.879 -24.36,-69.926 z m 44,116.68 h -18.45 L 2387.48,414.871 H 2405 l 21.27,57.461 h 56.86 l 17.53,-57.461 h 42.15 l -68.09,187.262" /></g></g></svg>