<?xml version="1.0" encoding="UTF-8" standalone="no"?>
<svg
   xmlns:dc="http://purl.org/dc/elements/1.1/"
   xmlns:cc="http://creativecommons.org/ns#"
   xmlns:rdf="http://www.w3.org/1999/02/22-rdf-syntax-ns#"
   xmlns:svg="http://www.w3.org/2000/svg"
   xmlns="http://www.w3.org/2000/svg"
   viewBox="0 0 816.35999 245.45332"
   height="245.45332"
   width="816.35999"
   xml:space="preserve"
   id="svg2"
   version="1.1"><metadata
     id="metadata8"><rdf:RDF><cc:Work
         rdf:about=""><dc:format>image/svg+xml</dc:format><dc:type
           rdf:resource="http://purl.org/dc/dcmitype/StillImage" /></cc:Work></rdf:RDF></metadata><defs
     id="defs6"><clipPath
       id="clipPath86"
       clipPathUnits="userSpaceOnUse"><path
         id="path84"
         d="m 1325.15,1270.96 h 331.53 V 940.602 L 806.316,108.98 H 141.57 l 725.11,709.141 z" /></clipPath><clipPath
       id="clipPath118"
       clipPathUnits="userSpaceOnUse"><path
         id="path116"
         d="M 62.4961,74.8086 H 263.031 V 297.102 H 62.4961 Z" /></clipPath></defs><g
     transform="matrix(1.3333333,0,0,-1.3333333,0,245.45333)"
     id="g10"><g
       transform="scale(0.1)"
       id="g12"><path
         id="path14"
         style="fill:#ffffff;fill-opacity:1;fill-rule:nonzero;stroke:none"
         d="m 2041,1287.25 h 52.03 v -139.57 c 0,-22.15 0.64,-36.5 1.93,-43.07 2.23,-10.54 7.53,-19.01 15.91,-25.4 8.38,-6.39 19.83,-9.58 34.36,-9.58 14.77,0 25.9,3.02 33.4,9.05 7.5,6.04 12.01,13.45 13.54,22.24 1.52,8.79 2.28,23.38 2.28,43.77 v 142.56 h 52.03 V 1151.9 c 0,-30.94 -1.4,-52.79 -4.21,-65.57 -2.82,-12.77 -8,-23.55 -15.56,-32.34 -7.56,-8.79 -17.67,-15.79 -30.32,-21.01 -12.66,-5.21 -29.18,-7.82 -49.57,-7.82 -24.61,0 -43.28,2.84 -55.99,8.52 -12.71,5.69 -22.76,13.07 -30.15,22.15 -7.38,9.08 -12.24,18.61 -14.59,28.57 -3.39,14.76 -5.09,36.56 -5.09,65.39 v 137.46" /><path
         id="path16"
         style="fill:#ffffff;fill-opacity:1;fill-rule:nonzero;stroke:none"
         d="m 2310.85,1029.55 v 257.7 h 50.63 l 105.47,-172.09 v 172.09 h 48.34 v -257.7 h -52.21 l -103.89,168.05 v -168.05 h -48.34" /><path
         id="path18"
         style="fill:#ffffff;fill-opacity:1;fill-rule:nonzero;stroke:none"
         d="m 2577.72,1029.55 v 257.7 h 52.04 v -257.7 h -52.04" /><path
         id="path20"
         style="fill:#ffffff;fill-opacity:1;fill-rule:nonzero;stroke:none"
         d="m 2754.07,1029.55 -92.11,257.7 h 56.43 l 65.21,-190.72 63.11,190.72 h 55.19 l -92.28,-257.7 h -55.55" /><path
         id="path22"
         style="fill:#ffffff;fill-opacity:1;fill-rule:nonzero;stroke:none"
         d="m 2937.45,1029.55 v 257.7 h 191.07 v -43.59 h -139.04 v -57.13 h 129.37 v -43.42 h -129.37 v -70.14 h 143.96 v -43.42 h -195.99" /><path
         id="path24"
         style="fill:#ffffff;fill-opacity:1;fill-rule:nonzero;stroke:none"
         d="m 3238.77,1178.27 h 38.5 c 24.96,0 40.54,1.05 46.75,3.16 6.21,2.11 11.08,5.74 14.59,10.89 3.52,5.16 5.28,11.61 5.28,19.34 0,8.68 -2.32,15.68 -6.95,21.01 -4.63,5.33 -11.16,8.7 -19.6,10.11 -4.21,0.58 -16.87,0.88 -37.96,0.88 h -40.61 z m -52.03,-148.72 v 257.7 h 109.51 c 27.54,0 47.55,-2.32 60.03,-6.95 12.48,-4.62 22.47,-12.85 29.97,-24.69 7.5,-11.84 11.25,-25.37 11.25,-40.61 0,-19.33 -5.68,-35.3 -17.05,-47.9 -11.37,-12.6 -28.36,-20.53 -50.98,-23.81 11.25,-6.57 20.54,-13.77 27.86,-21.63 7.33,-7.85 17.2,-21.79 29.62,-41.84 l 31.47,-50.27 h -62.23 l -37.62,56.08 c -13.36,20.04 -22.5,32.66 -27.42,37.88 -4.92,5.21 -10.13,8.79 -15.64,10.72 -5.51,1.93 -14.24,2.9 -26.19,2.9 h -10.55 v -107.58 h -52.03" /><path
         id="path26"
         style="fill:#ffffff;fill-opacity:1;fill-rule:nonzero;stroke:none"
         d="m 3442.36,1113.4 50.63,4.92 c 3.05,-16.99 9.23,-29.47 18.54,-37.44 9.32,-7.97 21.89,-11.95 37.71,-11.95 16.76,0 29.38,3.54 37.88,10.63 8.5,7.09 12.74,15.39 12.74,24.88 0,6.09 -1.78,11.27 -5.36,15.55 -3.57,4.28 -9.81,8 -18.72,11.17 -6.09,2.11 -19.98,5.86 -41.66,11.25 -27.89,6.91 -47.46,15.41 -58.71,25.48 -15.82,14.18 -23.73,31.47 -23.73,51.86 0,13.13 3.72,25.4 11.16,36.82 7.44,11.43 18.17,20.13 32.17,26.11 14,5.98 30.91,8.96 50.71,8.96 32.35,0 56.69,-7.09 73.04,-21.26 16.35,-14.18 24.93,-33.11 25.75,-56.78 l -52.03,-2.29 c -2.23,13.24 -7,22.76 -14.33,28.57 -7.32,5.8 -18.31,8.69 -32.95,8.69 -15.12,0 -26.96,-3.1 -35.51,-9.31 -5.51,-3.98 -8.26,-9.31 -8.26,-15.99 0,-6.1 2.57,-11.31 7.73,-15.65 6.56,-5.51 22.5,-11.25 47.81,-17.23 25.32,-5.97 44.04,-12.16 56.16,-18.54 12.13,-6.39 21.63,-15.12 28.48,-26.19 6.86,-11.08 10.28,-24.76 10.28,-41.05 0,-14.76 -4.1,-28.59 -12.3,-41.48 -8.2,-12.89 -19.8,-22.47 -34.8,-28.74 -15,-6.27 -33.7,-9.41 -56.08,-9.41 -32.58,0 -57.6,7.53 -75.06,22.59 -17.46,15.06 -27.89,37 -31.29,65.83" /><path
         id="path28"
         style="fill:#ffffff;fill-opacity:1;fill-rule:nonzero;stroke:none"
         d="m 3703.08,1029.55 v 257.7 h 52.03 v -257.7 h -52.03" /><path
         id="path30"
         style="fill:#ffffff;fill-opacity:1;fill-rule:nonzero;stroke:none"
         d="m 3871.69,1029.55 v 214.11 h -76.47 v 43.59 h 204.79 v -43.59 h -76.29 v -214.11 h -52.03" /><path
         id="path32"
         style="fill:#ffffff;fill-opacity:1;fill-rule:nonzero;stroke:none"
         d="m 4176.83,1131.51 -35.51,95.62 -34.81,-95.62 z m 95.8,-101.96 h -56.6 l -22.5,58.54 h -103.01 l -21.27,-58.54 h -55.2 l 100.37,257.7 h 55.02 l 103.19,-257.7" /><path
         id="path34"
         style="fill:#ffffff;fill-opacity:1;fill-rule:nonzero;stroke:none"
         d="m 4372.4,1029.55 v 214.11 h -76.46 v 43.59 h 204.78 v -43.59 h -76.29 v -214.11 h -52.03" /><path
         id="path36"
         style="fill:#ffffff;fill-opacity:1;fill-rule:nonzero;stroke:none"
         d="m 4530.12,1113.4 50.62,4.92 c 3.05,-16.99 9.23,-29.47 18.55,-37.44 9.31,-7.97 21.88,-11.95 37.7,-11.95 16.76,0 29.39,3.54 37.88,10.63 8.5,7.09 12.75,15.39 12.75,24.88 0,6.09 -1.79,11.27 -5.36,15.55 -3.58,4.28 -9.82,8 -18.72,11.17 -6.1,2.11 -19.99,5.86 -41.66,11.25 -27.9,6.91 -47.47,15.41 -58.72,25.48 -15.82,14.18 -23.73,31.47 -23.73,51.86 0,13.13 3.72,25.4 11.17,36.82 7.44,11.43 18.16,20.13 32.16,26.11 14.01,5.98 30.91,8.96 50.72,8.96 32.34,0 56.69,-7.09 73.03,-21.26 16.35,-14.18 24.94,-33.11 25.76,-56.78 l -52.04,-2.29 c -2.22,13.24 -7,22.76 -14.32,28.57 -7.33,5.8 -18.31,8.69 -32.96,8.69 -15.12,0 -26.95,-3.1 -35.51,-9.31 -5.51,-3.98 -8.26,-9.31 -8.26,-15.99 0,-6.1 2.58,-11.31 7.73,-15.65 6.57,-5.51 22.5,-11.25 47.82,-17.23 25.31,-5.97 44.03,-12.16 56.16,-18.54 12.13,-6.39 21.62,-15.12 28.48,-26.19 6.85,-11.08 10.28,-24.76 10.28,-41.05 0,-14.76 -4.1,-28.59 -12.31,-41.48 -8.2,-12.89 -19.8,-22.47 -34.8,-28.74 -15,-6.27 -33.69,-9.41 -56.08,-9.41 -32.57,0 -57.59,7.53 -75.05,22.59 -17.46,15.06 -27.89,37 -31.29,65.83" /><path
         id="path38"
         style="fill:#ffffff;fill-opacity:1;fill-rule:nonzero;stroke:none"
         d="m 4858.15,1029.55 -92.11,257.7 h 56.43 l 65.22,-190.72 63.1,190.72 h 55.2 l -92.29,-257.7 h -55.55" /><path
         id="path40"
         style="fill:#ffffff;fill-opacity:1;fill-rule:nonzero;stroke:none"
         d="m 5041.53,1029.55 v 257.7 h 191.08 v -43.59 h -139.05 v -57.13 h 129.38 v -43.42 h -129.38 v -70.14 h 143.97 v -43.42 h -196" /><path
         id="path42"
         style="fill:#ffffff;fill-opacity:1;fill-rule:nonzero;stroke:none"
         d="m 5342.85,1178.27 h 38.5 c 24.96,0 40.54,1.05 46.76,3.16 6.21,2.11 11.07,5.74 14.59,10.89 3.51,5.16 5.27,11.61 5.27,19.34 0,8.68 -2.32,15.68 -6.94,21.01 -4.63,5.33 -11.17,8.7 -19.6,10.11 -4.22,0.58 -16.88,0.88 -37.97,0.88 h -40.61 z m -52.03,-148.72 v 257.7 h 109.51 c 27.54,0 47.55,-2.32 60.03,-6.95 12.48,-4.62 22.47,-12.85 29.97,-24.69 7.5,-11.84 11.25,-25.37 11.25,-40.61 0,-19.33 -5.68,-35.3 -17.05,-47.9 -11.37,-12.6 -28.36,-20.53 -50.98,-23.81 11.25,-6.57 20.54,-13.77 27.87,-21.63 7.32,-7.85 17.19,-21.79 29.62,-41.84 l 31.46,-50.27 h -62.23 l -37.61,56.08 c -13.36,20.04 -22.5,32.66 -27.43,37.88 -4.92,5.21 -10.13,8.79 -15.64,10.72 -5.51,1.93 -14.24,2.9 -26.19,2.9 h -10.55 v -107.58 h -52.03" /><path
         id="path44"
         style="fill:#ffffff;fill-opacity:1;fill-rule:nonzero;stroke:none"
         d="m 5559.63,1029.55 v 257.7 h 191.07 v -43.59 h -139.04 v -57.13 h 129.38 v -43.42 h -129.38 v -70.14 h 143.97 v -43.42 h -196" /><path
         id="path46"
         style="fill:#ffffff;fill-opacity:1;fill-rule:nonzero;stroke:none"
         d="m 5807.17,1029.55 v 257.7 h 52.03 v -257.7 h -52.03" /><path
         id="path48"
         style="fill:#ffffff;fill-opacity:1;fill-rule:nonzero;stroke:none"
         d="m 5918.29,1029.55 v 257.7 h 50.63 l 105.46,-172.09 v 172.09 h 48.34 v -257.7 h -52.2 l -103.89,168.05 v -168.05 h -48.34" /><path
         id="path50"
         style="fill:#ffffff;fill-opacity:1;fill-rule:nonzero;stroke:none"
         d="M 2093.55,709.891 V 640.98 h 48.17 c 18.75,0 30.64,0.532 35.68,1.579 7.74,1.41 14.04,4.832 18.9,10.273 4.86,5.449 7.29,12.758 7.29,21.898 0,7.731 -1.87,14.301 -5.62,19.692 -3.75,5.387 -9.17,9.308 -16.26,11.769 -7.09,2.457 -22.47,3.7 -46.14,3.7 z m 0,102.48 v -59.59 h 34.11 c 20.27,0 32.87,0.289 37.79,0.867 8.91,1.063 15.91,4.133 21.01,9.223 5.09,5.098 7.64,11.82 7.64,20.141 0,7.968 -2.2,14.429 -6.59,19.41 -4.39,4.976 -10.93,8.008 -19.6,9.066 -5.16,0.582 -19.98,0.883 -44.47,0.883 z m -52.03,42.887 h 103.01 c 20.39,0 35.6,-0.86 45.62,-2.559 10.02,-1.699 18.98,-5.234 26.89,-10.625 7.91,-5.394 14.5,-12.586 19.78,-21.543 5.27,-8.972 7.91,-19 7.91,-30.14 0,-12.071 -3.26,-23.141 -9.76,-33.219 -6.5,-10.082 -15.32,-17.641 -26.45,-22.684 15.7,-4.566 27.77,-12.359 36.21,-23.367 8.43,-11.019 12.65,-23.973 12.65,-38.851 0,-11.719 -2.72,-23.129 -8.17,-34.2 -5.45,-11.082 -12.89,-19.922 -22.33,-26.539 -9.43,-6.633 -21.06,-10.691 -34.89,-12.211 -8.67,-0.941 -29.59,-1.519 -62.75,-1.761 h -87.72 v 257.699" /><path
         id="path52"
         style="fill:#ffffff;fill-opacity:1;fill-rule:nonzero;stroke:none"
         d="m 2446.91,699.512 -35.51,95.629 -34.8,-95.629 z m 95.8,-101.953 h -56.6 l -22.5,58.543 H 2360.6 l -21.27,-58.543 h -55.19 l 100.37,257.699 h 55.02 l 103.18,-257.699" /><path
         id="path54"
         style="fill:#ffffff;fill-opacity:1;fill-rule:nonzero;stroke:none"
         d="M 2613.94,597.559 V 706.02 l -94.4,149.238 h 61 l 60.64,-101.957 59.42,101.957 h 59.94 L 2665.79,705.672 V 597.559 h -51.85" /><path
         id="path56"
         style="fill:#ffffff;fill-opacity:1;fill-rule:nonzero;stroke:none"
         d="m 2847.59,746.27 h 38.49 c 24.96,0 40.55,1.062 46.76,3.171 6.21,2.11 11.08,5.739 14.59,10.891 3.52,5.156 5.28,11.609 5.28,19.34 0,8.668 -2.32,15.66 -6.95,21 -4.63,5.328 -11.16,8.707 -19.6,10.109 -4.22,0.59 -16.87,0.879 -37.97,0.879 h -40.6 z m -52.03,-148.711 v 257.699 h 109.51 c 27.54,0 47.55,-2.324 60.03,-6.953 12.48,-4.629 22.47,-12.856 29.97,-24.684 7.5,-11.84 11.25,-25.383 11.25,-40.609 0,-19.34 -5.69,-35.313 -17.05,-47.91 -11.37,-12.602 -28.36,-20.532 -50.98,-23.813 11.25,-6.559 20.54,-13.769 27.86,-21.617 7.33,-7.852 17.2,-21.801 29.62,-41.84 l 31.47,-50.273 h -62.23 l -37.62,56.082 c -13.36,20.031 -22.5,32.648 -27.42,37.871 -4.92,5.207 -10.14,8.789 -15.64,10.718 -5.51,1.93 -14.24,2.911 -26.2,2.911 h -10.54 V 597.559 h -52.03" /><path
         id="path58"
         style="fill:#ffffff;fill-opacity:1;fill-rule:nonzero;stroke:none"
         d="m 3064.36,597.559 v 257.699 h 191.07 V 811.66 h -139.04 v -57.129 h 129.37 v -43.41 H 3116.39 V 640.98 h 143.96 v -43.421 h -195.99" /><path
         id="path60"
         style="fill:#ffffff;fill-opacity:1;fill-rule:nonzero;stroke:none"
         d="m 3313.13,855.258 h 52.03 V 715.691 c 0,-22.152 0.64,-36.511 1.93,-43.07 2.23,-10.551 7.53,-19.019 15.91,-25.41 8.38,-6.391 19.83,-9.57 34.36,-9.57 14.77,0 25.9,3.007 33.4,9.039 7.5,6.039 12.01,13.461 13.54,22.25 1.52,8.789 2.28,23.379 2.28,43.769 v 142.559 h 52.03 v -135.36 c 0,-30.929 -1.4,-52.789 -4.22,-65.558 -2.81,-12.781 -7.99,-23.559 -15.55,-32.352 -7.56,-8.777 -17.67,-15.797 -30.32,-21.008 -12.66,-5.218 -29.18,-7.808 -49.57,-7.808 -24.61,0 -43.28,2.828 -55.99,8.508 -12.72,5.691 -22.76,13.07 -30.15,22.152 -7.38,9.078 -12.24,18.609 -14.59,28.566 -3.4,14.774 -5.09,36.571 -5.09,65.403 v 137.457" /><path
         id="path62"
         style="fill:#ffffff;fill-opacity:1;fill-rule:nonzero;stroke:none"
         d="M 3640.47,597.559 V 811.66 H 3564 v 43.598 h 204.79 V 811.66 H 3692.5 V 597.559 h -52.03" /><path
         id="path64"
         style="fill:#ffffff;fill-opacity:1;fill-rule:nonzero;stroke:none"
         d="m 3811.53,597.559 v 257.699 h 52.03 V 753.832 h 101.96 v 101.426 h 52.03 V 597.559 h -52.03 V 710.238 H 3863.56 V 597.559 h -52.03" /><path
         id="path66"
         style="fill:#ffffff;fill-opacity:1;fill-rule:nonzero;stroke:none"
         d="m 4299.92,706.898 c -0.35,14.293 -4.04,25.153 -11.07,32.59 -7.03,7.453 -15.59,11.184 -25.67,11.184 -10.78,0 -19.68,-3.934 -26.72,-11.781 -7.03,-7.852 -10.48,-18.52 -10.37,-31.993 z m -2.81,-49.929 49.22,-8.258 c -6.33,-18.039 -16.32,-31.789 -29.97,-41.231 -13.65,-9.429 -30.73,-14.14 -51.24,-14.14 -32.46,0 -56.49,10.609 -72.07,31.82 -12.31,16.988 -18.46,38.442 -18.46,64.328 0,30.942 8.09,55.16 24.26,72.684 16.17,17.519 36.62,26.289 61.35,26.289 27.77,0 49.68,-9.18 65.74,-27.52 16.05,-18.339 23.73,-46.429 23.02,-84.281 h -123.75 c 0.36,-14.648 4.34,-26.051 11.96,-34.199 7.62,-8.141 17.11,-12.199 28.47,-12.199 7.74,0 14.24,2.109 19.52,6.32 5.27,4.219 9.25,11.02 11.95,20.387" /><path
         id="path68"
         style="fill:#ffffff;fill-opacity:1;fill-rule:nonzero;stroke:none"
         d="m 4398.22,597.559 v 49.402 h 49.4 v -49.402 h -49.4" /><path
         id="path70"
         style="fill:#ffffff;fill-opacity:1;fill-rule:nonzero;stroke:none"
         d="m 4573.34,597.559 -92.11,257.699 h 56.43 l 65.21,-190.727 63.11,190.727 h 55.19 l -92.28,-257.699 h -55.55" /><path
         id="path72"
         style="fill:#ffffff;fill-opacity:1;fill-rule:nonzero;stroke:none"
         d="m 4723.31,597.559 v 49.402 h 49.4 v -49.402 h -49.4" /><path
         id="path74"
         style="fill:#ffffff;fill-opacity:1;fill-rule:nonzero;stroke:none"
         d="m 4238.24,1238.48 h -31.88 v 48.77 h 31.88 v -48.77" /><path
         id="path76"
         style="fill:#ffffff;fill-opacity:1;fill-rule:nonzero;stroke:none"
         d="m 4074.1,1238.48 h -31.88 v 48.77 h 31.88 v -48.77" /><path
         id="path78"
         style="fill:none;stroke:#ffffff;stroke-width:18;stroke-linecap:butt;stroke-linejoin:miter;stroke-miterlimit:4;stroke-dasharray:none;stroke-opacity:1"
         d="M 1816.29,9.01172 H 9 V 1831.93 h 1807.29 z" /><g
         id="g80"><g
           clip-path="url(#clipPath86)"
           id="g82"><path
             id="path88"
             style="fill:#ffffff;fill-opacity:1;fill-rule:nonzero;stroke:none"
             d="M 1647.31,829.012 H 990.121 v 91.797 h 657.189 v -91.797" /><path
             id="path90"
             style="fill:#ffffff;fill-opacity:1;fill-rule:nonzero;stroke:none"
             d="M 1532.94,716.25 H 875.758 v 91.809 H 1532.94 V 716.25" /><path
             id="path92"
             style="fill:#ffffff;fill-opacity:1;fill-rule:nonzero;stroke:none"
             d="M 1418.58,603.5 H 761.395 v 91.801 H 1418.58 V 603.5" /><path
             id="path94"
             style="fill:#ffffff;fill-opacity:1;fill-rule:nonzero;stroke:none"
             d="M 1304.22,490.738 H 647.031 v 91.813 h 657.189 v -91.813" /><path
             id="path96"
             style="fill:#ffffff;fill-opacity:1;fill-rule:nonzero;stroke:none"
             d="M 1189.85,377.988 H 532.668 v 91.813 h 657.182 v -91.813" /><path
             id="path98"
             style="fill:#ffffff;fill-opacity:1;fill-rule:nonzero;stroke:none"
             d="M 1075.49,265.238 H 418.301 v 91.801 h 657.189 v -91.801" /><path
             id="path100"
             style="fill:#ffffff;fill-opacity:1;fill-rule:nonzero;stroke:none"
             d="M 961.121,152.48 H 303.938 v 91.809 H 961.121 V 152.48" /><path
             id="path102"
             style="fill:#ffffff;fill-opacity:1;fill-rule:nonzero;stroke:none"
             d="m 1761.67,941.766 h -657.18 v 91.804 h 657.18 v -91.804" /><path
             id="path104"
             style="fill:#ffffff;fill-opacity:1;fill-rule:nonzero;stroke:none"
             d="m 1876.04,1054.52 h -657.19 v 91.8 h 657.19 v -91.8" /><path
             id="path106"
             style="fill:#ffffff;fill-opacity:1;fill-rule:nonzero;stroke:none"
             d="m 1990.41,1167.27 h -657.19 v 91.81 h 657.19 v -91.81" /></g></g><path
         id="path108"
         style="fill:#ffffff;fill-opacity:1;fill-rule:nonzero;stroke:none"
         d="m 86.3203,108.98 9.2149,9.008 H 92.5117 V 1733.31 H 622.969 V 633.809 l 18.004,17.613 V 1751.32 H 74.5078 V 99.9805 H 640.973 V 108.98 H 86.3203" /><path
         id="path110"
         style="fill:none;stroke:#ffffff;stroke-width:18;stroke-linecap:butt;stroke-linejoin:miter;stroke-miterlimit:4;stroke-dasharray:none;stroke-opacity:1"
         d="M 1716.68,1311.89 H 1326.32 L 96.3203,108.98 H 891.57 l 825.11,806.93 z" /><g
         id="g112"><g
           clip-path="url(#clipPath118)"
           id="g114"><path
             id="path120"
             style="fill:#ffffff;fill-opacity:1;fill-rule:nonzero;stroke:none"
             d="m 1326.32,1311.89 h 795.25 L 891.57,108.98 H 96.3203 L 1326.32,1311.89" /></g></g></g></g></svg>