<svg width="549" height="109" viewBox="0 0 549 109" fill="none" xmlns="http://www.w3.org/2000/svg">
<path d="M156.61 27.0322L156.827 28.0117L163.298 57.1309L170.984 27.9648L171.23 27.0322L186.049 27.0322L186.294 27.9658L193.978 57.2246L200.449 28.0127L200.667 27.0322L219.721 27.0322L219.248 28.6367L203.294 82.7324L203.03 83.6289L187.115 83.6289L186.845 82.7422L178.638 55.7656L170.433 82.7422L170.162 83.6289L154.248 83.6289L153.984 82.7324L138.03 28.6367L137.556 27.0322L156.61 27.0322Z" stroke="white" stroke-width="2.5025"/>
<path d="M125.608 27.0322L125.891 27.8906L143.747 81.9863L144.289 83.6289L125.781 83.6289L125.512 82.7402L122.655 73.2754L106.676 73.2754L103.819 82.7402L103.55 83.6289L85.0425 83.6289L85.5845 81.9863L103.44 27.8906L103.724 27.0322L125.608 27.0322ZM110.749 59.7852L118.583 59.7852L114.666 46.8086L110.749 59.7852Z" stroke="white" stroke-width="2.5025"/>
<path d="M62.2349 27.0322C66.4015 27.0322 70.1079 27.7907 73.3198 29.3496C76.5378 30.9115 79.0656 33.1769 80.8687 36.1377C82.6822 39.1157 83.5601 42.6435 83.5601 46.667C83.5601 50.7287 82.6539 54.2447 80.77 57.1475C79.2725 59.4769 77.2831 61.336 74.8267 62.7275L85.2036 81.7793L86.2114 83.6289L67.3999 83.6289L67.0464 82.9658L57.9019 65.7734L54.8228 65.7734L54.8228 83.6289L37.6343 83.6289L37.6343 27.0322L62.2349 27.0322ZM54.8228 51.8604L58.7485 51.8604C60.3789 51.8603 61.7022 51.6598 62.7485 51.2959C63.7624 50.9319 64.4725 50.3867 64.9536 49.6846L64.9575 49.6777L64.9624 49.6709C65.4424 48.9886 65.7378 48.022 65.7378 46.667C65.7378 45.2924 65.4417 44.304 64.9565 43.6016L64.9487 43.5908L64.9419 43.5801C64.4531 42.8404 63.7371 42.2728 62.7241 41.8965L62.7134 41.8936L62.7036 41.8896C61.6725 41.4862 60.3656 41.2617 58.7485 41.2617L54.8228 41.2617L54.8228 51.8604Z" stroke="white" stroke-width="2.5025"/>
<path d="M236.931 40.4688L236.931 28.6355L283.947 28.6355L283.947 40.4688L267.676 40.4688L267.676 82.7305L253.202 82.7305L253.202 40.4688L236.931 40.4688ZM296.698 82.7305L280.85 82.7305L298.705 28.6355L318.78 28.6355L336.635 82.7305L320.787 82.7305L308.954 43.5328L308.531 43.5328L296.698 82.7305ZM293.74 61.3883L323.534 61.3883L323.534 72.3764L293.74 72.3764L293.74 61.3883ZM341.845 82.7305L341.845 28.6355L356.531 28.6355L356.531 70.8972L378.402 70.8972L378.402 82.7305L341.845 82.7305ZM384.338 82.7305L384.338 28.6355L423.325 28.6355L423.325 40.4688L399.024 40.4688L399.024 49.7664L421.317 49.7664L421.317 61.5996L399.024 61.5996L399.024 70.8972L423.219 70.8972L423.219 82.7305L384.338 82.7305ZM477.413 28.6355L477.413 82.7305L465.157 82.7305L445.611 54.3095L445.294 54.3095L445.294 82.7305L430.608 82.7305L430.608 28.6355L443.075 28.6355L462.304 56.9509L462.727 56.9509L462.727 28.6355L477.413 28.6355ZM482.88 40.4688L482.88 28.6355L529.897 28.6355L529.897 40.4688L513.626 40.4688L513.626 82.7305L499.151 82.7305L499.151 40.4688L482.88 40.4688Z" fill="white"/>
<path d="M38.1194 34.3106L38.1194 13.4512" stroke="white" stroke-width="1.81386" stroke-dasharray="14.51 1.81"/>
<path d="M38.1194 95.0762L38.1194 74.2168" stroke="white" stroke-width="1.81386" stroke-dasharray="14.51 1.81"/>
<path d="M49.0024 27.0566L25.4221 27.0566" stroke="white" stroke-width="1.81386" stroke-dasharray="14.51 1.81"/>
<path d="M50.8162 83.2852L25.4221 83.2852" stroke="white" stroke-width="1.81386" stroke-dasharray="14.51 1.81"/>
<mask id="mask0_154_9500" style="mask-type:alpha" maskUnits="userSpaceOnUse" x="38" y="28" width="181" height="55">
<path d="M155.184 82.3781L139.23 28.2832L155.606 28.2832L163.002 61.5643L163.425 61.5643L172.194 28.2832L185.084 28.2832L193.853 61.6699L194.276 61.6699L201.671 28.2832L218.048 28.2832L202.094 82.3781L188.042 82.3781L178.85 52.161L178.427 52.161L169.236 82.3781L155.184 82.3781Z" fill="white"/>
<path d="M102.621 82.3781L86.7729 82.3781L104.628 28.2832L124.703 28.2832L142.558 82.3781L126.71 82.3781L114.877 43.1804L114.454 43.1804L102.621 82.3781ZM99.6628 61.036L129.457 61.036L129.457 72.024L99.6628 72.024L99.6628 61.036Z" fill="white"/>
<path d="M38.8853 82.3781L38.8853 28.2832L62.2348 28.2832C66.2497 28.2832 69.7627 29.014 72.7738 30.4755C75.785 31.9371 78.127 34.0414 79.7998 36.7884C81.4727 39.5354 82.3091 42.8283 82.3091 46.667C82.3091 50.541 81.4463 53.8075 79.7206 56.4665C78.0125 59.1254 75.6089 61.1328 72.5097 62.4887C69.4281 63.8446 65.8271 64.5226 61.7066 64.5226L47.7602 64.5226L47.7602 53.1119L58.7482 53.1119C60.4739 53.1119 61.9443 52.9006 63.1593 52.478C64.3919 52.0378 65.334 51.3422 65.9856 50.3913C66.6547 49.4405 66.9893 48.199 66.9893 46.667C66.9893 45.1174 66.6547 43.8584 65.9856 42.8899C65.334 41.9038 64.3919 41.1818 63.1593 40.724C61.9443 40.2485 60.4739 40.0108 58.7482 40.0108L53.5712 40.0108L53.5712 82.3781L38.8853 82.3781ZM70.5815 57.5494L84.1052 82.3781L68.1515 82.3781L54.9447 57.5494L70.5815 57.5494Z" fill="white"/>
<path d="M38.8853 82.3781L38.8853 28.2832L62.2348 28.2832C66.2497 28.2832 69.7627 29.014 72.7738 30.4755C75.785 31.9371 78.127 34.0414 79.7998 36.7884C81.4727 39.5354 82.3091 42.8283 82.3091 46.667C82.3091 50.541 81.4463 53.8075 79.7206 56.4665C78.0125 59.1254 75.6089 61.1328 72.5097 62.4887C69.4281 63.8446 65.8271 64.5226 61.7066 64.5226L47.7602 64.5226L47.7602 53.1119L58.7482 53.1119C60.4739 53.1119 61.9443 52.9006 63.1593 52.478C64.3919 52.0378 65.334 51.3422 65.9856 50.3913C66.6547 49.4405 66.9893 48.199 66.9893 46.667C66.9893 45.1174 66.6547 43.8584 65.9856 42.8899C65.334 41.9038 64.3919 41.1818 63.1593 40.724C61.9443 40.2485 60.4739 40.0108 58.7482 40.0108L53.5712 40.0108L53.5712 82.3781L38.8853 82.3781ZM70.5815 57.5494L84.1052 82.3781L68.1515 82.3781L54.9447 57.5494L70.5815 57.5494Z" fill="#2A42DC"/>
</mask>
<g mask="url(#mask0_154_9500)">
<path d="M-5.42285 67.0215L131.917 204.362" stroke="white" stroke-opacity="0.63" stroke-width="0.906932"/>
<path d="M-2.85767 64.457L134.482 201.797" stroke="white" stroke-opacity="0.63" stroke-width="0.906932"/>
<path d="M-0.29248 61.8906L137.048 199.231" stroke="white" stroke-opacity="0.63" stroke-width="0.906932"/>
<path d="M2.27271 59.3262L139.613 196.666" stroke="white" stroke-opacity="0.63" stroke-width="0.906932"/>
<path d="M4.83789 56.7617L142.178 194.102" stroke="white" stroke-opacity="0.63" stroke-width="0.906932"/>
<path d="M7.40308 54.1953L144.743 191.535" stroke="white" stroke-opacity="0.63" stroke-width="0.906932"/>
<path d="M9.96826 51.6309L147.308 188.971" stroke="white" stroke-opacity="0.63" stroke-width="0.906932"/>
<path d="M12.5334 49.0645L149.874 186.405" stroke="white" stroke-opacity="0.63" stroke-width="0.906932"/>
<path d="M15.0986 46.5L152.439 183.84" stroke="white" stroke-opacity="0.63" stroke-width="0.906932"/>
<path d="M17.6638 43.9355L155.004 181.276" stroke="white" stroke-opacity="0.63" stroke-width="0.906932"/>
<path d="M20.229 41.3691L157.569 178.709" stroke="white" stroke-opacity="0.63" stroke-width="0.906932"/>
<path d="M22.7942 38.8047L160.134 176.145" stroke="white" stroke-opacity="0.63" stroke-width="0.906932"/>
<path d="M25.3594 36.2383L162.699 173.578" stroke="white" stroke-opacity="0.63" stroke-width="0.906932"/>
<path d="M27.9246 33.6738L165.265 171.014" stroke="white" stroke-opacity="0.63" stroke-width="0.906932"/>
<path d="M30.4897 31.1094L167.83 168.449" stroke="white" stroke-opacity="0.63" stroke-width="0.906932"/>
<path d="M33.0549 28.543L170.395 165.883" stroke="white" stroke-opacity="0.63" stroke-width="0.906932"/>
<path d="M35.6201 25.9785L172.96 163.319" stroke="white" stroke-opacity="0.63" stroke-width="0.906932"/>
<path d="M38.1853 23.4141L175.525 160.754" stroke="white" stroke-opacity="0.63" stroke-width="0.906932"/>
<path d="M40.7505 20.8477L178.091 158.188" stroke="white" stroke-opacity="0.63" stroke-width="0.906932"/>
<path d="M43.3157 18.2832L180.656 155.623" stroke="white" stroke-opacity="0.63" stroke-width="0.906932"/>
<path d="M45.8811 15.7168L183.221 153.057" stroke="white" stroke-opacity="0.63" stroke-width="0.906932"/>
<path d="M48.446 13.1523L185.786 150.492" stroke="white" stroke-opacity="0.63" stroke-width="0.906932"/>
<path d="M51.0112 10.5879L188.351 147.928" stroke="white" stroke-opacity="0.63" stroke-width="0.906932"/>
<path d="M53.5764 8.02148L190.917 145.362" stroke="white" stroke-opacity="0.63" stroke-width="0.906932"/>
<path d="M56.1416 5.45703L193.482 142.797" stroke="white" stroke-opacity="0.63" stroke-width="0.906932"/>
<path d="M58.707 2.89062L196.047 140.231" stroke="white" stroke-opacity="0.63" stroke-width="0.906932"/>
<path d="M61.272 0.326172L198.612 137.666" stroke="white" stroke-opacity="0.63" stroke-width="0.906932"/>
<path d="M63.8374 -2.23828L201.178 135.102" stroke="white" stroke-opacity="0.63" stroke-width="0.906932"/>
<path d="M66.4023 -4.80469L203.742 132.535" stroke="white" stroke-opacity="0.63" stroke-width="0.906932"/>
<path d="M68.9678 -7.36914L206.308 129.971" stroke="white" stroke-opacity="0.63" stroke-width="0.906932"/>
<path d="M71.533 -9.93555L208.873 127.405" stroke="white" stroke-opacity="0.63" stroke-width="0.906932"/>
<path d="M74.0979 -12.5L211.438 124.84" stroke="white" stroke-opacity="0.63" stroke-width="0.906932"/>
<path d="M76.6633 -15.0645L214.003 122.276" stroke="white" stroke-opacity="0.63" stroke-width="0.906932"/>
<path d="M79.2283 -17.6309L216.568 119.709" stroke="white" stroke-opacity="0.63" stroke-width="0.906932"/>
<path d="M81.7937 -20.1953L219.134 117.145" stroke="white" stroke-opacity="0.63" stroke-width="0.906932"/>
<path d="M84.3589 -22.7598L221.699 114.58" stroke="white" stroke-opacity="0.63" stroke-width="0.906932"/>
<path d="M86.9241 -25.3262L224.264 112.014" stroke="white" stroke-opacity="0.63" stroke-width="0.906932"/>
<path d="M89.4893 -27.8906L226.829 109.449" stroke="white" stroke-opacity="0.63" stroke-width="0.906932"/>
<path d="M92.0544 -30.4551L229.395 106.885" stroke="white" stroke-opacity="0.63" stroke-width="0.906932"/>
<path d="M94.6196 -33.0215L231.96 104.319" stroke="white" stroke-opacity="0.63" stroke-width="0.906932"/>
<path d="M97.1848 -35.5859L234.525 101.754" stroke="white" stroke-opacity="0.63" stroke-width="0.906932"/>
<path d="M99.75 -38.1523L237.09 99.1878" stroke="white" stroke-opacity="0.63" stroke-width="0.906932"/>
<path d="M102.315 -40.7168L239.655 96.6233" stroke="white" stroke-opacity="0.63" stroke-width="0.906932"/>
<path d="M104.88 -43.2812L242.22 94.0589" stroke="white" stroke-opacity="0.63" stroke-width="0.906932"/>
<path d="M107.446 -45.8477L244.786 91.4924" stroke="white" stroke-opacity="0.63" stroke-width="0.906932"/>
<path d="M110.011 -48.4121L247.351 88.928" stroke="white" stroke-opacity="0.63" stroke-width="0.906932"/>
<path d="M112.576 -50.9766L249.916 86.3635" stroke="white" stroke-opacity="0.63" stroke-width="0.906932"/>
<path d="M115.141 -53.543L252.481 83.7971" stroke="white" stroke-opacity="0.63" stroke-width="0.906932"/>
<path d="M117.706 -56.1074L255.046 81.2327" stroke="white" stroke-opacity="0.63" stroke-width="0.906932"/>
<path d="M120.271 -58.6738L257.612 78.6663" stroke="white" stroke-opacity="0.63" stroke-width="0.906932"/>
<path d="M122.837 -61.2383L260.177 76.1018" stroke="white" stroke-opacity="0.63" stroke-width="0.906932"/>
<path d="M125.402 -63.8027L262.742 73.5374" stroke="white" stroke-opacity="0.63" stroke-width="0.906932"/>
<path d="M127.967 -66.3691L265.307 70.971" stroke="white" stroke-opacity="0.63" stroke-width="0.906932"/>
</g>
</svg>
